<svg width="52" height="60" viewBox="0 0 52 60" fill="none" xmlns="http://www.w3.org/2000/svg">
<g id="846, Hospital, Medical, Pharmacy, Report">
<g id="Group">
<path id="Vector" d="M41.0848 39.6295V12.2795C41.0848 9.95945 39.1648 7.93945 36.7448 7.93945H32.2048C32.2048 10.0595 30.4848 11.7695 28.3748 11.7695H14.6448C13.6348 11.7695 12.6248 11.3695 11.9148 10.6595C11.2048 9.94945 10.8048 9.04945 10.8048 7.93945H6.2648C3.9448 7.93945 1.9248 9.85945 1.9248 12.2795V54.1695C1.9248 56.4895 3.8448 58.5095 6.2648 58.5095H36.8448C39.0648 58.5095 40.8848 56.7895 41.0848 54.5695C37.5548 53.9594 34.8248 50.8395 34.8248 47.0995C34.8248 43.3595 37.5448 40.2395 41.0848 39.6295Z" fill="#DBDAFD"/>
<path id="Vector_2" d="M10.8052 38.2188C12.1952 38.2188 13.3252 39.3488 13.3252 40.7388C13.3252 42.1288 12.1952 43.2588 10.8052 43.2588C9.41516 43.2588 8.28516 42.1288 8.28516 40.7388C8.28516 39.3488 9.41516 38.2188 10.8052 38.2188Z" fill="white"/>
<path id="Vector_3" d="M10.8052 28.1289C12.1952 28.1289 13.3252 29.2589 13.3252 30.6489C13.3252 32.0389 12.1952 33.1689 10.8052 33.1689C9.41516 33.1689 8.28516 32.0389 8.28516 30.6489C8.28516 29.2589 9.41516 28.1289 10.8052 28.1289Z" fill="white"/>
<path id="Vector_4" d="M10.8052 18.0293C12.1952 18.0293 13.3252 19.1593 13.3252 20.5493C13.3252 21.9393 12.1952 23.0693 10.8052 23.0693C9.41516 23.0693 8.28516 21.9393 8.28516 20.5493C8.28516 19.1593 9.41516 18.0293 10.8052 18.0293Z" fill="white"/>
<path id="Vector_5" d="M41.0852 54.5693C37.5552 53.9593 34.8252 50.8393 34.8252 47.0993C34.8252 43.3593 37.5452 40.2393 41.1852 39.6293C41.5852 39.5293 41.9952 39.5293 42.4952 39.5293C46.6352 39.5293 50.0652 42.9593 50.0652 47.0993C50.0652 51.2393 46.6352 54.6693 42.4952 54.6693C41.8852 54.6693 41.4852 54.5693 41.0852 54.5693Z" fill="white"/>
<path id="Vector_6" d="M21.5044 1.67969C22.8944 1.67969 24.0244 2.80969 24.0244 4.19969C24.0244 5.58969 22.8944 6.71969 21.5044 6.71969C20.1144 6.71969 18.9844 5.58969 18.9844 4.19969C18.9844 2.80969 20.1144 1.67969 21.5044 1.67969Z" fill="white"/>
<path id="Vector_7" d="M31.1949 5.31898C31.9049 6.02898 32.3049 6.92898 32.3049 8.03898C32.3049 10.159 30.5849 11.879 28.4649 11.879H14.6349C13.6249 11.879 12.6149 11.479 11.9049 10.769C11.1949 10.059 10.7949 9.14898 10.7949 8.03898C10.7949 5.91898 12.5149 4.20898 14.6349 4.20898H19.0749C19.0749 5.61898 20.1849 6.72898 21.5949 6.72898C23.0049 6.72898 24.1149 5.61898 24.1149 4.20898H28.5549C29.4649 4.20898 30.4749 4.60898 31.1749 5.31898H31.1949Z" fill="white"/>
<path id="Vector_8" d="M28.4745 12.9904H14.6445C13.3345 12.9904 12.0245 12.4904 11.1145 11.4804C10.2045 10.4704 9.60449 9.26039 9.60449 7.95039C9.60449 5.12039 11.8245 2.90039 14.6545 2.90039H19.0945C19.8045 2.90039 20.4045 3.51039 20.4045 4.21039C20.4045 4.91039 19.7945 5.52039 19.0945 5.52039H14.6545C13.2445 5.52039 12.1345 6.63039 12.1345 8.04039C12.1345 8.75039 12.4345 9.35039 12.8445 9.86039C13.3445 10.3604 13.9545 10.5704 14.6645 10.5704H28.5945C30.0045 10.5704 31.1145 9.46039 31.1145 8.05039C31.1145 7.34039 30.8145 6.74039 30.4045 6.23039C29.9045 5.73039 29.2945 5.52039 28.5845 5.52039H24.1445C23.4345 5.52039 22.8345 4.91039 22.8345 4.21039C22.8345 3.51039 23.4445 2.90039 24.1445 2.90039H28.5845C29.8945 2.90039 31.2045 3.40039 32.1145 4.41039C33.0245 5.32039 33.6245 6.63039 33.6245 7.94039C33.5245 10.7704 31.3045 12.9904 28.4745 12.9904Z" fill="#001452"/>
<path id="Vector_9" d="M21.505 7.93953C19.385 7.93953 17.665 6.21953 17.665 4.09953C17.665 1.97953 19.385 0.269531 21.505 0.269531C23.625 0.269531 25.345 1.98953 25.345 4.09953C25.345 6.20953 23.625 7.93953 21.505 7.93953ZM21.505 2.88953C20.795 2.88953 20.195 3.49953 20.195 4.19953C20.195 4.89953 20.805 5.50953 21.505 5.50953C22.205 5.50953 22.815 4.89953 22.815 4.19953C22.815 3.49953 22.205 2.88953 21.505 2.88953Z" fill="#001452"/>
<path id="Vector_10" d="M36.8448 59.7205H6.26484C3.23484 59.7205 0.714844 57.2005 0.714844 54.1705V12.2805C0.714844 9.25047 3.23484 6.73047 6.26484 6.73047H10.8048C11.5148 6.73047 12.1148 7.34047 12.1148 8.04047C12.1148 8.74047 11.5048 9.35047 10.8048 9.35047H6.26484C4.54484 9.35047 3.23484 10.6605 3.23484 12.3805V54.2705C3.23484 55.9905 4.54484 57.3005 6.26484 57.3005H36.8448C38.4648 57.3005 39.6748 56.0905 39.8748 54.5805C39.9748 53.9705 40.4848 53.4705 41.0848 53.4705C41.7948 53.4705 42.3948 54.0805 42.3948 54.6805V54.7805C42.0948 57.5005 39.6648 59.7305 36.8448 59.7305V59.7205Z" fill="#001452"/>
<path id="Vector_11" d="M41.0845 40.8489C40.3745 40.8489 39.7745 40.2389 39.7745 39.6389V12.2789C39.7745 10.5589 38.4645 9.24891 36.7445 9.24891H32.2045C31.4945 9.24891 30.8945 8.63891 30.8945 7.93891C30.8945 7.23891 31.5045 6.62891 32.2045 6.62891H36.7445C39.7745 6.62891 42.2945 9.14891 42.2945 12.1789V39.5289C42.3945 40.3389 41.7945 40.8389 41.0845 40.8389V40.8489Z" fill="#001452"/>
<path id="Vector_12" d="M10.8048 24.389C8.68484 24.389 6.96484 22.669 6.96484 20.549C6.96484 18.429 8.68484 16.709 10.8048 16.709C12.9248 16.709 14.6448 18.429 14.6448 20.549C14.6448 22.669 12.9248 24.389 10.8048 24.389ZM10.8048 19.339C10.0948 19.339 9.49484 19.949 9.49484 20.649C9.49484 21.349 10.1048 21.959 10.8048 21.959C11.5048 21.959 12.1148 21.349 12.1148 20.649C12.1148 19.949 11.5048 19.339 10.8048 19.339Z" fill="#001452"/>
<path id="Vector_13" d="M24.7345 20.5595H18.3745C17.6645 20.5595 17.0645 19.9495 17.0645 19.2495C17.0645 18.5495 17.6745 17.9395 18.3745 17.9395H24.7345C25.4445 17.9395 26.0445 18.5495 26.0445 19.2495C25.9445 20.0595 25.3345 20.5595 24.7345 20.5595Z" fill="#001452"/>
<path id="Vector_14" d="M33.5145 24.3895H18.3745C17.6645 24.3895 17.0645 23.7795 17.0645 23.0795C17.0645 22.3795 17.6745 21.7695 18.3745 21.7695H33.5145C34.2245 21.7695 34.8245 22.3795 34.8245 23.0795C34.8245 23.7795 34.2145 24.3895 33.5145 24.3895Z" fill="#001452"/>
<path id="Vector_15" d="M10.8048 34.4903C8.68484 34.4903 6.96484 32.7703 6.96484 30.6503C6.96484 28.5303 8.68484 26.8203 10.8048 26.8203C12.9248 26.8203 14.6448 28.5403 14.6448 30.6503C14.6448 32.7603 12.9248 34.4903 10.8048 34.4903ZM10.8048 29.4403C10.0948 29.4403 9.49484 30.0503 9.49484 30.7503C9.49484 31.4503 10.1048 32.0603 10.8048 32.0603C11.5048 32.0603 12.1148 31.4503 12.1148 30.7503C12.1148 30.0503 11.5048 29.4403 10.8048 29.4403Z" fill="#001452"/>
<path id="Vector_16" d="M24.7345 30.6493H18.3745C17.6645 30.6493 17.0645 30.0393 17.0645 29.3393C17.0645 28.6393 17.6745 28.0293 18.3745 28.0293H24.7345C25.4445 28.0293 26.0445 28.6393 26.0445 29.3393C25.9445 30.1493 25.3345 30.6493 24.7345 30.6493Z" fill="#001452"/>
<path id="Vector_17" d="M33.5145 34.4891H18.3745C17.6645 34.4891 17.0645 33.8791 17.0645 33.1791C17.0645 32.4791 17.6745 31.8691 18.3745 31.8691H33.5145C34.2245 31.8691 34.8245 32.4791 34.8245 33.1791C34.8245 33.8791 34.2145 34.4891 33.5145 34.4891Z" fill="#001452"/>
<path id="Vector_18" d="M10.8048 44.5802C8.68484 44.5802 6.96484 42.8602 6.96484 40.7502C6.96484 38.6402 8.68484 36.9102 10.8048 36.9102C12.9248 36.9102 14.6448 38.6302 14.6448 40.7502C14.6448 42.8702 12.9248 44.5802 10.8048 44.5802ZM10.8048 39.5302C10.0948 39.5302 9.49484 40.1402 9.49484 40.8402C9.49484 41.5402 10.1048 42.1502 10.8048 42.1502C11.5048 42.1502 12.1148 41.5402 12.1148 40.8402C12.1148 40.1402 11.5048 39.5302 10.8048 39.5302Z" fill="#001452"/>
<path id="Vector_19" d="M24.7345 40.7391H18.3745C17.6645 40.7391 17.0645 40.1291 17.0645 39.4291C17.0645 38.7291 17.6745 38.1191 18.3745 38.1191H24.7345C25.4445 38.1191 26.0445 38.7291 26.0445 39.4291C26.0445 40.1291 25.3345 40.7391 24.7345 40.7391Z" fill="#001452"/>
<path id="Vector_20" d="M30.9945 44.579H18.3745C17.6645 44.579 17.0645 43.969 17.0645 43.269C17.0645 42.569 17.6745 41.959 18.3745 41.959H30.9945C31.7045 41.959 32.3045 42.569 32.3045 43.269C32.3045 43.969 31.6945 44.579 30.9945 44.579Z" fill="#001452"/>
<path id="Vector_21" d="M42.4044 55.8803C41.9044 55.8803 41.3944 55.8803 40.8944 55.7803C36.6544 55.0703 33.5244 51.4403 33.5244 47.1003C33.5244 42.7603 36.6544 39.1303 40.8944 38.4203C41.3944 38.3203 41.9044 38.3203 42.4044 38.3203C47.2444 38.3203 51.2844 42.2603 51.2844 47.2003C51.2844 52.1403 47.2444 55.8803 42.4044 55.8803ZM42.4044 40.7403C42.0044 40.7403 41.6944 40.7403 41.3944 40.8403C38.3644 41.3403 36.1444 43.9703 36.1444 47.1003C36.1444 50.2303 38.3644 52.7503 41.3944 53.3603C41.6944 53.4603 42.1044 53.4603 42.5044 53.4603C45.9344 53.4603 48.8644 50.6303 48.8644 47.1003C48.8644 43.5703 45.8344 40.7403 42.4044 40.7403Z" fill="#001452"/>
<path id="Vector_22" d="M40.7847 51.1389C40.4847 51.1389 40.1747 51.0389 39.8747 50.7389L38.0547 49.0189C37.5547 48.5189 37.5547 47.7089 38.0547 47.1989C38.5547 46.6989 39.3647 46.6989 39.8747 47.1989L40.7847 48.1089L44.0147 44.8789C44.5147 44.3789 45.3247 44.3789 45.8347 44.8789C46.3447 45.3789 46.3347 46.1889 45.8347 46.6989L41.6947 50.8389C41.3947 51.0389 41.0847 51.1389 40.7847 51.1389Z" fill="#001452"/>
</g>
</g>
</svg>
