<svg width="64" height="47" viewBox="0 0 64 47" fill="none" xmlns="http://www.w3.org/2000/svg">
<g id="Group 7">
<g id="Group">
<path id="Vector" d="M32.0002 40.1864C40.9166 40.1864 48.1449 32.7796 48.1449 23.6428C48.1449 14.5061 40.9166 7.09924 32.0002 7.09924C23.0837 7.09924 15.8555 14.5061 15.8555 23.6428C15.8555 32.7796 23.0837 40.1864 32.0002 40.1864Z" fill="#DBDAFD" stroke="#001452" stroke-width="2" stroke-linecap="round" stroke-linejoin="round"/>
<path id="Vector_2" d="M31.9997 40.1864C36.8552 40.1864 40.7914 32.7796 40.7914 23.6428C40.7914 14.5061 36.8552 7.09924 31.9997 7.09924C27.1442 7.09924 23.208 14.5061 23.208 23.6428C23.208 32.7796 27.1442 40.1864 31.9997 40.1864Z" stroke="#001452" stroke-width="2" stroke-linecap="round" stroke-linejoin="round"/>
<path id="Vector_3" d="M47.1512 20.2256H17.3828" stroke="#001452" stroke-width="2" stroke-linecap="round" stroke-linejoin="round"/>
<path id="Vector_4" d="M47.1512 27.9429H17.3828" stroke="#001452" stroke-width="2" stroke-linecap="round" stroke-linejoin="round"/>
<path id="Vector_5" d="M31.7158 8.09644V40.0694" stroke="#001452" stroke-width="2" stroke-linecap="round" stroke-linejoin="round"/>
</g>
<g id="Group_2">
<path id="Vector_6" d="M13.5591 9.76117C10.3971 13.4656 8.48242 18.3135 8.48242 23.6189C8.48242 33.6817 15.37 42.0931 24.5766 44.178" stroke="#001452" stroke-width="2" stroke-linecap="round" stroke-linejoin="round"/>
<path id="Vector_7" d="M16.5486 41.4283C18.5696 41.4469 20.261 43.0186 20.7902 43.5664C20.8859 43.6675 20.8859 43.8377 20.7875 43.9361C20.2477 44.4759 18.5324 46.0183 16.5113 45.9997C14.4902 45.9811 12.7989 44.4094 12.2697 43.8616C12.174 43.7605 12.174 43.5903 12.2724 43.492C12.8122 42.9521 14.5275 41.4097 16.5486 41.4283Z" fill="#DBDAFD" stroke="#001452" stroke-width="2" stroke-linecap="round" stroke-linejoin="round"/>
<path id="Vector_8" d="M9.27452 33.7562C11.1626 34.4928 12.2157 36.5698 12.5242 37.2718C12.58 37.3995 12.5215 37.5617 12.3966 37.6175C11.7078 37.9313 9.57502 38.7663 7.68691 38.0297C5.7988 37.2931 4.74571 35.2162 4.43723 34.5141C4.38138 34.3865 4.43989 34.2242 4.56487 34.1684C5.25364 33.8546 7.38641 33.0196 9.27452 33.7562Z" fill="#DBDAFD" stroke="#001452" stroke-width="2" stroke-linecap="round" stroke-linejoin="round"/>
<path id="Vector_9" d="M6.82351 23.6774C8.43239 24.9273 8.87384 27.2223 8.97755 27.9882C8.99616 28.1265 8.89511 28.2647 8.75949 28.2834C8.01222 28.3871 5.73585 28.5732 4.12696 27.3233C2.51808 26.0735 2.07663 23.7785 1.97292 23.0126C1.9543 22.8743 2.05536 22.736 2.19098 22.7174C2.93825 22.6137 5.21462 22.4275 6.82351 23.6774Z" fill="#DBDAFD" stroke="#001452" stroke-width="2" stroke-linecap="round" stroke-linejoin="round"/>
<path id="Vector_10" d="M8.8918 13.3832C9.81192 15.2261 9.23751 17.4892 9.00615 18.2258C8.9636 18.3588 8.81468 18.4386 8.68437 18.3933C7.96901 18.154 5.8389 17.3083 4.91878 15.4654C3.99866 13.6225 4.57307 11.3595 4.80443 10.6228C4.84698 10.4899 4.9959 10.4101 5.12621 10.4553C5.84156 10.6946 7.97167 11.5403 8.8918 13.3832Z" fill="#DBDAFD" stroke="#001452" stroke-width="2" stroke-linecap="round" stroke-linejoin="round"/>
<path id="Vector_11" d="M17.5355 5.977C16.8255 7.91564 14.8044 9.0033 14.121 9.32508C13.996 9.38359 13.8391 9.32508 13.7832 9.19478C13.4721 8.49006 12.6477 6.30942 13.3577 4.37078C14.0678 2.43214 16.0888 1.34448 16.7723 1.0227C16.8973 0.964198 17.0542 1.0227 17.11 1.15301C17.4212 1.85773 18.2456 4.03836 17.5355 5.977Z" fill="#DBDAFD" stroke="#001452" stroke-width="2" stroke-linecap="round" stroke-linejoin="round"/>
</g>
<g id="Group_3">
<path id="Vector_12" d="M50.4394 9.76117C53.6013 13.4656 55.516 18.3135 55.516 23.6189C55.516 33.6817 48.6284 42.0931 39.4219 44.178" stroke="#001452" stroke-width="2" stroke-linecap="round" stroke-linejoin="round"/>
<path id="Vector_13" d="M47.4537 41.4283C45.4326 41.4469 43.7413 43.0186 43.2121 43.5664C43.1164 43.6675 43.1164 43.8377 43.2148 43.9361C43.7546 44.4759 45.4699 46.0183 47.4909 45.9997C49.512 45.9811 51.2033 44.4094 51.7325 43.8616C51.8283 43.7605 51.8283 43.5903 51.7299 43.492C51.19 42.9521 49.4748 41.4097 47.4537 41.4283Z" fill="#DBDAFD" stroke="#001452" stroke-width="2" stroke-linecap="round" stroke-linejoin="round"/>
<path id="Vector_14" d="M54.724 33.7562C52.8359 34.4928 51.7828 36.5698 51.4743 37.2718C51.4185 37.3995 51.477 37.5617 51.602 37.6175C52.2907 37.9313 54.4235 38.7663 56.3116 38.0297C58.1997 37.2931 59.2528 35.2162 59.5613 34.5141C59.6172 34.3865 59.5587 34.2242 59.4337 34.1684C58.7449 33.8546 56.6121 33.0196 54.724 33.7562Z" fill="#DBDAFD" stroke="#001452" stroke-width="2" stroke-linecap="round" stroke-linejoin="round"/>
<path id="Vector_15" d="M57.1758 23.6774C55.5669 24.9273 55.1255 27.2223 55.0217 27.9882C55.0031 28.1265 55.1042 28.2647 55.2398 28.2834C55.9871 28.3871 58.2634 28.5732 59.8723 27.3233C61.4812 26.0735 61.9227 23.7785 62.0264 23.0126C62.045 22.8743 61.9439 22.736 61.8083 22.7174C61.061 22.6137 58.7847 22.4275 57.1758 23.6774Z" fill="#DBDAFD" stroke="#001452" stroke-width="2" stroke-linecap="round" stroke-linejoin="round"/>
<path id="Vector_16" d="M55.1073 13.3832C54.1871 15.2261 54.7615 17.4892 54.9929 18.2258C55.0355 18.3588 55.1844 18.4386 55.3147 18.3933C56.03 18.154 58.1601 17.3083 59.0803 15.4654C60.0004 13.6225 59.426 11.3595 59.1946 10.6228C59.1521 10.4899 59.0032 10.4101 58.8728 10.4553C58.1575 10.6946 56.0274 11.5403 55.1073 13.3832Z" fill="#DBDAFD" stroke="#001452" stroke-width="2" stroke-linecap="round" stroke-linejoin="round"/>
<path id="Vector_17" d="M46.4642 5.977C47.1742 7.91564 49.1953 9.0033 49.8787 9.32508C50.0037 9.38359 50.1606 9.32508 50.2165 9.19478C50.5276 8.49006 51.352 6.30942 50.642 4.37078C49.9319 2.43214 47.9108 1.34448 47.2274 1.0227C47.1024 0.964198 46.9455 1.0227 46.8897 1.15301C46.5785 1.85773 45.7541 4.03836 46.4642 5.977Z" fill="#DBDAFD" stroke="#001452" stroke-width="2" stroke-linecap="round" stroke-linejoin="round"/>
</g>
</g>
</svg>
