<svg width="52" height="53" viewBox="0 0 52 53" fill="none" xmlns="http://www.w3.org/2000/svg">
<g id="D - 726, Child, dad, family, father, kid">
<path id="Vector" d="M46.6583 35.2292L51.2373 39.7224H51.2201C51.6574 40.1597 51.9147 40.76 52.0004 41.4545C52.0004 42.7494 50.9629 43.7869 49.6681 43.7869C49.0592 43.7869 48.4504 43.5211 48.0217 43.0923L46.8984 41.969V51.3071C46.8984 51.9159 46.3839 52.4304 45.7751 52.4304H42.4909C41.8821 52.4304 41.3676 51.9159 41.3676 51.3071V45.6905H40.8531V51.3071C40.8531 51.9159 40.3386 52.4304 39.7298 52.4304H36.4456C35.8368 52.4304 35.3223 51.9159 35.3223 51.3071V41.969L34.199 43.0923C33.2472 44.0442 31.7809 44.0442 30.8291 43.0923C29.8773 42.1405 29.8773 40.6742 30.8291 39.7224L35.4081 35.2292C35.6653 34.972 35.9311 34.8862 36.1884 34.8862H37.3974C37.0544 34.2774 36.8829 33.5914 36.8829 32.8111C36.8829 30.5645 38.7866 28.6609 41.0332 28.6609C43.2798 28.6609 45.1834 30.4787 45.1834 32.8111C45.1834 33.5914 45.0119 34.2774 44.6689 34.8862H45.878C46.1438 34.8862 46.4868 35.0577 46.6583 35.2292Z" fill="#DBDAFD"/>
<path id="Vector_2" d="M51.2373 39.7224L46.6583 35.2292C46.4868 35.0577 46.1438 34.8862 45.878 34.8862H44.6689C45.0119 34.2774 45.1834 33.5914 45.1834 32.8111C45.1834 30.4787 43.2798 28.6609 41.0332 28.6609C38.7866 28.6609 36.8829 30.5645 36.8829 32.8111C36.8829 33.5914 37.0544 34.2774 37.3974 34.8862H36.1884C35.9311 34.8862 35.6653 34.972 35.4081 35.2292L30.8291 39.7224C29.8773 40.6742 29.8773 42.1405 30.8291 43.0923C31.7809 44.0442 33.2472 44.0442 34.199 43.0923L35.3223 41.969V51.3071C35.3223 51.9159 35.8368 52.4304 36.4456 52.4304H39.7298C40.3386 52.4304 40.8531 51.9159 40.8531 51.3071V45.6905H41.3676V51.3071C41.3676 51.9159 41.8821 52.4304 42.4909 52.4304H45.7751C46.3839 52.4304 46.8984 51.9159 46.8984 51.3071V41.969L48.0217 43.0923C48.4504 43.5211 49.0592 43.7869 49.6681 43.7869C50.9629 43.7869 52.0004 42.7494 52.0004 41.4545C51.9147 40.76 51.6574 40.1597 51.2201 39.7224H51.2373ZM41.0332 30.8217C42.1565 30.8217 43.0225 31.6878 43.0225 32.8111C43.0225 33.9344 42.1565 34.8005 41.0332 34.8005C39.9099 34.8005 39.0438 33.9344 39.0438 32.8111C39.0438 31.6878 39.9956 30.8217 41.0332 30.8217ZM49.4194 41.5403L46.4782 38.5991C46.1352 38.2561 45.6979 38.1704 45.2692 38.3419C44.8404 38.5134 44.5746 38.8564 44.5746 39.3794V50.2695H43.4513V44.653C43.4513 44.0442 42.9368 43.5297 42.328 43.5297H39.644C39.0352 43.5297 38.5207 44.0527 38.5207 44.653V50.2695H37.3974V39.3794C37.3974 38.9507 37.1402 38.5134 36.7029 38.3419C36.2741 38.1704 35.8368 38.2561 35.4938 38.5991L32.5526 41.5403C32.4669 41.626 32.3811 41.626 32.2954 41.5403C32.2096 41.4545 32.2096 41.3688 32.2954 41.283L36.5314 37.0471H45.4321L49.6681 41.283C49.7252 41.3402 49.7538 41.3974 49.7538 41.4545C49.7538 41.626 49.4966 41.7118 49.4108 41.5403H49.4194Z" fill="#001452"/>
<path id="Vector_3" d="M18.4731 15.6871C22.6233 15.6871 26.079 12.3172 26.079 8.08121C26.079 3.84523 22.7091 0.475311 18.4731 0.475311C14.2371 0.475311 10.8672 3.93098 10.8672 8.16696C10.8672 12.4029 14.2371 15.6871 18.4731 15.6871Z" fill="#DBDAFD"/>
<path id="Vector_4" d="M34.8161 33.1541C35.4249 32.8111 35.5106 32.8111 35.7679 32.631C36.2824 32.1166 36.5482 31.422 36.5482 30.7274C36.5482 29.7756 36.0337 28.7381 34.9961 27.7005L27.3045 18.2767C27.133 18.0195 26.79 17.848 26.4384 17.848H11.4667C11.2095 17.848 10.9522 17.9337 10.6864 18.191L1.09973 27.7091C-0.366575 29.1754 -0.366575 31.6021 1.09973 33.0684C2.56603 34.5347 4.99271 34.5347 6.45901 33.0684L10.7807 28.7466V51.4014C10.7807 52.0102 11.2952 52.5247 11.904 52.5247H17.3491C17.9579 52.5247 18.4724 52.0102 18.4724 51.4014V38.4362H20.2045V51.4014C20.2045 52.0102 20.719 52.5247 21.3278 52.5247H26.0869C26.6957 52.5247 27.2102 52.0102 27.2102 51.4014V29.5269C29.714 33.0684 29.5425 32.8969 29.714 33.0684C30.4086 33.7629 31.3604 34.1917 32.398 34.1917C33.1783 34.1917 34.1301 33.8487 34.8161 33.1541Z" fill="#DBDAFD"/>
<path id="Vector_5" d="M18.4731 15.6871C22.6233 15.6871 26.079 12.3172 26.079 8.08121C26.079 3.84523 22.7091 0.475311 18.4731 0.475311C14.2371 0.475311 10.8672 3.93098 10.8672 8.16696C10.8672 12.4029 14.2371 15.6871 18.4731 15.6871ZM18.4731 2.72192C21.5 2.72192 23.9181 5.14003 23.9181 8.16696C23.9181 11.1939 21.5 13.612 18.4731 13.612C15.4462 13.612 13.0281 11.1939 13.0281 8.16696C13.0281 5.14003 15.4462 2.72192 18.4731 2.72192Z" fill="#001452"/>
<path id="Vector_6" d="M34.8161 33.1541C35.4249 32.8111 35.5106 32.8111 35.7679 32.631C36.2824 32.1166 36.5482 31.422 36.5482 30.7274C36.5482 29.7756 36.0337 28.7381 34.9961 27.7005L27.3045 18.2767C27.133 18.0195 26.79 17.848 26.4384 17.848H11.4667C11.2095 17.848 10.9522 17.9337 10.6864 18.191L1.09973 27.7091C-0.366575 29.1754 -0.366575 31.6021 1.09973 33.0684C2.56603 34.5347 4.99271 34.5347 6.45901 33.0684L10.7807 28.7466V51.4014C10.7807 52.0102 11.2952 52.5247 11.904 52.5247H17.3491C17.9579 52.5247 18.4724 52.0102 18.4724 51.4014V38.4362H20.2045V51.4014C20.2045 52.0102 20.719 52.5247 21.3278 52.5247H26.0869C26.6957 52.5247 27.2102 52.0102 27.2102 51.4014V29.5269C29.714 33.0684 29.5425 32.8969 29.714 33.0684C30.4086 33.7629 31.3604 34.1917 32.398 34.1917C33.1783 34.1917 34.1301 33.8487 34.8161 33.1541ZM26.9529 25.4625C26.6957 25.1195 26.1726 24.948 25.7439 25.0337C25.3151 25.2052 24.9636 25.5482 24.9636 26.0713V50.2781H22.3739V37.3129C22.3739 36.7041 21.8595 36.1896 21.2506 36.1896H17.3577C16.7488 36.1896 16.2343 36.7041 16.2343 37.3129V50.2781H12.9502V26.157C12.9502 25.7283 12.6929 25.291 12.2556 25.1195C11.8269 24.948 11.3896 25.0337 11.0466 25.3767L4.82121 31.6021C4.47822 31.9451 4.12665 32.0308 3.69791 32.0308C2.83185 32.0308 2.05153 31.3362 2.05153 30.3844C2.05153 29.9557 2.22303 29.5184 2.48028 29.2611L11.904 20.0089H25.9068C33.7699 29.7756 33.2554 29.1754 33.3412 29.2611C34.2072 30.1272 34.293 30.6417 34.293 30.8132C34.293 30.8703 34.2644 30.9561 34.2072 31.0704C33.6928 31.3277 33.5127 31.4134 33.3412 31.5849C32.7324 32.1937 31.7891 32.1937 31.0946 31.6707L26.9443 25.4453L26.9529 25.4625Z" fill="#001452"/>
</g>
</svg>
