<svg width="56" height="50" viewBox="0 0 56 50" fill="none" xmlns="http://www.w3.org/2000/svg">
<g id="Group">
<path id="Vector" d="M50.6896 28.5992H33.5162C33.0955 28.5992 32.7695 28.3889 32.5592 28.1785C32.3489 27.863 32.2437 27.5475 32.3489 27.1164L34.7887 17.4728C34.8939 14.0759 37.2285 11.4258 40.1942 11.4258H44.222C47.1876 11.4258 49.5223 14.0759 49.6274 17.4728L52.0673 27.0112C52.0673 27.1164 52.1724 27.2215 52.1724 27.4319C51.9621 28.0628 51.4258 28.5992 50.6896 28.5992Z" fill="#DBDAFD"/>
<path id="Vector_2" d="M47.0823 44.6178H37.2178C36.5868 44.6178 35.9453 44.0919 35.9453 43.3453V27.4444C35.9453 26.8029 36.4711 26.1719 37.2178 26.1719H47.0823C47.7238 26.1719 48.3548 26.6977 48.3548 27.4444V43.4504C48.2496 44.0919 47.7238 44.6178 47.0823 44.6178Z" fill="#DBDAFD"/>
<path id="Vector_3" d="M42.0974 10.2593C39.3421 10.2593 37.2178 8.02979 37.2178 5.37964C37.2178 2.72949 39.4473 0.5 42.0974 0.5C44.7476 0.5 46.9771 2.72949 46.9771 5.37964C47.0822 8.02979 44.8527 10.2593 42.0974 10.2593Z" fill="#DBDAFD"/>
<path id="Vector_4" d="M21.382 28.5992H4.20858C3.78793 28.5992 3.46191 28.3889 3.25159 28.1785C3.04126 27.863 2.93609 27.5475 3.04126 27.1164L5.48108 17.4728C5.58624 14.0759 7.9209 11.4258 10.8865 11.4258H14.9144C17.88 11.4258 20.2147 14.0759 20.3198 17.4728L22.7596 27.0112C22.7596 27.1164 22.8648 27.2215 22.8648 27.4319C22.6545 28.0628 22.1181 28.5992 21.382 28.5992Z" fill="#DBDAFD"/>
<path id="Vector_5" d="M17.7746 44.6178H7.91019C7.2792 44.6178 6.6377 44.0919 6.6377 43.3453V27.4444C6.6377 26.8029 7.16352 26.1719 7.91019 26.1719H17.7746C18.4161 26.1719 19.0471 26.6977 19.0471 27.4444V43.4504C18.942 44.0919 18.4161 44.6178 17.7746 44.6178Z" fill="#DBDAFD"/>
<path id="Vector_6" d="M12.7898 10.2593C10.0345 10.2593 7.91016 8.02979 7.91016 5.37964C7.91016 2.72949 10.1396 0.5 12.7898 0.5C15.44 0.5 17.6694 2.72949 17.6694 5.37964C17.7746 8.02979 15.5451 10.2593 12.7898 10.2593Z" fill="#DBDAFD"/>
<path id="Vector_7" d="M50.6896 28.5992H33.5162C33.0955 28.5992 32.7695 28.3889 32.5592 28.1785C32.3489 27.863 32.2437 27.5475 32.3489 27.1164L34.7887 17.4728C34.8939 14.0759 37.2285 11.4258 40.1942 11.4258H44.222C47.1876 11.4258 49.5223 14.0759 49.6274 17.4728L52.0673 27.0112C52.0673 27.1164 52.1724 27.2215 52.1724 27.4319C51.9621 28.0628 51.4258 28.5992 50.6896 28.5992ZM35.1042 26.1594H49.1016L46.9773 17.8934V17.5779C46.9773 15.5588 45.7048 13.8656 44.0116 13.8656H39.9838C38.3958 13.8656 37.0182 15.5588 37.0182 17.5779V17.8934L35.1042 26.1594Z" fill="#001452"/>
<path id="Vector_8" d="M47.0823 44.6178H37.2178C36.5868 44.6178 35.9453 44.0919 35.9453 43.3453V27.4444C35.9453 26.8029 36.4711 26.1719 37.2178 26.1719H47.0823C47.7238 26.1719 48.3548 26.6977 48.3548 27.4444V43.4504C48.2496 44.0919 47.7238 44.6178 47.0823 44.6178ZM38.3851 42.1779H45.7046V28.6012H38.3851V42.1779Z" fill="#001452"/>
<path id="Vector_9" d="M42.0977 44.6159C41.4667 44.6159 40.8252 44.09 40.8252 43.3434V33.2686C40.8252 32.6271 41.351 31.9961 42.0977 31.9961C42.8444 31.9961 43.3702 32.5219 43.3702 33.2686V43.3434C43.3702 44.09 42.8444 44.6159 42.0977 44.6159Z" fill="#001452"/>
<path id="Vector_10" d="M42.0974 10.2593C39.3421 10.2593 37.2178 8.02979 37.2178 5.37964C37.2178 2.72949 39.4473 0.5 42.0974 0.5C44.7476 0.5 46.9771 2.72949 46.9771 5.37964C47.0822 8.02979 44.8527 10.2593 42.0974 10.2593ZM42.0974 2.83466C40.7198 2.83466 39.6576 3.89682 39.6576 5.27448C39.6576 6.65214 40.7198 7.7143 42.0974 7.7143C43.4751 7.7143 44.5372 6.65214 44.5372 5.27448C44.5372 3.89682 43.4751 2.83466 42.0974 2.83466Z" fill="#001452"/>
<path id="Vector_11" d="M21.2121 28.5992H4.03866C3.618 28.5992 3.29199 28.3889 3.08166 28.1785C2.87133 27.863 2.76617 27.5475 2.87133 27.1164L5.31116 17.4728C5.41632 14.0759 7.75098 11.4258 10.7166 11.4258H14.7444C17.7101 11.4258 20.0447 14.0759 20.1499 17.4728L22.5897 27.0112C22.5897 27.1164 22.6949 27.2215 22.6949 27.4319C22.4846 28.0628 21.9482 28.5992 21.2121 28.5992ZM5.62665 26.1594H19.6241L17.4997 17.8934V17.5779C17.4997 15.5588 16.2273 13.8656 14.5341 13.8656H10.5063C8.91831 13.8656 7.54065 15.5588 7.54065 17.5779V17.8934L5.63717 26.1594H5.62665Z" fill="#001452"/>
<path id="Vector_12" d="M17.604 44.6178H7.75003C7.10853 44.6178 6.47754 44.0919 6.47754 43.3453V27.4444C6.47754 26.8029 7.00336 26.1719 7.75003 26.1719H17.6145C18.256 26.1719 18.887 26.6977 18.887 27.4444V43.4504C18.7818 44.0919 18.256 44.6178 17.6145 44.6178H17.604ZM8.90684 42.1779H16.2263V28.6012H8.90684V42.1779Z" fill="#001452"/>
<path id="Vector_13" d="M12.6309 44.6159C11.9999 44.6159 11.3584 44.09 11.3584 43.3434V33.2686C11.3584 32.6271 11.8842 31.9961 12.6309 31.9961C13.2619 31.9961 13.9034 32.5219 13.9034 33.2686V43.3434C13.9034 44.09 13.3776 44.6159 12.6309 44.6159Z" fill="#001452"/>
<path id="Vector_14" d="M12.6296 10.2593C9.87433 10.2593 7.75 8.02979 7.75 5.37964C7.75 2.72949 9.97949 0.5 12.6296 0.5C15.2798 0.5 17.5093 2.72949 17.5093 5.37964C17.6145 8.02979 15.385 10.2593 12.6296 10.2593ZM12.6296 2.83466C11.252 2.83466 10.1898 3.89682 10.1898 5.27448C10.1898 6.65214 11.252 7.7143 12.6296 7.7143C14.0073 7.7143 15.0695 6.65214 15.0695 5.27448C15.0695 3.89682 14.0073 2.83466 12.6296 2.83466Z" fill="#001452"/>
<path id="Vector_15" d="M27.3643 49.4945C26.7228 49.4945 26.0918 48.9686 26.0918 48.222V11.4248C26.0918 10.7833 26.6176 10.1523 27.3643 10.1523C28.111 10.1523 28.6368 10.6782 28.6368 11.4248V48.222C28.6368 48.9686 28.111 49.4945 27.3643 49.4945Z" fill="#001452"/>
<path id="Vector_16" d="M27.3636 8.987C27.0481 8.987 26.7221 8.88184 26.5118 8.67151C26.3015 8.46118 26.1963 8.14568 26.1963 7.81967C26.1963 7.49366 26.3015 7.18868 26.5118 6.96784C26.7221 6.75751 27.0376 6.65234 27.3636 6.65234C27.6896 6.65234 27.9946 6.75751 28.2155 6.96784C28.4258 7.17817 28.5309 7.49366 28.5309 7.81967C28.5309 8.14568 28.4258 8.46118 28.2155 8.67151C28.0051 8.88184 27.6896 8.987 27.3636 8.987Z" fill="#001452"/>
<path id="Vector_17" d="M54.4019 49.4981H1.59867C0.95716 49.4981 0.326172 48.9723 0.326172 48.2256C0.326172 47.5946 0.851996 46.9531 1.59867 46.9531H54.4019C55.0434 46.9531 55.6744 47.4789 55.6744 48.2256C55.6744 48.9723 55.0434 49.4981 54.4019 49.4981Z" fill="#001452"/>
</g>
</svg>
