<svg width="54" height="58" viewBox="0 0 54 58" fill="none" xmlns="http://www.w3.org/2000/svg">
<g id="838, Find, Magnifier, Report, Search">
<g id="Group">
<path id="Vector" d="M33.4392 10.2806V1.39062H1.94922V51.8606H42.0192L40.2992 50.1406L41.2092 49.2306L38.2792 46.3006C34.4392 48.6206 29.2992 48.1206 25.9692 44.7906C22.0292 40.8506 22.0292 34.4906 25.9692 30.5606C29.9092 26.6206 36.2692 26.6206 40.1992 30.5606C41.1092 31.4706 41.7092 32.3806 42.2192 33.4906V10.2806H33.4392Z" fill="#DBDAFD"/>
<path id="Vector_2" d="M28.5 6.54102H7V14.111H28.5V6.54102Z" fill="white"/>
<path id="Vector_3" d="M33.4395 1.49023C36.8695 4.92023 38.7895 6.84023 42.3195 10.3702H33.4395V1.49023Z" fill="white"/>
<path id="Vector_4" d="M50.91 50.2504C52.42 51.7604 52.42 54.0904 50.91 55.6004C49.4 57.1104 47.07 57.1104 45.56 55.6004L41.93 51.9704L40.21 50.2504L41.12 49.3404L44.65 45.8104L45.56 44.9004L50.91 50.2504Z" fill="white"/>
<path id="Vector_5" d="M44.75 45.7991L41.22 49.3291L38.29 46.3991C39 45.9991 39.7 45.4891 40.31 44.8891C40.92 44.2791 41.42 43.5791 41.82 42.8691L44.75 45.7991Z" fill="white"/>
<path id="Vector_6" d="M42.33 33.4905C41.83 32.4805 41.12 31.4705 40.31 30.5605C36.37 26.6205 30.01 26.6205 26.08 30.5605C22.14 34.5005 22.14 40.8605 26.08 44.7905C29.41 48.1205 34.46 48.6205 38.39 46.3005C39.1 45.9005 39.8 45.3905 40.41 44.7905C41.02 44.1805 41.52 43.4805 41.92 42.7705C43.53 39.9405 43.64 36.5105 42.32 33.4805L42.33 33.4905Z" fill="white"/>
<path id="Vector_7" d="M37.0793 33.6896C39.2993 35.9096 39.2993 39.4396 37.0793 41.6596C34.8593 43.8796 31.3293 43.8796 29.1093 41.6596C26.8893 39.4396 26.8893 35.9096 29.1093 33.6896C31.3293 31.5696 34.8593 31.5696 37.0793 33.6896Z" fill="white"/>
<path id="Vector_8" d="M22.9495 27.0309C23.1495 27.2309 23.3495 27.5309 23.3495 27.9409C23.3495 28.3509 23.2495 28.6509 22.9495 28.8509C22.6495 29.0509 22.4495 29.2509 22.0395 29.2509C21.3295 29.2509 20.7295 28.6409 20.7295 27.9409C20.7295 27.6409 20.8295 27.2309 21.1295 27.0309C21.3295 26.8309 21.6295 26.6309 22.0395 26.6309C22.4495 26.6309 22.7495 26.8309 22.9495 27.0309Z" fill="#001452"/>
<path id="Vector_9" d="M42.3298 11.5901H33.4498C32.7398 11.5901 32.1398 10.9801 32.1398 10.2801V1.39008C32.1298 0.690078 32.7398 0.0800781 33.4398 0.0800781C34.1398 0.0800781 34.7498 0.690078 34.7498 1.39008V8.96008H42.3198C43.0298 8.96008 43.6298 9.57008 43.6298 10.2701C43.5298 10.9801 42.9198 11.5801 42.3198 11.5801L42.3298 11.5901Z" fill="#001452"/>
<path id="Vector_10" d="M28.3995 15.3209H6.99945C6.28945 15.3209 5.68945 14.7109 5.68945 14.0109V6.44086C5.68945 5.73086 6.29945 5.13086 6.99945 5.13086H28.3995C29.1095 5.13086 29.7095 5.74086 29.7095 6.44086V14.0109C29.7095 14.8209 29.0995 15.3209 28.3995 15.3209ZM8.20945 12.8009H27.1895V7.75086H8.20945V12.8009Z" fill="#001452"/>
<path id="Vector_11" d="M44.7492 47.0094C44.4492 47.0094 44.1392 46.9094 43.8392 46.6094L40.9092 43.6794C40.4092 43.1794 40.4092 42.3694 40.9092 41.8594C41.4092 41.3594 42.2192 41.3594 42.7292 41.8594L45.6592 44.7894C46.1592 45.2894 46.1592 46.0994 45.6592 46.6094C45.3592 46.9094 45.0492 47.0094 44.7492 47.0094Z" fill="#001452"/>
<path id="Vector_12" d="M41.1095 50.5504C40.8095 50.5504 40.4995 50.4504 40.1995 50.1504L37.2695 47.2204C36.7695 46.7204 36.7695 45.9104 37.2695 45.4004C37.7695 44.9004 38.5795 44.9004 39.0895 45.4004L42.0195 48.3304C42.5195 48.8304 42.5195 49.6404 42.0195 50.1504C41.8195 50.4504 41.4095 50.5504 41.1095 50.5504Z" fill="#001452"/>
<path id="Vector_13" d="M41.9196 53.1701H1.94965C1.23965 53.1701 0.639648 52.5601 0.639648 51.8601V1.39008C0.639648 0.690078 1.24965 0.0800781 1.94965 0.0800781H33.4396C33.7396 0.0800781 34.0496 0.180078 34.3496 0.480078L43.2296 9.36008C43.4296 9.56008 43.6297 9.97008 43.6297 10.2701V33.4801C43.6297 34.1901 43.0196 34.7901 42.3196 34.7901C41.6196 34.7901 41.0096 34.1801 41.0096 33.4801V10.7801L32.9296 2.71008H3.15965V50.6501H41.9196C42.6296 50.6501 43.2296 51.2601 43.2296 51.9601C43.2296 52.6601 42.6196 53.1701 41.9196 53.1701Z" fill="#001452"/>
<path id="Vector_14" d="M48.28 57.9202C46.97 57.9202 45.66 57.4202 44.75 56.4102L39.4 51.0602C39.2 50.8602 39 50.4502 39 50.1502C39 49.8502 39.1 49.5402 39.4 49.2402L44.75 43.8902C44.95 43.6902 45.36 43.4902 45.66 43.4902C45.96 43.4902 46.27 43.5902 46.57 43.8902L51.92 49.2402C53.84 51.1602 53.84 54.3902 51.92 56.4102C50.91 57.4202 49.6 57.9202 48.29 57.9202H48.28ZM42.02 50.2502L46.46 54.6902C46.96 55.1902 47.57 55.4002 48.28 55.4002C48.99 55.4002 49.59 55.1002 50.1 54.6902C51.11 53.6802 51.11 52.0702 50.1 51.1602L45.56 46.6202L42.03 50.2502H42.02Z" fill="#001452"/>
<path id="Vector_15" d="M33.1393 49.0303C30.1093 49.0303 27.2893 47.8203 25.0693 45.7003C20.6293 41.2603 20.6293 34.0903 25.0693 29.6503C27.1893 27.5303 30.0193 26.3203 33.1393 26.3203C36.2593 26.3203 38.9893 27.5303 41.2093 29.6503C42.1193 30.5603 42.9293 31.6703 43.5293 32.8803C45.1493 36.3103 44.9393 40.2503 43.0293 43.3803C42.5293 44.1903 41.9193 44.9903 41.3093 45.6003C40.5993 46.3103 39.8993 46.9103 39.0893 47.3203C37.1693 48.5303 35.1493 49.0403 33.1293 49.0403L33.1393 49.0303ZM33.1393 28.8403C30.8193 28.8403 28.5993 29.7503 26.8793 31.4603C23.4493 34.8903 23.4493 40.5403 26.8793 43.9803C28.5993 45.7003 30.7193 46.6003 33.1393 46.6003C34.7493 46.6003 36.2693 46.2003 37.5793 45.3903C38.1893 44.9903 38.7893 44.5803 39.2993 43.9803C39.7993 43.4803 40.3093 42.8703 40.7093 42.2603C42.2193 39.7403 42.3293 36.7103 41.1093 34.0803C40.7093 33.1703 40.0993 32.2603 39.2893 31.5603C37.6793 29.8403 35.4493 28.8303 33.1293 28.8303L33.1393 28.8403Z" fill="#001452"/>
<path id="Vector_16" d="M33.1393 44.5891C31.3193 44.5891 29.6093 43.8791 28.2993 42.5691C26.9893 41.2591 26.2793 39.5391 26.2793 37.7291C26.2793 35.9191 26.9893 34.1991 28.2993 32.8891C29.6093 31.5791 31.3293 30.8691 33.1393 30.8691C34.9493 30.8691 36.6693 31.5791 37.9793 32.8891C39.2893 34.1991 39.9993 35.9191 39.9993 37.7291C39.9993 39.5391 39.2893 41.2591 37.9793 42.5691C36.6693 43.8791 34.9493 44.5891 33.1393 44.5891ZM33.1393 33.3891C31.9293 33.3891 30.9193 33.8891 30.0093 34.6991C29.1993 35.5091 28.6993 36.6191 28.6993 37.8291C28.6993 39.0391 29.1993 40.0491 30.0093 40.9591C30.8193 41.7691 31.9293 42.2691 33.1393 42.2691C34.3493 42.2691 35.3593 41.7691 36.2693 40.9591C37.0793 39.9491 37.4793 38.9391 37.4793 37.7291C37.4793 36.5191 36.9793 35.5091 36.1693 34.5991C35.3593 33.7891 34.2493 33.3891 33.1393 33.3891Z" fill="#001452"/>
<path id="Vector_17" d="M28.3994 21.6805H8.20941C7.49941 21.6805 6.89941 21.0705 6.89941 20.3705C6.89941 19.6705 7.50941 19.0605 8.20941 19.0605H28.3994C29.1094 19.0605 29.7094 19.6705 29.7094 20.3705C29.7094 21.0705 29.0994 21.6805 28.3994 21.6805Z" fill="#001452"/>
<path id="Vector_18" d="M28.3994 25.411H8.20941C7.49941 25.411 6.89941 24.801 6.89941 24.101C6.89941 23.401 7.50941 22.791 8.20941 22.791H28.3994C29.1094 22.791 29.7094 23.401 29.7094 24.101C29.7094 24.911 29.0994 25.411 28.3994 25.411Z" fill="#001452"/>
<path id="Vector_19" d="M18.2994 29.2509H8.20941C7.49941 29.2509 6.89941 28.6409 6.89941 27.9409C6.89941 27.2409 7.50941 26.6309 8.20941 26.6309H18.2994C19.0094 26.6309 19.6094 27.2409 19.6094 27.9409C19.6094 28.6409 18.9994 29.2509 18.2994 29.2509Z" fill="#001452"/>
<path id="Vector_20" d="M17.0894 44.3895H8.20941C7.49941 44.3895 6.89941 43.7795 6.89941 43.0795C6.89941 42.3795 7.50941 41.7695 8.20941 41.7695H17.0894C17.7994 41.7695 18.3994 42.3795 18.3994 43.0795C18.3994 43.7795 17.6894 44.3895 17.0894 44.3895Z" fill="#001452"/>
<path id="Vector_21" d="M17.0894 48.1298H8.20941C7.49941 48.1298 6.89941 47.5198 6.89941 46.8198C6.89941 46.1198 7.50941 45.5098 8.20941 45.5098H17.0894C17.7994 45.5098 18.3994 46.1198 18.3994 46.8198C18.2994 47.6298 17.6894 48.1298 17.0894 48.1298Z" fill="#001452"/>
</g>
</g>
</svg>
