<svg width="62" height="52" viewBox="0 0 62 52" fill="none" xmlns="http://www.w3.org/2000/svg">
<g id="Group 12">
<path id="Vector" d="M20.5663 23.4982V16.75H9.46506V23.6113C4.53182 25.8667 1 30.6184 1 36.1319C1 43.8233 6.93298 50.0568 14.6244 50.0568C22.3159 50.0568 28.6059 43.8233 28.6059 36.1319C28.6059 30.5262 25.4996 25.706 20.5663 23.4982ZM14.3239 45.076C9.38472 45.076 5.37981 41.071 5.37981 36.1319C5.37981 31.1927 9.38472 27.1878 14.3239 27.1878C19.2631 27.1878 23.268 31.1927 23.268 36.1319C23.268 41.071 19.2631 45.076 14.3239 45.076Z" fill="#DBDAFD" stroke="#001452" stroke-width="2" stroke-linecap="round" stroke-linejoin="round"/>
<path id="Vector_2" d="M52.6379 18.0876V11.8125H41.5366V18.2007C36.6034 20.4561 33.5 25.2078 33.5 30.7213C33.5 38.4127 39.6472 44.6462 47.3387 44.6462C55.0301 44.6462 60.9988 38.4127 60.9988 30.7213C60.9988 25.1156 57.5741 20.2954 52.6379 18.0876ZM47.2494 39.6654C42.3102 39.6654 38.3053 35.6604 38.3053 30.7213C38.3053 25.7821 42.3102 21.7772 47.2494 21.7772C52.1886 21.7772 56.1935 25.7821 56.1935 30.7213C56.1935 35.6604 52.1886 39.6654 47.2494 39.6654Z" fill="#DBDAFD" stroke="#001452" stroke-width="2" stroke-linecap="round" stroke-linejoin="round"/>
<path id="Vector_3" d="M14.205 16.748C14.205 16.748 13.7854 1.94531 31.4653 1.94531C49.1453 1.94531 47.1339 11.8148 47.1339 11.8148" stroke="#001452" stroke-width="2" stroke-linecap="round" stroke-linejoin="round"/>
<path id="Vector_4" d="M14.3984 21.6836V22.9184" stroke="#001452" stroke-width="2" stroke-linecap="round" stroke-linejoin="round"/>
<path id="Vector_5" d="M47.7051 15.5117V16.7465" stroke="#001452" stroke-width="2" stroke-linecap="round" stroke-linejoin="round"/>
</g>
</svg>
