<svg width="56" height="54" viewBox="0 0 56 54" fill="none" xmlns="http://www.w3.org/2000/svg">
<g id="Group 13">
<path id="Vector" d="M26.5316 1H29.7843C30.0689 1 30.3023 1.23051 30.3023 1.51793V49.162H26.0137V1.51793C26.0137 1.23335 26.2442 1 26.5316 1Z" fill="#DBDAFD" stroke="#001452" stroke-width="2" stroke-linecap="round" stroke-linejoin="round"/>
<path id="Vector_2" d="M11.1875 9.66797H25.3453" stroke="#001452" stroke-width="2" stroke-linecap="round" stroke-linejoin="round"/>
<path id="Vector_3" d="M31.2441 9.66797H44.2238" stroke="#001452" stroke-width="2" stroke-linecap="round" stroke-linejoin="round"/>
<path id="Vector_4" d="M11.8024 49.1602H44.5147C44.9245 49.1602 45.2546 49.5244 45.2546 49.9712V52.1881C45.2546 52.6349 44.9216 52.9991 44.5147 52.9991H11.8024C11.3926 52.9991 11.0625 52.6349 11.0625 52.1881V49.9712C11.0625 49.5244 11.3955 49.1602 11.8024 49.1602Z" fill="#DBDAFD" stroke="#001452" stroke-width="2" stroke-linecap="round" stroke-linejoin="round"/>
<path id="Vector_5" d="M1.38086 32.0842L11.0394 9.66797L18.6348 32.0842" stroke="#001452" stroke-width="2" stroke-linecap="round" stroke-linejoin="round"/>
<path id="Vector_6" d="M10.0093 40.2676C14.7731 40.2676 18.6377 36.8042 18.6377 32.0859H1.38086C1.38086 36.8042 5.24259 40.2676 10.0093 40.2676Z" fill="#DBDAFD" stroke="#001452" stroke-width="2" stroke-linecap="round" stroke-linejoin="round"/>
<path id="Vector_7" d="M54.6202 32.0842L44.9616 9.66797L37.3662 32.0842" stroke="#001452" stroke-width="2" stroke-linecap="round" stroke-linejoin="round"/>
<path id="Vector_8" d="M45.9917 40.2676C41.2279 40.2676 37.3633 36.8042 37.3633 32.0859H54.6173C54.6173 36.8042 50.7555 40.2676 45.9888 40.2676H45.9917Z" fill="#DBDAFD" stroke="#001452" stroke-width="2" stroke-linecap="round" stroke-linejoin="round"/>
</g>
</svg>
