<svg width="50" height="60" viewBox="0 0 50 60" fill="none" xmlns="http://www.w3.org/2000/svg">
<g id="840, Medical, Report, Document">
<g id="Group">
<path id="Vector" d="M39.6199 10.2852V1.42383H7.7373V52.3613H35.7544H48.4812V43.9037V25.1617V10.2852H39.6199Z" fill="#DBDAFD"/>
<path id="Vector_2" d="M34.5331 6.52148H12.834V14.1616H34.5331V6.52148Z" fill="white"/>
<path id="Vector_3" d="M39.6191 1.42383C43.0809 4.8856 45.0187 6.82338 48.5814 10.3861H39.6191V1.42383Z" fill="white"/>
<path id="Vector_4" d="M48.4807 11.6166H39.5184C38.8018 11.6166 38.1963 11.001 38.1963 10.2945V1.32213C38.1963 0.605558 38.8119 0 39.5184 0C40.2249 0 40.8406 0.61565 40.8406 1.32213V8.96225H48.4807C49.1973 8.96225 49.8028 9.5779 49.8028 10.2844C49.8028 10.9909 49.1872 11.6065 48.4807 11.6065V11.6166Z" fill="#001452"/>
<path id="Vector_5" d="M48.4811 53.5818H7.73717C7.0206 53.5818 6.41504 52.9661 6.41504 52.2596V1.32213C6.41504 0.605558 7.03069 0 7.73717 0H39.6198C39.9226 0 40.2354 0.100926 40.5382 0.403705L49.5005 9.36596C49.7023 9.56781 49.9042 9.98161 49.9042 10.2844V52.3605C49.8032 53.0771 49.1876 53.5818 48.4811 53.5818ZM9.05931 51.0384H47.2599V10.7991L39.1152 2.64427H9.05931V51.0283V51.0384Z" fill="#001452"/>
<path id="Vector_6" d="M35.7539 60.0013H1.41881C0.702237 60.0013 0.0966797 59.3856 0.0966797 58.6792V10.285C0.0966797 9.56845 0.71233 8.96289 1.41881 8.96289C2.1253 8.96289 2.74095 9.57854 2.74095 10.285V57.4479H34.6236V52.3511C34.6236 51.6345 35.2392 51.029 35.9457 51.029C36.6522 51.029 37.2678 51.6446 37.2678 52.3511V58.77C37.066 59.3856 36.4503 59.9912 35.7438 59.9912L35.7539 60.0013Z" fill="#001452"/>
<path id="Vector_7" d="M34.532 15.382H12.8329C12.1163 15.382 11.5107 14.7664 11.5107 14.0599V6.41979C11.5107 5.70321 12.1264 5.09766 12.8329 5.09766H34.532C35.2486 5.09766 35.8542 5.71331 35.8542 6.41979V14.0599C35.7532 14.8774 35.1376 15.382 34.532 15.382ZM14.155 12.8387H33.3108V7.74192H14.155V12.8387Z" fill="#001452"/>
<path id="Vector_8" d="M31.9786 21.8005H12.8329C12.1163 21.8005 11.5107 21.1849 11.5107 20.4784C11.5107 19.7719 12.1264 19.1562 12.8329 19.1562H31.9887C32.7053 19.1562 33.3108 19.7719 33.3108 20.4784C33.2099 21.195 32.5942 21.8005 31.9887 21.8005H31.9786Z" fill="#001452"/>
<path id="Vector_9" d="M40.8403 21.8005H36.9647C36.2481 21.8005 35.6426 21.1849 35.6426 20.4784C35.6426 19.7719 36.2582 19.1562 36.9647 19.1562H40.8403C41.5569 19.1562 42.1624 19.7719 42.1624 20.4784C42.1624 21.1849 41.5468 21.8005 40.8403 21.8005Z" fill="#001452"/>
<path id="Vector_10" d="M31.9786 26.8943H12.8329C12.1163 26.8943 11.5107 26.2786 11.5107 25.5721C11.5107 24.8656 12.1264 24.25 12.8329 24.25H31.9887C32.7053 24.25 33.3108 24.8656 33.3108 25.5721C33.2099 26.2887 32.5942 26.8943 31.9887 26.8943H31.9786Z" fill="#001452"/>
<path id="Vector_11" d="M40.8403 26.8943H36.9647C36.2481 26.8943 35.6426 26.2786 35.6426 25.5721C35.6426 24.8656 36.2582 24.25 36.9647 24.25H40.8403C41.5569 24.25 42.1624 24.8656 42.1624 25.5721C42.1624 26.2786 41.5468 26.8943 40.8403 26.8943Z" fill="#001452"/>
<path id="Vector_12" d="M31.9786 31.9841H12.8329C12.1163 31.9841 11.5107 31.3685 11.5107 30.662C11.5107 29.9555 12.1264 29.3398 12.8329 29.3398H31.9887C32.7053 29.3398 33.3108 29.9555 33.3108 30.662C33.3108 31.3685 32.5942 31.9841 31.9887 31.9841H31.9786Z" fill="#001452"/>
<path id="Vector_13" d="M40.8403 31.9841H36.9647C36.2481 31.9841 35.6426 31.3685 35.6426 30.662C35.6426 29.9555 36.2582 29.3398 36.9647 29.3398H40.8403C41.5569 29.3398 42.1624 29.9555 42.1624 30.662C42.1624 31.3685 41.5468 31.9841 40.8403 31.9841Z" fill="#001452"/>
<path id="Vector_14" d="M31.9786 37.0798H12.8329C12.1163 37.0798 11.5107 36.4642 11.5107 35.7577C11.5107 35.0512 12.1264 34.4355 12.8329 34.4355H31.9887C32.7053 34.4355 33.3108 35.0512 33.3108 35.7577C33.3108 36.4642 32.5942 37.0798 31.9887 37.0798H31.9786Z" fill="#001452"/>
<path id="Vector_15" d="M40.8403 37.0798H36.9647C36.2481 37.0798 35.6426 36.4642 35.6426 35.7577C35.6426 35.0512 36.2582 34.4355 36.9647 34.4355H40.8403C41.5569 34.4355 42.1624 35.0512 42.1624 35.7577C42.1624 36.4642 41.5468 37.0798 40.8403 37.0798Z" fill="#001452"/>
<path id="Vector_16" d="M31.9786 42.1775H12.8329C12.1163 42.1775 11.5107 41.5618 11.5107 40.8553C11.5107 40.1489 12.1264 39.5332 12.8329 39.5332H31.9887C32.7053 39.5332 33.3108 40.1489 33.3108 40.8553C33.3108 41.5618 32.5942 42.1775 31.9887 42.1775H31.9786Z" fill="#001452"/>
<path id="Vector_17" d="M40.8403 42.1775H36.9647C36.2481 42.1775 35.6426 41.5618 35.6426 40.8553C35.6426 40.1489 36.2582 39.5332 36.9647 39.5332H40.8403C41.5569 39.5332 42.1624 40.1489 42.1624 40.8553C42.1624 41.5618 41.5468 42.1775 40.8403 42.1775Z" fill="#001452"/>
<path id="Vector_18" d="M31.9786 47.2654H12.8329C12.1163 47.2654 11.5107 46.6497 11.5107 45.9432C11.5107 45.2367 12.1264 44.6211 12.8329 44.6211H31.9887C32.7053 44.6211 33.3108 45.2367 33.3108 45.9432C33.2099 46.6598 32.5942 47.2654 31.9887 47.2654H31.9786Z" fill="#001452"/>
<path id="Vector_19" d="M40.8403 47.2654H36.9647C36.2481 47.2654 35.6426 46.6497 35.6426 45.9432C35.6426 45.2367 36.2582 44.6211 36.9647 44.6211H40.8403C41.5569 44.6211 42.1624 45.2367 42.1624 45.9432C42.1624 46.6497 41.5468 47.2654 40.8403 47.2654Z" fill="#001452"/>
</g>
</g>
</svg>
