<svg width="54" height="49" viewBox="0 0 54 49" fill="none" xmlns="http://www.w3.org/2000/svg">
<g id="Group 10">
<g id="Group 9">
<g id="Vector">
<path d="M36.9258 48C36.9258 48 42.3128 48.0428 42.3128 40.0774V5.66946C42.3128 5.66946 43.2392 1.21686 47.0626 1.21686H10.7992C10.7992 1.21686 6.79102 2.48329 6.79102 5.98808V40.0694" fill="#DBDAFD"/>
<path d="M36.9258 48C36.9258 48 42.3128 48.0428 42.3128 40.0774V5.66946C42.3128 5.66946 43.2392 1.21686 47.0626 1.21686H10.7992C10.7992 1.21686 6.79102 2.48329 6.79102 5.98808V40.0694" stroke="#001452" stroke-width="2" stroke-linecap="round" stroke-linejoin="round"/>
</g>
<path id="Vector_2" d="M32.3211 40.0694H1.24121V44.8567C1.24121 44.8567 1.55983 47.842 4.10876 47.842H36.8674C36.8674 47.842 32.3238 46.1312 32.3238 43.9035V40.0721L32.3211 40.0694Z" fill="#DBDAFD" stroke="#001452" stroke-width="2" stroke-linecap="round" stroke-linejoin="round"/>
<path id="Vector_3" d="M42.3135 8.98952H52.3031V5.90777C52.3031 5.90777 51.8747 1 47.3069 1" stroke="#001452" stroke-width="2" stroke-linecap="round" stroke-linejoin="round"/>
<g id="Group">
<path id="Vector_4" d="M13.4502 26.7491H34.5432" stroke="#001452" stroke-width="2" stroke-linecap="round" stroke-linejoin="round"/>
<path id="Vector_5" d="M13.4502 31.1883H34.5432" stroke="#001452" stroke-width="2" stroke-linecap="round" stroke-linejoin="round"/>
<path id="Vector_6" d="M13.4502 17.868H34.5432" stroke="#001452" stroke-width="2" stroke-linecap="round" stroke-linejoin="round"/>
<path id="Vector_7" d="M13.4502 13.4288H34.5432" stroke="#001452" stroke-width="2" stroke-linecap="round" stroke-linejoin="round"/>
<path id="Vector_8" d="M13.4502 22.3098H34.5432" stroke="#001452" stroke-width="2" stroke-linecap="round" stroke-linejoin="round"/>
</g>
</g>
<g id="Group 8">
<path id="Vector_9" d="M36.7675 33.1114C42.9461 33.1114 47.9548 28.192 47.9548 22.1236C47.9548 16.0552 42.9461 11.1358 36.7675 11.1358C30.5888 11.1358 25.5801 16.0552 25.5801 22.1236C25.5801 28.192 30.5888 33.1114 36.7675 33.1114Z" fill="#DBDAFD" stroke="#001452" stroke-width="2" stroke-linecap="round" stroke-linejoin="round"/>
<path id="Vector_10" d="M36.7679 29.894C41.1373 29.894 44.6794 26.4151 44.6794 22.1237C44.6794 17.8322 41.1373 14.3533 36.7679 14.3533C32.3985 14.3533 28.8564 17.8322 28.8564 22.1237C28.8564 26.4151 32.3985 29.894 36.7679 29.894Z" fill="#DBDAFD" stroke="#001452" stroke-width="2" stroke-linecap="round" stroke-linejoin="round"/>
<path id="Vector_11" d="M44.6894 29.8818C44.1155 30.4455 43.3076 31.1132 42.751 31.4301L48.5934 37.1683C49.5171 38.0755 51.1009 37.9909 52.0221 37.0837C52.9457 36.1765 53.0319 34.621 52.1083 33.7162L46.2658 27.978C45.9431 28.5247 45.2633 29.3182 44.6894 29.8818Z" fill="#DBDAFD" stroke="#001452" stroke-width="2" stroke-linecap="round" stroke-linejoin="round"/>
</g>
</g>
</svg>
