<svg width="50" height="62" viewBox="0 0 50 62" fill="none" xmlns="http://www.w3.org/2000/svg">
<g id="Group 14">
<path id="Vector" d="M48.8685 29.1659L47.483 13.9148C47.483 13.5975 47.1657 13.2802 46.8484 13.2802L40.8728 13.1745C35.225 13.0687 30.9522 8.3728 30.6349 7.94975L25.6217 1.33953C25.4102 1.02224 24.8708 1.02224 24.5535 1.33953L19.3288 7.94975C19.0115 8.26704 14.7492 13.0687 9.09086 13.1745L3.11522 13.2802C2.79793 13.2802 2.48064 13.5975 2.48064 13.9148L1.09514 29.1659C0.344217 37.5847 4.07767 45.9083 10.91 50.8157L24.6698 60.7363C24.8813 60.9478 25.1986 60.9478 25.4207 60.7363L39.1806 50.8157C46.0023 45.9083 49.7358 37.5953 48.8791 29.1659H48.8685Z" fill="#DBDAFD"/>
<path id="Vector_2" d="M48.8685 29.1659L47.483 13.9148C47.483 13.5975 47.1657 13.2802 46.8484 13.2802L40.8728 13.1745C35.225 13.0687 30.9522 8.3728 30.6349 7.94975L25.6217 1.33953C25.4102 1.02224 24.8708 1.02224 24.5535 1.33953L19.3288 7.94975C19.0115 8.26704 14.7492 13.0687 9.09086 13.1745L3.11522 13.2802C2.79793 13.2802 2.48064 13.5975 2.48064 13.9148L1.09514 29.1659C0.344217 37.5847 4.07767 45.9083 10.91 50.8157L24.6698 60.7363C24.8813 60.9478 25.1986 60.9478 25.4207 60.7363L39.1806 50.8157C46.0023 45.9083 49.7358 37.5953 48.8791 29.1659H48.8685ZM38.3133 49.7475L24.9871 59.446L11.6609 49.7475C5.25164 45.0516 1.62395 37.2674 2.37488 29.2717L3.76038 14.56L9.09086 14.4542C15.278 14.3484 19.8576 9.33525 20.397 8.80643C20.397 8.80643 20.2912 9.01796 25.0929 2.8308C29.7888 9.01796 29.683 8.70067 29.683 8.80643C30.2118 9.33525 34.6962 14.3484 40.9891 14.4542L46.3196 14.56L47.7051 29.2717C48.3397 37.2674 44.8283 45.0516 38.3239 49.7475H38.3133Z" fill="#001452" stroke="#001452" stroke-width="0.75"/>
<path id="Vector_3" d="M42.6812 19.4696C42.6812 19.1523 42.3639 18.8244 42.0466 18.8244C32.2318 18.6129 25.6216 10.6172 25.5158 10.5114C25.3043 10.1941 24.7649 10.1941 24.4476 10.5114C24.3418 10.6172 17.7316 18.6129 7.91675 18.8244C7.59946 18.8244 7.28217 19.1417 7.28217 19.4696L6.31973 29.6017C5.68515 36.1062 8.66768 42.6106 13.9982 46.4498L24.5534 54.1283C24.7649 54.3398 25.0822 54.3398 25.3043 54.1283L35.8595 46.4498C41.1899 42.6106 44.0667 36.1062 43.5379 29.6017L42.6812 19.4696ZM35.2143 45.3816L24.9764 52.7428L14.7385 45.3816C9.83107 41.7539 7.06007 35.7889 7.58889 29.7075L8.44557 20.2205C13.6703 20.009 17.9326 17.661 20.5978 15.7467C22.7342 14.2554 24.1197 12.7642 24.8601 12.0132C25.611 12.7642 27.1023 14.2554 29.1223 15.7467C31.7876 17.661 36.0498 19.9032 41.2746 20.2205L42.1312 29.7075C42.8822 35.7889 40.1006 41.7539 35.2037 45.3816H35.2143Z" fill="#001452" stroke="#001452" stroke-width="0.75"/>
<path id="Vector_4" d="M23.1685 23.7312C20.5032 26.3965 19.8581 30.553 21.6772 33.9691L19.6465 35.9998L18.0495 34.4028C17.838 34.1912 17.4149 34.1912 17.0871 34.4028L14.9506 36.5392C14.7391 36.7507 14.7391 37.1738 14.9506 37.5016L16.5477 39.0987L14.9506 40.6957C14.7391 40.9072 14.7391 41.3409 14.9506 41.6581L17.4044 44.1119C17.6159 44.3234 18.0389 44.3234 18.3668 44.1119L19.9638 42.5148L21.5609 44.1119C21.6666 44.2176 21.8781 44.3234 21.9839 44.3234C22.0897 44.3234 22.3012 44.2176 22.407 44.1119L24.5434 41.9754C24.7549 41.7639 24.7549 41.3409 24.5434 41.013L23.1579 39.416L25.1885 37.3853C28.4989 39.1939 32.6554 38.665 35.4264 35.894C38.8426 32.4779 38.8426 27.0416 35.4264 23.7418C32.0103 20.3256 26.574 20.3256 23.1685 23.7418V23.7312ZM18.0495 42.61L16.4525 41.013L17.6265 39.839L19.2235 41.436L18.0495 42.61ZM22.206 42.61C19.7523 40.1563 18.7899 39.1939 16.4525 36.8565L17.6265 35.6825L19.2235 37.2795L23.38 41.436L22.206 42.61ZM34.464 34.9316C32.0103 37.3853 28.2768 37.8084 25.4001 35.9998C25.1885 35.7883 24.7655 35.894 24.5434 36.1056L22.1954 38.4535L20.5984 36.8565L22.9464 34.5085C23.1579 34.297 23.1579 33.9797 23.0521 33.6518C21.2436 30.7751 21.6666 27.0416 24.1203 24.5879C26.9971 21.7111 31.5872 21.7111 34.464 24.5879C37.235 27.4647 37.235 32.1606 34.464 34.9316Z" fill="#001452" stroke="#001452" stroke-width="0.75"/>
</g>
</svg>
