<svg width="56" height="60" viewBox="0 0 56 60" fill="none" xmlns="http://www.w3.org/2000/svg">
<g id="Group 16">
<path id="Vector" d="M53.3597 23.241C54.2839 26.0138 54.8731 29.0176 54.8731 32.0215H54.8847C54.8847 32.0985 54.9232 32.1755 55.0002 32.2526C55.0002 46.9253 42.9617 58.9407 28.0001 58.9407C13.0386 58.9407 1 46.9253 1 32.2526V32.137C1 29.2487 1.46213 26.2448 2.51349 23.3565C2.62902 23.0099 3.1027 22.7788 3.4493 22.8944C3.7959 23.0099 4.02697 23.472 3.91144 23.8186C3.1027 26.2448 2.62902 28.7866 2.51349 31.3283H13.6278C14.321 29.1332 15.615 27.5157 17.0129 26.938L18.4109 26.3604V10.6479C18.4109 5.33332 22.7318 1.05859 28.1156 1.05859C33.4995 1.05859 37.8204 5.33332 37.8204 10.6479V26.3604L38.8718 26.8225C40.2697 27.4002 41.5522 29.0176 42.2569 31.2128H53.3597C53.3597 28.671 52.782 26.1293 51.9617 23.7031C51.8346 23.3565 52.0772 22.8944 52.4238 22.7788C52.7704 22.6633 53.2441 22.8944 53.3597 23.241Z" fill="#DBDAFD"/>
<g id="Vector_2">
<mask id="path-2-outside-1_2353_4698" maskUnits="userSpaceOnUse" x="0" y="0.0585938" width="56" height="60" fill="black">
<rect fill="white" y="0.0585938" width="56" height="60"/>
<path d="M54.8731 32.0215C54.8731 29.0176 54.2839 26.0138 53.3597 23.241C53.2441 22.8944 52.7704 22.6633 52.4238 22.7788C52.0772 22.8944 51.8346 23.3565 51.9617 23.7031C52.782 26.1293 53.3597 28.671 53.3597 31.2128H42.2569C41.5522 29.0176 40.2697 27.4002 38.8718 26.8225L37.8204 26.3604V10.6479C37.8204 5.33332 33.4995 1.05859 28.1156 1.05859C22.7318 1.05859 18.4109 5.33332 18.4109 10.6479V26.3604L17.0129 26.938C15.615 27.5157 14.321 29.1332 13.6278 31.3283H2.51349C2.62902 28.7866 3.1027 26.2448 3.91144 23.8186C4.02697 23.472 3.7959 23.0099 3.4493 22.8944C3.1027 22.7788 2.62902 23.0099 2.51349 23.3565C1.46213 26.2448 1 29.2487 1 32.137V32.2526C1 46.9253 13.0386 58.9407 28.0001 58.9407C42.9617 58.9407 55.0002 46.9253 55.0002 32.2526C54.9232 32.1755 54.8847 32.0985 54.8847 32.0215C54.8847 32.0985 54.8847 32.0985 54.8847 32.0215H54.8731ZM50.6677 43.6904H42.7191C43.6549 40.3399 44.2441 36.6428 44.3596 32.8302H53.3597C53.3597 36.6428 52.4238 40.3399 50.6677 43.6904ZM41.3211 43.6904H28.5778V32.8302H42.8346C42.8346 36.6428 42.2454 40.3399 41.3211 43.6904ZM27.1798 57.4388C23.5521 57.0922 20.0514 54.5505 17.3595 50.1602C16.4237 48.6583 15.6034 46.9253 15.0257 45.0768H27.1798V57.4388ZM28.5778 45.0768H40.7319C40.0271 46.9253 39.3339 48.6583 38.3981 50.1602C35.7062 54.5505 32.3211 57.2077 28.5778 57.4388V45.0768ZM31.3852 24.7429L29.5136 27.6312L28.8088 26.1293L30.9116 24.0497C31.0271 24.3963 31.1426 24.5118 31.3737 24.7429H31.3852ZM27.7575 21.739C22.7318 19.3128 22.7318 15.6158 22.6163 12.7275V11.6877C23.2055 11.5721 23.6676 11.3411 24.0142 10.8789C24.6034 10.9945 25.1811 10.8789 25.7703 10.6479C27.2838 12.1498 29.7447 12.1498 31.1426 10.6479C31.4892 10.8789 31.8474 10.9945 32.194 10.9945C32.5406 11.3411 33.0143 11.5721 33.4764 11.6877C33.1298 14.6915 33.5919 18.3886 27.7459 21.739H27.7575ZM24.95 24.1652L26.9372 26.1293L26.2325 27.6312L24.3608 24.7429C24.5919 24.6274 24.823 24.3963 24.95 24.1652ZM25.8859 23.0099C26.0014 22.7788 26.1169 22.6633 26.2325 22.4322C26.5791 22.6633 27.0527 22.8944 27.5149 23.1254C27.7459 23.241 27.977 23.241 28.2196 23.1254C28.6818 22.8944 29.1554 22.5478 29.502 22.3167C29.6176 22.5478 29.7331 22.7788 29.9642 23.0099L27.977 24.974L25.8743 23.0099H25.8859ZM40.7319 31.3283H28.5778V29.1332L28.8088 29.4798C28.9244 29.7108 29.1554 29.8264 29.3981 29.8264C29.6407 29.8264 29.8602 29.7108 30.1028 29.4798L32.5521 25.5516C33.0143 25.8982 33.6035 26.1293 34.0656 26.3604L38.271 28.0934C39.2068 28.671 40.1427 29.8264 40.7203 31.3283H40.7319ZM19.8204 10.6479C19.8204 6.14206 23.5636 2.44499 28.1156 2.44499C32.6677 2.44499 36.4109 6.14206 36.4109 10.6479V25.8982L34.7704 25.205C33.1298 24.5118 31.7318 23.1254 30.796 21.508C35.4751 17.8109 34.6548 13.5362 35.117 10.9945C35.2325 10.5323 34.7704 10.0702 34.1811 10.1857C33.8345 10.3013 33.4764 10.0702 33.2453 9.83912C33.1298 9.60805 32.7832 9.49252 32.5406 9.49252C32.194 9.49252 31.9514 9.37699 31.7203 9.14592C31.3737 8.68379 30.7845 8.79932 30.5534 9.14592C29.6176 10.6479 27.5149 10.6479 26.4635 9.14592C26.2325 8.68379 25.5277 8.68379 25.2966 9.14592C25.0656 9.49252 24.4764 9.60805 24.1298 9.37699C23.7832 9.14592 23.1939 9.26145 23.0784 9.72359C22.9629 10.0702 22.4892 10.3013 22.1426 10.3013C21.6804 10.1857 21.2068 10.6479 21.2068 11.11C21.5534 13.5362 20.6175 18.3886 25.1811 21.8546C24.3608 23.472 22.9629 24.6274 21.3223 25.3206L20.0399 25.8982L19.8088 10.6479H19.8204ZM17.4866 28.3244L19.3582 27.5157C21.692 26.4759 22.2812 26.3604 23.217 25.6672L25.6663 29.5953C26.0129 30.0574 26.7177 30.0574 26.9488 29.4798L27.1798 29.1332V31.3283H15.0257C15.615 29.8264 16.5392 28.671 17.475 28.3244H17.4866ZM27.1914 32.8302V43.6904H14.5636C13.5122 40.3399 12.923 36.6428 12.923 32.8302H27.1798H27.1914ZM2.29397 32.8302H11.294C11.4095 36.6428 11.8832 40.3399 12.9346 43.6904H4.97434C3.4493 40.3399 2.39795 36.6428 2.28242 32.8302H2.29397ZM5.92172 45.0768H13.5238C14.9218 49.3515 17.4981 53.8573 21.2414 56.6301C14.7022 54.7815 9.20286 50.6223 5.93327 45.0768H5.92172ZM34.6664 56.6301C38.4097 53.9728 40.859 49.3515 42.384 45.0768H49.9861C46.601 50.6223 41.1016 54.7815 34.6779 56.6301H34.6664Z"/>
</mask>
<path d="M54.8731 32.0215C54.8731 29.0176 54.2839 26.0138 53.3597 23.241C53.2441 22.8944 52.7704 22.6633 52.4238 22.7788C52.0772 22.8944 51.8346 23.3565 51.9617 23.7031C52.782 26.1293 53.3597 28.671 53.3597 31.2128H42.2569C41.5522 29.0176 40.2697 27.4002 38.8718 26.8225L37.8204 26.3604V10.6479C37.8204 5.33332 33.4995 1.05859 28.1156 1.05859C22.7318 1.05859 18.4109 5.33332 18.4109 10.6479V26.3604L17.0129 26.938C15.615 27.5157 14.321 29.1332 13.6278 31.3283H2.51349C2.62902 28.7866 3.1027 26.2448 3.91144 23.8186C4.02697 23.472 3.7959 23.0099 3.4493 22.8944C3.1027 22.7788 2.62902 23.0099 2.51349 23.3565C1.46213 26.2448 1 29.2487 1 32.137V32.2526C1 46.9253 13.0386 58.9407 28.0001 58.9407C42.9617 58.9407 55.0002 46.9253 55.0002 32.2526C54.9232 32.1755 54.8847 32.0985 54.8847 32.0215C54.8847 32.0985 54.8847 32.0985 54.8847 32.0215H54.8731ZM50.6677 43.6904H42.7191C43.6549 40.3399 44.2441 36.6428 44.3596 32.8302H53.3597C53.3597 36.6428 52.4238 40.3399 50.6677 43.6904ZM41.3211 43.6904H28.5778V32.8302H42.8346C42.8346 36.6428 42.2454 40.3399 41.3211 43.6904ZM27.1798 57.4388C23.5521 57.0922 20.0514 54.5505 17.3595 50.1602C16.4237 48.6583 15.6034 46.9253 15.0257 45.0768H27.1798V57.4388ZM28.5778 45.0768H40.7319C40.0271 46.9253 39.3339 48.6583 38.3981 50.1602C35.7062 54.5505 32.3211 57.2077 28.5778 57.4388V45.0768ZM31.3852 24.7429L29.5136 27.6312L28.8088 26.1293L30.9116 24.0497C31.0271 24.3963 31.1426 24.5118 31.3737 24.7429H31.3852ZM27.7575 21.739C22.7318 19.3128 22.7318 15.6158 22.6163 12.7275V11.6877C23.2055 11.5721 23.6676 11.3411 24.0142 10.8789C24.6034 10.9945 25.1811 10.8789 25.7703 10.6479C27.2838 12.1498 29.7447 12.1498 31.1426 10.6479C31.4892 10.8789 31.8474 10.9945 32.194 10.9945C32.5406 11.3411 33.0143 11.5721 33.4764 11.6877C33.1298 14.6915 33.5919 18.3886 27.7459 21.739H27.7575ZM24.95 24.1652L26.9372 26.1293L26.2325 27.6312L24.3608 24.7429C24.5919 24.6274 24.823 24.3963 24.95 24.1652ZM25.8859 23.0099C26.0014 22.7788 26.1169 22.6633 26.2325 22.4322C26.5791 22.6633 27.0527 22.8944 27.5149 23.1254C27.7459 23.241 27.977 23.241 28.2196 23.1254C28.6818 22.8944 29.1554 22.5478 29.502 22.3167C29.6176 22.5478 29.7331 22.7788 29.9642 23.0099L27.977 24.974L25.8743 23.0099H25.8859ZM40.7319 31.3283H28.5778V29.1332L28.8088 29.4798C28.9244 29.7108 29.1554 29.8264 29.3981 29.8264C29.6407 29.8264 29.8602 29.7108 30.1028 29.4798L32.5521 25.5516C33.0143 25.8982 33.6035 26.1293 34.0656 26.3604L38.271 28.0934C39.2068 28.671 40.1427 29.8264 40.7203 31.3283H40.7319ZM19.8204 10.6479C19.8204 6.14206 23.5636 2.44499 28.1156 2.44499C32.6677 2.44499 36.4109 6.14206 36.4109 10.6479V25.8982L34.7704 25.205C33.1298 24.5118 31.7318 23.1254 30.796 21.508C35.4751 17.8109 34.6548 13.5362 35.117 10.9945C35.2325 10.5323 34.7704 10.0702 34.1811 10.1857C33.8345 10.3013 33.4764 10.0702 33.2453 9.83912C33.1298 9.60805 32.7832 9.49252 32.5406 9.49252C32.194 9.49252 31.9514 9.37699 31.7203 9.14592C31.3737 8.68379 30.7845 8.79932 30.5534 9.14592C29.6176 10.6479 27.5149 10.6479 26.4635 9.14592C26.2325 8.68379 25.5277 8.68379 25.2966 9.14592C25.0656 9.49252 24.4764 9.60805 24.1298 9.37699C23.7832 9.14592 23.1939 9.26145 23.0784 9.72359C22.9629 10.0702 22.4892 10.3013 22.1426 10.3013C21.6804 10.1857 21.2068 10.6479 21.2068 11.11C21.5534 13.5362 20.6175 18.3886 25.1811 21.8546C24.3608 23.472 22.9629 24.6274 21.3223 25.3206L20.0399 25.8982L19.8088 10.6479H19.8204ZM17.4866 28.3244L19.3582 27.5157C21.692 26.4759 22.2812 26.3604 23.217 25.6672L25.6663 29.5953C26.0129 30.0574 26.7177 30.0574 26.9488 29.4798L27.1798 29.1332V31.3283H15.0257C15.615 29.8264 16.5392 28.671 17.475 28.3244H17.4866ZM27.1914 32.8302V43.6904H14.5636C13.5122 40.3399 12.923 36.6428 12.923 32.8302H27.1798H27.1914ZM2.29397 32.8302H11.294C11.4095 36.6428 11.8832 40.3399 12.9346 43.6904H4.97434C3.4493 40.3399 2.39795 36.6428 2.28242 32.8302H2.29397ZM5.92172 45.0768H13.5238C14.9218 49.3515 17.4981 53.8573 21.2414 56.6301C14.7022 54.7815 9.20286 50.6223 5.93327 45.0768H5.92172ZM34.6664 56.6301C38.4097 53.9728 40.859 49.3515 42.384 45.0768H49.9861C46.601 50.6223 41.1016 54.7815 34.6779 56.6301H34.6664Z" fill="#001452"/>
<path d="M54.8731 32.0215H54.3731V32.5215H54.8731V32.0215ZM53.3597 23.241L53.834 23.0829L53.3597 23.241ZM51.9617 23.7031L52.4355 23.5429L52.4311 23.531L51.9617 23.7031ZM53.3597 31.2128V31.7128H53.8597V31.2128H53.3597ZM42.2569 31.2128L41.7808 31.3656L41.8923 31.7128H42.2569V31.2128ZM38.8718 26.8225L38.6705 27.2803L38.6808 27.2846L38.8718 26.8225ZM37.8204 26.3604H37.3204V26.6868L37.6192 26.8181L37.8204 26.3604ZM18.4109 26.3604L18.6018 26.8225L18.9109 26.6948V26.3604H18.4109ZM13.6278 31.3283V31.8283H13.9942L14.1046 31.4789L13.6278 31.3283ZM2.51349 31.3283L2.014 31.3056L1.99024 31.8283H2.51349V31.3283ZM3.91144 23.8186L4.38578 23.9768L3.91144 23.8186ZM2.51349 23.3565L2.9835 23.5276L2.98783 23.5146L2.51349 23.3565ZM55.0002 32.2526H55.5002V32.0455L55.3538 31.899L55.0002 32.2526ZM54.8847 32.0215H55.3847V31.5215H54.8847V32.0215ZM50.6677 43.6904V44.1904H50.9702L51.1106 43.9225L50.6677 43.6904ZM42.7191 43.6904L42.2375 43.5559L42.0603 44.1904H42.7191V43.6904ZM44.3596 32.8302V32.3302H43.8745L43.8599 32.8151L44.3596 32.8302ZM53.3597 32.8302H53.8597V32.3302H53.3597V32.8302ZM41.3211 43.6904V44.1904H41.7018L41.8031 43.8233L41.3211 43.6904ZM28.5778 43.6904H28.0778V44.1904H28.5778V43.6904ZM28.5778 32.8302V32.3302H28.0778V32.8302H28.5778ZM42.8346 32.8302H43.3346V32.3302H42.8346V32.8302ZM27.1798 57.4388L27.1323 57.9365L27.6798 57.9889V57.4388H27.1798ZM17.3595 50.1602L17.7858 49.8988L17.7839 49.8958L17.3595 50.1602ZM15.0257 45.0768V44.5768H14.3456L14.5485 45.2259L15.0257 45.0768ZM27.1798 45.0768H27.6798V44.5768H27.1798V45.0768ZM28.5778 45.0768V44.5768H28.0778V45.0768H28.5778ZM40.7319 45.0768L41.1991 45.2549L41.4576 44.5768H40.7319V45.0768ZM38.3981 50.1602L37.9737 49.8958L37.9719 49.8989L38.3981 50.1602ZM28.5778 57.4388H28.0778V57.9706L28.6086 57.9379L28.5778 57.4388ZM31.3852 24.7429L31.8048 25.0148L32.305 24.2429H31.3852V24.7429ZM29.5136 27.6312L29.061 27.8436L29.4435 28.6589L29.9332 27.9031L29.5136 27.6312ZM28.8088 26.1293L28.4573 25.7738L28.2062 26.0221L28.3562 26.3417L28.8088 26.1293ZM30.9116 24.0497L31.3859 23.8916L31.1316 23.1288L30.56 23.6942L30.9116 24.0497ZM31.3737 24.7429L31.0201 25.0965L31.1666 25.2429H31.3737V24.7429ZM27.7575 21.739V22.239L27.9749 21.2888L27.7575 21.739ZM22.6163 12.7275H22.1163V12.7374L22.1167 12.7474L22.6163 12.7275ZM22.6163 11.6877L22.5201 11.197L22.1163 11.2762V11.6877H22.6163ZM24.0142 10.8789L24.1104 10.3883L23.8025 10.3279L23.6142 10.5789L24.0142 10.8789ZM25.7703 10.6479L26.1225 10.2929L25.8912 10.0634L25.5878 10.1824L25.7703 10.6479ZM31.1426 10.6479L31.42 10.2318L31.0663 9.99602L30.7766 10.3072L31.1426 10.6479ZM32.194 10.9945L32.5475 10.6409L32.4011 10.4945H32.194V10.9945ZM33.4764 11.6877L33.9731 11.745L34.0234 11.309L33.5977 11.2026L33.4764 11.6877ZM27.7459 21.739L27.4973 21.3052L25.868 22.239H27.7459V21.739ZM24.95 24.1652L25.3015 23.8096L24.8308 23.3444L24.5119 23.9243L24.95 24.1652ZM26.9372 26.1293L27.3899 26.3417L27.5399 26.022L27.2887 25.7737L26.9372 26.1293ZM26.2325 27.6312L25.8129 27.9031L26.3026 28.6589L26.6851 27.8436L26.2325 27.6312ZM24.3608 24.7429L24.1372 24.2957L23.6372 24.5457L23.9412 25.0148L24.3608 24.7429ZM25.8859 23.0099V23.5099H26.1949L26.3331 23.2335L25.8859 23.0099ZM26.2325 22.4322L26.5098 22.0162L26.0385 21.702L25.7852 22.2086L26.2325 22.4322ZM27.5149 23.1254L27.7385 22.6782L27.5149 23.1254ZM28.2196 23.1254L28.4346 23.577L28.4432 23.5727L28.2196 23.1254ZM29.502 22.3167L29.9493 22.0931L29.696 21.5865L29.2247 21.9007L29.502 22.3167ZM29.9642 23.0099L30.3157 23.3655L30.6734 23.012L30.3177 22.6564L29.9642 23.0099ZM27.977 24.974L27.6357 25.3394L27.9868 25.6673L28.3285 25.3296L27.977 24.974ZM25.8743 23.0099V22.5099H24.6065L25.533 23.3753L25.8743 23.0099ZM28.5778 31.3283H28.0778V31.8283H28.5778V31.3283ZM28.5778 29.1332L28.9938 28.8558L28.0778 27.4818V29.1332H28.5778ZM28.8088 29.4798L29.2561 29.2562L29.2421 29.2283L29.2249 29.2024L28.8088 29.4798ZM30.1028 29.4798L30.4476 29.8418L30.4936 29.7981L30.5271 29.7443L30.1028 29.4798ZM32.5521 25.5516L32.8521 25.1516L32.4162 24.8247L32.1278 25.2871L32.5521 25.5516ZM34.0656 26.3604L33.842 26.8076L33.8583 26.8157L33.8751 26.8227L34.0656 26.3604ZM38.271 28.0934L38.5337 27.6679L38.4991 27.6466L38.4615 27.6311L38.271 28.0934ZM40.7203 31.3283L40.2537 31.5078L40.3769 31.8283H40.7203V31.3283ZM19.8204 10.6479V11.1479H20.3204V10.6479H19.8204ZM36.4109 25.8982L36.2163 26.3588L36.9109 26.6523V25.8982H36.4109ZM34.7704 25.205L34.965 24.7445L34.7704 25.205ZM30.796 21.508L30.486 21.1157L30.1466 21.3839L30.3632 21.7584L30.796 21.508ZM35.117 10.9945L34.6319 10.8732L34.6279 10.889L34.625 10.905L35.117 10.9945ZM34.1811 10.1857L34.0849 9.69506L34.0535 9.70123L34.023 9.71138L34.1811 10.1857ZM33.2453 9.83912L32.7981 10.0627L32.8344 10.1353L32.8918 10.1927L33.2453 9.83912ZM31.7203 9.14592L31.3203 9.44592L31.3416 9.47435L31.3667 9.49947L31.7203 9.14592ZM30.5534 9.14592L30.1374 8.86857L30.1331 8.87497L30.129 8.88151L30.5534 9.14592ZM26.4635 9.14592L26.0163 9.36953L26.0328 9.40247L26.0539 9.43265L26.4635 9.14592ZM25.2966 9.14592L25.7127 9.42327L25.7299 9.39737L25.7439 9.36953L25.2966 9.14592ZM23.0784 9.72359L23.5527 9.8817L23.5588 9.86348L23.5635 9.84485L23.0784 9.72359ZM22.1426 10.3013L22.0213 10.7863L22.081 10.8013H22.1426V10.3013ZM21.2068 11.11H20.7068V11.1455L20.7118 11.1807L21.2068 11.11ZM25.1811 21.8546L25.627 22.0807L25.8157 21.7087L25.4835 21.4564L25.1811 21.8546ZM21.3223 25.3206L21.1276 24.8599L21.1169 24.8647L21.3223 25.3206ZM20.0399 25.8982L19.5399 25.9058L19.5515 26.6666L20.2452 26.3541L20.0399 25.8982ZM19.8088 10.6479V10.1479H19.3012L19.3089 10.6554L19.8088 10.6479ZM17.4866 28.3244V28.8244H17.59L17.6849 28.7834L17.4866 28.3244ZM19.3582 27.5157L19.5566 27.9747L19.5617 27.9724L19.3582 27.5157ZM23.217 25.6672L23.6413 25.4026L23.3547 24.943L22.9194 25.2654L23.217 25.6672ZM25.6663 29.5953L25.2421 29.8599L25.2534 29.8781L25.2663 29.8953L25.6663 29.5953ZM26.9488 29.4798L26.5327 29.2024L26.5039 29.2457L26.4845 29.2941L26.9488 29.4798ZM27.1798 29.1332H27.6798V27.4818L26.7638 28.8558L27.1798 29.1332ZM27.1798 31.3283V31.8283H27.6798V31.3283H27.1798ZM15.0257 31.3283L14.5603 31.1457L14.2925 31.8283H15.0257V31.3283ZM17.475 28.3244V27.8244H17.3854L17.3014 27.8556L17.475 28.3244ZM27.1914 32.8302H27.6914V32.3302H27.1914V32.8302ZM27.1914 43.6904V44.1904H27.6914V43.6904H27.1914ZM14.5636 43.6904L14.0865 43.8401L14.1965 44.1904H14.5636V43.6904ZM12.923 32.8302V32.3302H12.423V32.8302H12.923ZM11.294 32.8302L11.7938 32.8151L11.7791 32.3302H11.294V32.8302ZM12.9346 43.6904V44.1904H13.6155L13.4116 43.5407L12.9346 43.6904ZM4.97434 43.6904L4.51927 43.8975L4.65257 44.1904H4.97434V43.6904ZM2.28242 32.8302V32.3302H1.76704L1.78265 32.8454L2.28242 32.8302ZM13.5238 45.0768L13.999 44.9213L13.8863 44.5768H13.5238V45.0768ZM21.2414 56.6301L21.1054 57.1112L21.539 56.2283L21.2414 56.6301ZM5.93327 45.0768L6.36398 44.8228L6.21891 44.5768H5.93327V45.0768ZM34.6664 56.6301L34.377 56.2224L33.0983 57.1301H34.6664V56.6301ZM42.384 45.0768V44.5768H42.0315L41.9131 44.9087L42.384 45.0768ZM49.9861 45.0768L50.4129 45.3373L50.8771 44.5768H49.9861V45.0768ZM34.6779 56.6301V57.1301H34.7484L34.8162 57.1106L34.6779 56.6301ZM55.3731 32.0215C55.3731 28.9538 54.7717 25.8961 53.834 23.0829L52.8853 23.3991C53.7961 26.1314 54.3731 29.0815 54.3731 32.0215H55.3731ZM53.834 23.0829C53.7234 22.7511 53.4617 22.5171 53.1991 22.3879C52.9362 22.2587 52.5934 22.1953 52.2657 22.3045L52.582 23.2532C52.6009 23.2469 52.6682 23.2412 52.7577 23.2853C52.8475 23.3294 52.8804 23.3842 52.8853 23.3991L53.834 23.0829ZM52.2657 22.3045C51.9413 22.4127 51.7031 22.6647 51.5694 22.9278C51.4357 23.1908 51.3692 23.5395 51.4923 23.8752L52.4311 23.531C52.4272 23.5201 52.4184 23.4644 52.4609 23.3809C52.5033 23.2973 52.5598 23.2606 52.582 23.2532L52.2657 22.3045ZM51.488 23.8633C52.2982 26.2596 52.8597 28.7445 52.8597 31.2128H53.8597C53.8597 28.5976 53.2657 25.999 52.4354 23.543L51.488 23.8633ZM53.3597 30.7128H42.2569V31.7128H53.3597V30.7128ZM42.733 31.0599C42.0039 28.7891 40.6486 27.0157 39.0627 26.3604L38.6808 27.2846C39.8909 27.7846 41.1004 29.2462 41.7808 31.3656L42.733 31.0599ZM39.073 26.3648L38.0216 25.9026L37.6192 26.8181L38.6706 27.2802L39.073 26.3648ZM38.3204 26.3604V10.6479H37.3204V26.3604H38.3204ZM38.3204 10.6479C38.3204 5.05173 33.7702 0.558594 28.1156 0.558594V1.55859C33.2288 1.55859 37.3204 5.61492 37.3204 10.6479H38.3204ZM28.1156 0.558594C22.4611 0.558594 17.9109 5.05173 17.9109 10.6479H18.9109C18.9109 5.61492 23.0025 1.55859 28.1156 1.55859V0.558594ZM17.9109 10.6479V26.3604H18.9109V10.6479H17.9109ZM18.2199 25.8983L16.822 26.4759L17.2039 27.4001L18.6018 26.8225L18.2199 25.8983ZM16.822 26.4759C15.2373 27.1308 13.8693 28.903 13.151 31.1777L14.1046 31.4789C14.7726 29.3633 15.9926 27.9006 17.2039 27.4001L16.822 26.4759ZM13.6278 30.8283H2.51349V31.8283H13.6278V30.8283ZM3.01297 31.351C3.12639 28.8557 3.59152 26.3595 4.38578 23.9768L3.4371 23.6605C2.61389 26.1302 2.13164 28.7174 2.014 31.3056L3.01297 31.351ZM4.38578 23.9768C4.49497 23.6492 4.43192 23.3083 4.30088 23.0463C4.16985 22.7842 3.93499 22.5292 3.60742 22.42L3.29119 23.3687C3.31022 23.3751 3.36419 23.4089 3.40646 23.4935C3.44873 23.578 3.44344 23.6415 3.4371 23.6605L4.38578 23.9768ZM3.60742 22.42C3.27977 22.3108 2.9369 22.3742 2.67409 22.5035C2.41142 22.6326 2.14972 22.8667 2.03914 23.1984L2.98783 23.5146C2.99278 23.4998 3.02569 23.4449 3.1154 23.4008C3.20496 23.3568 3.27224 23.3624 3.29119 23.3687L3.60742 22.42ZM2.04364 23.1855C0.970431 26.1339 0.5 29.1962 0.5 32.137H1.5C1.5 29.3012 1.95383 26.3558 2.98333 23.5275L2.04364 23.1855ZM0.5 32.137V32.2526H1.5V32.137H0.5ZM0.5 32.2526C0.5 47.2055 12.7665 59.4407 28.0001 59.4407V58.4407C13.3106 58.4407 1.5 46.6451 1.5 32.2526H0.5ZM28.0001 59.4407C43.2337 59.4407 55.5002 47.2055 55.5002 32.2526H54.5002C54.5002 46.6451 42.6896 58.4407 28.0001 58.4407V59.4407ZM55.3538 31.899C55.3437 31.8889 55.3506 31.8931 55.3608 31.9134C55.3721 31.9361 55.3847 31.9736 55.3847 32.0215H54.3847C54.3847 32.2779 54.5152 32.4746 54.6467 32.6061L55.3538 31.899ZM54.3847 32.0215C54.3847 32.0217 54.3847 32.0218 54.3847 32.0219C54.3847 32.0221 54.3847 32.0222 54.3847 32.0224C54.3847 32.0225 54.3847 32.0227 54.3847 32.0228C54.3847 32.023 54.3847 32.0231 54.3847 32.0233C54.3847 32.0234 54.3847 32.0236 54.3847 32.0237C54.3847 32.0239 54.3847 32.024 54.3847 32.0242C54.3847 32.0243 54.3847 32.0245 54.3847 32.0246C54.3847 32.0248 54.3847 32.0249 54.3847 32.0251C54.3847 32.0252 54.3847 32.0253 54.3847 32.0255C54.3847 32.0256 54.3847 32.0258 54.3847 32.0259C54.3847 32.0261 54.3847 32.0262 54.3847 32.0264C54.3847 32.0265 54.3847 32.0266 54.3847 32.0268C54.3847 32.0269 54.3847 32.0271 54.3847 32.0272C54.3847 32.0274 54.3847 32.0275 54.3847 32.0276C54.3847 32.0278 54.3847 32.0279 54.3847 32.0281C54.3847 32.0282 54.3847 32.0284 54.3847 32.0285C54.3847 32.0286 54.3847 32.0288 54.3847 32.0289C54.3847 32.0291 54.3847 32.0292 54.3847 32.0293C54.3847 32.0295 54.3847 32.0296 54.3847 32.0298C54.3847 32.0299 54.3847 32.03 54.3847 32.0302C54.3847 32.0303 54.3847 32.0304 54.3847 32.0306C54.3847 32.0307 54.3847 32.0309 54.3847 32.031C54.3847 32.0311 54.3847 32.0313 54.3847 32.0314C54.3847 32.0315 54.3847 32.0317 54.3847 32.0318C54.3847 32.032 54.3847 32.0321 54.3847 32.0322C54.3847 32.0324 54.3847 32.0325 54.3847 32.0326C54.3847 32.0328 54.3847 32.0329 54.3847 32.033C54.3847 32.0332 54.3847 32.0333 54.3847 32.0334C54.3847 32.0336 54.3847 32.0337 54.3847 32.0338C54.3847 32.034 54.3847 32.0341 54.3847 32.0342C54.3847 32.0344 54.3847 32.0345 54.3847 32.0346C54.3847 32.0348 54.3847 32.0349 54.3847 32.035C54.3847 32.0352 54.3847 32.0353 54.3847 32.0354C54.3847 32.0356 54.3847 32.0357 54.3847 32.0358C54.3847 32.036 54.3847 32.0361 54.3847 32.0362C54.3847 32.0363 54.3847 32.0365 54.3847 32.0366C54.3847 32.0367 54.3847 32.0369 54.3847 32.037C54.3847 32.0371 54.3847 32.0372 54.3847 32.0374C54.3847 32.0375 54.3847 32.0376 54.3847 32.0378C54.3847 32.0379 54.3847 32.038 54.3847 32.0381C54.3847 32.0383 54.3847 32.0384 54.3847 32.0385C54.3847 32.0386 54.3847 32.0388 54.3847 32.0389C54.3847 32.039 54.3847 32.0392 54.3847 32.0393C54.3847 32.0394 54.3847 32.0395 54.3847 32.0396C54.3847 32.0398 54.3847 32.0399 54.3847 32.04C54.3847 32.0401 54.3847 32.0403 54.3847 32.0404C54.3847 32.0405 54.3847 32.0406 54.3847 32.0408C54.3847 32.0409 54.3847 32.041 54.3847 32.0411C54.3847 32.0413 54.3847 32.0414 54.3847 32.0415C54.3847 32.0416 54.3847 32.0417 54.3847 32.0419C54.3847 32.042 54.3847 32.0421 54.3847 32.0422C54.3847 32.0423 54.3847 32.0425 54.3847 32.0426C54.3847 32.0427 54.3847 32.0428 54.3847 32.0429C54.3847 32.0431 54.3847 32.0432 54.3847 32.0433C54.3847 32.0434 54.3847 32.0435 54.3847 32.0437C54.3847 32.0438 54.3847 32.0439 54.3847 32.044C54.3847 32.0441 54.3847 32.0442 54.3847 32.0444C54.3847 32.0445 54.3847 32.0446 54.3847 32.0447C54.3847 32.0448 54.3847 32.0449 54.3847 32.0451C54.3847 32.0452 54.3847 32.0453 54.3847 32.0454C54.3847 32.0455 54.3847 32.0456 54.3847 32.0457C54.3847 32.0459 54.3847 32.046 54.3847 32.0461C54.3847 32.0462 54.3847 32.0463 54.3847 32.0464C54.3847 32.0465 54.3847 32.0467 54.3847 32.0468C54.3847 32.0469 54.3847 32.047 54.3847 32.0471C54.3847 32.0472 54.3847 32.0473 54.3847 32.0474C54.3847 32.0476 54.3847 32.0477 54.3847 32.0478C54.3847 32.0479 54.3847 32.048 54.3847 32.0481C54.3847 32.0482 54.3847 32.0483 54.3847 32.0484C54.3847 32.0486 54.3847 32.0487 54.3847 32.0488C54.3847 32.0489 54.3847 32.049 54.3847 32.0491C54.3847 32.0492 54.3847 32.0493 54.3847 32.0494C54.3847 32.0495 54.3847 32.0496 54.3847 32.0497C54.3847 32.0499 54.3847 32.05 54.3847 32.0501C54.3847 32.0502 54.3847 32.0503 54.3847 32.0504C54.3847 32.0505 54.3847 32.0506 54.3847 32.0507C54.3847 32.0508 54.3847 32.0509 54.3847 32.051C54.3847 32.0511 54.3847 32.0512 54.3847 32.0513C54.3847 32.0514 54.3847 32.0515 54.3847 32.0517C54.3847 32.0518 54.3847 32.0519 54.3847 32.052C54.3847 32.0521 54.3847 32.0522 54.3847 32.0523C54.3847 32.0524 54.3847 32.0525 54.3847 32.0526C54.3847 32.0527 54.3847 32.0528 54.3847 32.0529C54.3847 32.053 54.3847 32.0531 54.3847 32.0532C54.3847 32.0533 54.3847 32.0534 54.3847 32.0535C54.3847 32.0536 54.3847 32.0537 54.3847 32.0538C54.3847 32.0539 54.3847 32.054 54.3847 32.0541C54.3847 32.0542 54.3847 32.0543 54.3847 32.0544C54.3847 32.0545 54.3847 32.0546 54.3847 32.0547C54.3847 32.0548 54.3847 32.0549 54.3847 32.055C54.3847 32.0551 54.3847 32.0552 54.3847 32.0553C54.3847 32.0554 54.3847 32.0555 54.3847 32.0556C54.3847 32.0557 54.3847 32.0558 54.3847 32.0558C54.3847 32.0559 54.3847 32.056 54.3847 32.0561C54.3847 32.0562 54.3847 32.0563 54.3847 32.0564C54.3847 32.0565 54.3847 32.0566 54.3847 32.0567C54.3847 32.0568 54.3847 32.0569 54.3847 32.057C54.3847 32.0571 54.3847 32.0572 54.3847 32.0573C54.3847 32.0574 54.3847 32.0574 54.3847 32.0575C54.3847 32.0576 54.3847 32.0577 54.3847 32.0578C54.3847 32.0579 54.3847 32.058 54.3847 32.0581C54.3847 32.0582 54.3847 32.0583 54.3847 32.0584C54.3847 32.0585 54.3847 32.0585 54.3847 32.0586C54.3847 32.0587 54.3847 32.0588 54.3847 32.0589C54.3847 32.059 54.3847 32.0591 54.3847 32.0592C54.3847 32.0593 54.3847 32.0593 54.3847 32.0594C54.3847 32.0595 54.3847 32.0596 54.3847 32.0597C54.3847 32.0598 54.3847 32.0599 54.3847 32.06C54.3847 32.06 54.3847 32.0601 54.3847 32.0602C54.3847 32.0603 54.3847 32.0604 54.3847 32.0605C54.3847 32.0606 54.3847 32.0606 54.3847 32.0607C54.3847 32.0608 54.3847 32.0609 54.3847 32.061C54.3847 32.0611 54.3847 32.0612 54.3847 32.0612C54.3847 32.0613 54.3847 32.0614 54.3847 32.0615C54.3847 32.0616 54.3847 32.0617 54.3847 32.0617C54.3847 32.0618 54.3847 32.0619 54.3847 32.062C54.3847 32.0621 54.3847 32.0622 54.3847 32.0622C54.3847 32.0623 54.3847 32.0624 54.3847 32.0625C54.3847 32.0626 54.3847 32.0626 54.3847 32.0627C54.3847 32.0628 54.3847 32.0629 54.3847 32.063C54.3847 32.063 54.3847 32.0631 54.3847 32.0632C54.3847 32.0633 54.3847 32.0634 54.3847 32.0634C54.3847 32.0635 54.3847 32.0636 54.3847 32.0637C54.3847 32.0638 54.3847 32.0638 54.3847 32.0639C54.3847 32.064 54.3847 32.0641 54.3847 32.0641C54.3847 32.0642 54.3847 32.0643 54.3847 32.0644C54.3847 32.0644 54.3847 32.0645 54.3847 32.0646C54.3847 32.0647 54.3847 32.0647 54.3847 32.0648C54.3847 32.0649 54.3847 32.065 54.3847 32.065C54.3847 32.0651 54.3847 32.0652 54.3847 32.0653C54.3847 32.0653 54.3847 32.0654 54.3847 32.0655C54.3847 32.0656 54.3847 32.0656 54.3847 32.0657C54.3847 32.0658 54.3847 32.0659 54.3847 32.0659C54.3847 32.066 54.3847 32.0661 54.3847 32.0661C54.3847 32.0662 54.3847 32.0663 54.3847 32.0664C54.3847 32.0664 54.3847 32.0665 54.3847 32.0666C54.3847 32.0666 54.3847 32.0667 54.3847 32.0668C54.3847 32.0669 54.3847 32.0669 54.3847 32.067C54.3847 32.0671 54.3847 32.0671 54.3847 32.0672C54.3847 32.0673 54.3847 32.0673 54.3847 32.0674C54.3847 32.0675 54.3847 32.0675 54.3847 32.0676C54.3847 32.0677 54.3847 32.0677 54.3847 32.0678C54.3847 32.0679 54.3847 32.0679 54.3847 32.068C54.3847 32.0681 54.3847 32.0681 54.3847 32.0682C54.3847 32.0683 54.3847 32.0683 54.3847 32.0684C54.3847 32.0685 54.3847 32.0685 54.3847 32.0686C54.3847 32.0687 54.3847 32.0687 54.3847 32.0688C54.3847 32.0689 54.3847 32.0689 54.3847 32.069C54.3847 32.069 54.3847 32.0691 54.3847 32.0692C54.3847 32.0692 54.3847 32.0693 54.3847 32.0694C54.3847 32.0694 54.3847 32.0695 54.3847 32.0695C54.3847 32.0696 54.3847 32.0697 54.3847 32.0697C54.3847 32.0698 54.3847 32.0699 54.3847 32.0699C54.3847 32.07 54.3847 32.07 54.3847 32.0701C54.3847 32.0702 54.3847 32.0702 54.3847 32.0703C54.3847 32.0703 54.3847 32.0704 54.3847 32.0705C54.3847 32.0705 54.3847 32.0706 54.3847 32.0706C54.3847 32.0707 54.3847 32.0707 54.3847 32.0708C54.3847 32.0709 54.3847 32.0709 54.3847 32.071C54.3847 32.071 54.3847 32.0711 54.3847 32.0711C54.3847 32.0712 54.3847 32.0713 54.3847 32.0713C54.3847 32.0714 54.3847 32.0714 54.3847 32.0715C54.3847 32.0715 54.3847 32.0716 54.3847 32.0716C54.3847 32.0717 54.3847 32.0718 54.3847 32.0718C54.3847 32.0719 54.3847 32.0719 54.3847 32.072C54.3847 32.072 54.3847 32.0721 54.3847 32.0721C54.3847 32.0722 54.3847 32.0722 54.3847 32.0723C54.3847 32.0723 54.3847 32.0724 54.3847 32.0724C54.3847 32.0725 54.3847 32.0725 54.3847 32.0726C54.3847 32.0726 54.3847 32.0727 54.3847 32.0727C54.3847 32.0728 54.3847 32.0728 54.3847 32.0729C54.3847 32.0729 54.3847 32.073 54.3847 32.073C54.3847 32.0731 54.3847 32.0731 54.3847 32.0732C54.3847 32.0732 54.3847 32.0733 54.3847 32.0733C54.3847 32.0734 54.3847 32.0734 54.3847 32.0735C54.3847 32.0735 54.3847 32.0736 54.3847 32.0736C54.3847 32.0737 54.3847 32.0737 54.3847 32.0738C54.3847 32.0738 54.3847 32.0739 54.3847 32.0739C54.3847 32.0739 54.3847 32.074 54.3847 32.074C54.3847 32.0741 54.3847 32.0741 54.3847 32.0742C54.3847 32.0742 54.3847 32.0743 54.3847 32.0743C54.3847 32.0744 54.3847 32.0744 54.3847 32.0744C54.3847 32.0745 54.3847 32.0745 54.3847 32.0746C54.3847 32.0746 54.3847 32.0747 54.3847 32.0747C54.3847 32.0747 54.3847 32.0748 54.3847 32.0748C54.3847 32.0749 54.3847 32.0749 54.3847 32.0749C54.3847 32.075 54.3847 32.075 54.3847 32.0751C54.3847 32.0751 54.3847 32.0751 54.3847 32.0752C54.3847 32.0752 54.3847 32.0753 54.3847 32.0753C54.3847 32.0753 54.3847 32.0754 54.3847 32.0754C54.3847 32.0755 54.3847 32.0755 54.3847 32.0755C54.3847 32.0756 54.3847 32.0756 54.3847 32.0757C54.3847 32.0757 54.3847 32.0757 54.3847 32.0758C54.3847 32.0758 54.3847 32.0758 54.3847 32.0759C54.3847 32.0759 54.3847 32.076 54.3847 32.076C54.3847 32.076 54.3847 32.0761 54.3847 32.0761C54.3847 32.0761 54.3847 32.0762 54.3847 32.0762C54.3847 32.0762 54.3847 32.0763 54.3847 32.0763C54.3847 32.0763 54.3847 32.0764 54.3847 32.0764C54.3847 32.0764 54.3847 32.0765 54.3847 32.0765C54.3847 32.0765 54.3847 32.0766 54.3847 32.0766C54.3847 32.0766 54.3847 32.0767 54.3847 32.0767C54.3847 32.0767 54.3847 32.0768 54.3847 32.0768C54.3847 32.0768 54.3847 32.0769 54.3847 32.0769C54.3847 32.0769 54.3847 32.0769 54.3847 32.077C54.3847 32.077 54.3847 32.077 54.3847 32.0771C54.3847 32.0771 54.3847 32.0771 54.3847 32.0772C54.3847 32.0772 54.3847 32.0772 54.3847 32.0772C54.3847 32.0773 54.3847 32.0773 54.3847 32.0773C54.3847 32.0773 54.3847 32.0774 54.3847 32.0774C54.3847 32.0774 54.3847 32.0775 54.3847 32.0775C54.3847 32.0775 54.3847 32.0775 54.3847 32.0776C54.3847 32.0776 54.3847 32.0776 54.3847 32.0776C54.3847 32.0777 54.3847 32.0777 54.3847 32.0777C54.3847 32.0777 54.3847 32.0778 54.3847 32.0778C54.3847 32.0778 54.3847 32.0778 54.3847 32.0779C54.3847 32.0779 54.3847 32.0779 54.3847 32.0779C54.3847 32.0779 54.3847 32.078 54.3847 32.078C54.3847 32.078 54.3847 32.078 54.3847 32.0781C54.3847 32.0781 54.3847 32.0781 54.3847 32.0781C54.3847 32.0781 54.3847 32.0782 54.3847 32.0782C54.3847 32.0782 54.3847 32.0782 54.3847 32.0782C54.3847 32.0783 54.3847 32.0783 54.3847 32.0783C54.3847 32.0783 54.3847 32.0783 54.3847 32.0784C54.3847 32.0784 54.3847 32.0784 54.3847 32.0784C54.3847 32.0784 54.3847 32.0785 54.3847 32.0785C54.3847 32.0785 54.3847 32.0785 54.3847 32.0785C54.3847 32.0785 54.3847 32.0786 54.3847 32.0786C54.3847 32.0786 54.3847 32.0786 54.3847 32.0786C54.3847 32.0786 54.3847 32.0787 54.3847 32.0787C54.3847 32.0787 54.3847 32.0787 54.3847 32.0787C54.3847 32.0787 54.3847 32.0787 54.3847 32.0788C54.3847 32.0788 54.3847 32.0788 54.3847 32.0788C54.3847 32.0788 54.3847 32.0788 54.3847 32.0788C54.3847 32.0789 54.3847 32.0789 54.3847 32.0789C54.3847 32.0789 54.3847 32.0789 54.3847 32.0789C54.3847 32.0789 54.3847 32.0789 54.3847 32.0789C54.3847 32.079 54.3847 32.079 54.3847 32.079C54.3847 32.079 54.3847 32.079 54.3847 32.079C54.3847 32.079 54.3847 32.079 54.3847 32.079C54.3847 32.0791 54.3847 32.0791 54.3847 32.0791C54.3847 32.0791 54.3847 32.0791 54.3847 32.0791C54.3847 32.0791 54.3847 32.0791 54.3847 32.0791C54.3847 32.0791 54.3847 32.0791 54.3847 32.0791C54.3847 32.0791 54.3847 32.0792 54.3847 32.0792C54.3847 32.0792 54.3847 32.0792 54.3847 32.0792C54.3847 32.0792 54.3847 32.0792 54.3847 32.0792C54.3847 32.0792 54.3847 32.0792 54.3847 32.0792C54.3847 32.0792 54.3847 32.0792 54.3847 32.0792C54.3847 32.0792 54.3847 32.0792 54.3847 32.0792C54.3847 32.0792 54.3847 32.0792 54.3847 32.0792C54.3847 32.0792 54.3847 32.0793 54.3847 32.0793C54.3847 32.0793 54.3847 32.0793 54.3847 32.0793C54.3847 32.0793 54.3847 32.0793 54.3847 32.0793C54.3847 32.0793 54.3847 32.0793 54.3847 32.0793C54.3847 32.0793 54.3847 32.0793 54.8847 32.0793C55.3847 32.0793 55.3847 32.0793 55.3847 32.0793C55.3847 32.0793 55.3847 32.0793 55.3847 32.0793C55.3847 32.0793 55.3847 32.0793 55.3847 32.0793C55.3847 32.0793 55.3847 32.0793 55.3847 32.0793C55.3847 32.0793 55.3847 32.0792 55.3847 32.0792C55.3847 32.0792 55.3847 32.0792 55.3847 32.0792C55.3847 32.0792 55.3847 32.0792 55.3847 32.0792C55.3847 32.0792 55.3847 32.0792 55.3847 32.0792C55.3847 32.0792 55.3847 32.0792 55.3847 32.0792C55.3847 32.0792 55.3847 32.0792 55.3847 32.0792C55.3847 32.0792 55.3847 32.0792 55.3847 32.0792C55.3847 32.0792 55.3847 32.0791 55.3847 32.0791C55.3847 32.0791 55.3847 32.0791 55.3847 32.0791C55.3847 32.0791 55.3847 32.0791 55.3847 32.0791C55.3847 32.0791 55.3847 32.0791 55.3847 32.0791C55.3847 32.0791 55.3847 32.0791 55.3847 32.079C55.3847 32.079 55.3847 32.079 55.3847 32.079C55.3847 32.079 55.3847 32.079 55.3847 32.079C55.3847 32.079 55.3847 32.079 55.3847 32.0789C55.3847 32.0789 55.3847 32.0789 55.3847 32.0789C55.3847 32.0789 55.3847 32.0789 55.3847 32.0789C55.3847 32.0789 55.3847 32.0789 55.3847 32.0788C55.3847 32.0788 55.3847 32.0788 55.3847 32.0788C55.3847 32.0788 55.3847 32.0788 55.3847 32.0788C55.3847 32.0787 55.3847 32.0787 55.3847 32.0787C55.3847 32.0787 55.3847 32.0787 55.3847 32.0787C55.3847 32.0787 55.3847 32.0786 55.3847 32.0786C55.3847 32.0786 55.3847 32.0786 55.3847 32.0786C55.3847 32.0786 55.3847 32.0785 55.3847 32.0785C55.3847 32.0785 55.3847 32.0785 55.3847 32.0785C55.3847 32.0785 55.3847 32.0784 55.3847 32.0784C55.3847 32.0784 55.3847 32.0784 55.3847 32.0784C55.3847 32.0783 55.3847 32.0783 55.3847 32.0783C55.3847 32.0783 55.3847 32.0783 55.3847 32.0782C55.3847 32.0782 55.3847 32.0782 55.3847 32.0782C55.3847 32.0782 55.3847 32.0781 55.3847 32.0781C55.3847 32.0781 55.3847 32.0781 55.3847 32.0781C55.3847 32.078 55.3847 32.078 55.3847 32.078C55.3847 32.078 55.3847 32.0779 55.3847 32.0779C55.3847 32.0779 55.3847 32.0779 55.3847 32.0779C55.3847 32.0778 55.3847 32.0778 55.3847 32.0778C55.3847 32.0778 55.3847 32.0777 55.3847 32.0777C55.3847 32.0777 55.3847 32.0777 55.3847 32.0776C55.3847 32.0776 55.3847 32.0776 55.3847 32.0776C55.3847 32.0775 55.3847 32.0775 55.3847 32.0775C55.3847 32.0775 55.3847 32.0774 55.3847 32.0774C55.3847 32.0774 55.3847 32.0773 55.3847 32.0773C55.3847 32.0773 55.3847 32.0773 55.3847 32.0772C55.3847 32.0772 55.3847 32.0772 55.3847 32.0772C55.3847 32.0771 55.3847 32.0771 55.3847 32.0771C55.3847 32.077 55.3847 32.077 55.3847 32.077C55.3847 32.0769 55.3847 32.0769 55.3847 32.0769C55.3847 32.0769 55.3847 32.0768 55.3847 32.0768C55.3847 32.0768 55.3847 32.0767 55.3847 32.0767C55.3847 32.0767 55.3847 32.0766 55.3847 32.0766C55.3847 32.0766 55.3847 32.0765 55.3847 32.0765C55.3847 32.0765 55.3847 32.0764 55.3847 32.0764C55.3847 32.0764 55.3847 32.0763 55.3847 32.0763C55.3847 32.0763 55.3847 32.0762 55.3847 32.0762C55.3847 32.0762 55.3847 32.0761 55.3847 32.0761C55.3847 32.0761 55.3847 32.076 55.3847 32.076C55.3847 32.076 55.3847 32.0759 55.3847 32.0759C55.3847 32.0758 55.3847 32.0758 55.3847 32.0758C55.3847 32.0757 55.3847 32.0757 55.3847 32.0757C55.3847 32.0756 55.3847 32.0756 55.3847 32.0755C55.3847 32.0755 55.3847 32.0755 55.3847 32.0754C55.3847 32.0754 55.3847 32.0753 55.3847 32.0753C55.3847 32.0753 55.3847 32.0752 55.3847 32.0752C55.3847 32.0751 55.3847 32.0751 55.3847 32.0751C55.3847 32.075 55.3847 32.075 55.3847 32.0749C55.3847 32.0749 55.3847 32.0749 55.3847 32.0748C55.3847 32.0748 55.3847 32.0747 55.3847 32.0747C55.3847 32.0747 55.3847 32.0746 55.3847 32.0746C55.3847 32.0745 55.3847 32.0745 55.3847 32.0744C55.3847 32.0744 55.3847 32.0744 55.3847 32.0743C55.3847 32.0743 55.3847 32.0742 55.3847 32.0742C55.3847 32.0741 55.3847 32.0741 55.3847 32.074C55.3847 32.074 55.3847 32.0739 55.3847 32.0739C55.3847 32.0739 55.3847 32.0738 55.3847 32.0738C55.3847 32.0737 55.3847 32.0737 55.3847 32.0736C55.3847 32.0736 55.3847 32.0735 55.3847 32.0735C55.3847 32.0734 55.3847 32.0734 55.3847 32.0733C55.3847 32.0733 55.3847 32.0732 55.3847 32.0732C55.3847 32.0731 55.3847 32.0731 55.3847 32.073C55.3847 32.073 55.3847 32.0729 55.3847 32.0729C55.3847 32.0728 55.3847 32.0728 55.3847 32.0727C55.3847 32.0727 55.3847 32.0726 55.3847 32.0726C55.3847 32.0725 55.3847 32.0725 55.3847 32.0724C55.3847 32.0724 55.3847 32.0723 55.3847 32.0723C55.3847 32.0722 55.3847 32.0722 55.3847 32.0721C55.3847 32.0721 55.3847 32.072 55.3847 32.072C55.3847 32.0719 55.3847 32.0719 55.3847 32.0718C55.3847 32.0718 55.3847 32.0717 55.3847 32.0716C55.3847 32.0716 55.3847 32.0715 55.3847 32.0715C55.3847 32.0714 55.3847 32.0714 55.3847 32.0713C55.3847 32.0713 55.3847 32.0712 55.3847 32.0711C55.3847 32.0711 55.3847 32.071 55.3847 32.071C55.3847 32.0709 55.3847 32.0709 55.3847 32.0708C55.3847 32.0707 55.3847 32.0707 55.3847 32.0706C55.3847 32.0706 55.3847 32.0705 55.3847 32.0705C55.3847 32.0704 55.3847 32.0703 55.3847 32.0703C55.3847 32.0702 55.3847 32.0702 55.3847 32.0701C55.3847 32.07 55.3847 32.07 55.3847 32.0699C55.3847 32.0699 55.3847 32.0698 55.3847 32.0697C55.3847 32.0697 55.3847 32.0696 55.3847 32.0695C55.3847 32.0695 55.3847 32.0694 55.3847 32.0694C55.3847 32.0693 55.3847 32.0692 55.3847 32.0692C55.3847 32.0691 55.3847 32.069 55.3847 32.069C55.3847 32.0689 55.3847 32.0689 55.3847 32.0688C55.3847 32.0687 55.3847 32.0687 55.3847 32.0686C55.3847 32.0685 55.3847 32.0685 55.3847 32.0684C55.3847 32.0683 55.3847 32.0683 55.3847 32.0682C55.3847 32.0681 55.3847 32.0681 55.3847 32.068C55.3847 32.0679 55.3847 32.0679 55.3847 32.0678C55.3847 32.0677 55.3847 32.0677 55.3847 32.0676C55.3847 32.0675 55.3847 32.0675 55.3847 32.0674C55.3847 32.0673 55.3847 32.0673 55.3847 32.0672C55.3847 32.0671 55.3847 32.0671 55.3847 32.067C55.3847 32.0669 55.3847 32.0669 55.3847 32.0668C55.3847 32.0667 55.3847 32.0666 55.3847 32.0666C55.3847 32.0665 55.3847 32.0664 55.3847 32.0664C55.3847 32.0663 55.3847 32.0662 55.3847 32.0661C55.3847 32.0661 55.3847 32.066 55.3847 32.0659C55.3847 32.0659 55.3847 32.0658 55.3847 32.0657C55.3847 32.0656 55.3847 32.0656 55.3847 32.0655C55.3847 32.0654 55.3847 32.0653 55.3847 32.0653C55.3847 32.0652 55.3847 32.0651 55.3847 32.065C55.3847 32.065 55.3847 32.0649 55.3847 32.0648C55.3847 32.0647 55.3847 32.0647 55.3847 32.0646C55.3847 32.0645 55.3847 32.0644 55.3847 32.0644C55.3847 32.0643 55.3847 32.0642 55.3847 32.0641C55.3847 32.0641 55.3847 32.064 55.3847 32.0639C55.3847 32.0638 55.3847 32.0638 55.3847 32.0637C55.3847 32.0636 55.3847 32.0635 55.3847 32.0634C55.3847 32.0634 55.3847 32.0633 55.3847 32.0632C55.3847 32.0631 55.3847 32.063 55.3847 32.063C55.3847 32.0629 55.3847 32.0628 55.3847 32.0627C55.3847 32.0626 55.3847 32.0626 55.3847 32.0625C55.3847 32.0624 55.3847 32.0623 55.3847 32.0622C55.3847 32.0622 55.3847 32.0621 55.3847 32.062C55.3847 32.0619 55.3847 32.0618 55.3847 32.0617C55.3847 32.0617 55.3847 32.0616 55.3847 32.0615C55.3847 32.0614 55.3847 32.0613 55.3847 32.0612C55.3847 32.0612 55.3847 32.0611 55.3847 32.061C55.3847 32.0609 55.3847 32.0608 55.3847 32.0607C55.3847 32.0606 55.3847 32.0606 55.3847 32.0605C55.3847 32.0604 55.3847 32.0603 55.3847 32.0602C55.3847 32.0601 55.3847 32.06 55.3847 32.06C55.3847 32.0599 55.3847 32.0598 55.3847 32.0597C55.3847 32.0596 55.3847 32.0595 55.3847 32.0594C55.3847 32.0593 55.3847 32.0593 55.3847 32.0592C55.3847 32.0591 55.3847 32.059 55.3847 32.0589C55.3847 32.0588 55.3847 32.0587 55.3847 32.0586C55.3847 32.0585 55.3847 32.0585 55.3847 32.0584C55.3847 32.0583 55.3847 32.0582 55.3847 32.0581C55.3847 32.058 55.3847 32.0579 55.3847 32.0578C55.3847 32.0577 55.3847 32.0576 55.3847 32.0575C55.3847 32.0574 55.3847 32.0574 55.3847 32.0573C55.3847 32.0572 55.3847 32.0571 55.3847 32.057C55.3847 32.0569 55.3847 32.0568 55.3847 32.0567C55.3847 32.0566 55.3847 32.0565 55.3847 32.0564C55.3847 32.0563 55.3847 32.0562 55.3847 32.0561C55.3847 32.056 55.3847 32.0559 55.3847 32.0558C55.3847 32.0558 55.3847 32.0557 55.3847 32.0556C55.3847 32.0555 55.3847 32.0554 55.3847 32.0553C55.3847 32.0552 55.3847 32.0551 55.3847 32.055C55.3847 32.0549 55.3847 32.0548 55.3847 32.0547C55.3847 32.0546 55.3847 32.0545 55.3847 32.0544C55.3847 32.0543 55.3847 32.0542 55.3847 32.0541C55.3847 32.054 55.3847 32.0539 55.3847 32.0538C55.3847 32.0537 55.3847 32.0536 55.3847 32.0535C55.3847 32.0534 55.3847 32.0533 55.3847 32.0532C55.3847 32.0531 55.3847 32.053 55.3847 32.0529C55.3847 32.0528 55.3847 32.0527 55.3847 32.0526C55.3847 32.0525 55.3847 32.0524 55.3847 32.0523C55.3847 32.0522 55.3847 32.0521 55.3847 32.052C55.3847 32.0519 55.3847 32.0518 55.3847 32.0517C55.3847 32.0515 55.3847 32.0514 55.3847 32.0513C55.3847 32.0512 55.3847 32.0511 55.3847 32.051C55.3847 32.0509 55.3847 32.0508 55.3847 32.0507C55.3847 32.0506 55.3847 32.0505 55.3847 32.0504C55.3847 32.0503 55.3847 32.0502 55.3847 32.0501C55.3847 32.05 55.3847 32.0499 55.3847 32.0497C55.3847 32.0496 55.3847 32.0495 55.3847 32.0494C55.3847 32.0493 55.3847 32.0492 55.3847 32.0491C55.3847 32.049 55.3847 32.0489 55.3847 32.0488C55.3847 32.0487 55.3847 32.0486 55.3847 32.0484C55.3847 32.0483 55.3847 32.0482 55.3847 32.0481C55.3847 32.048 55.3847 32.0479 55.3847 32.0478C55.3847 32.0477 55.3847 32.0476 55.3847 32.0474C55.3847 32.0473 55.3847 32.0472 55.3847 32.0471C55.3847 32.047 55.3847 32.0469 55.3847 32.0468C55.3847 32.0467 55.3847 32.0465 55.3847 32.0464C55.3847 32.0463 55.3847 32.0462 55.3847 32.0461C55.3847 32.046 55.3847 32.0459 55.3847 32.0457C55.3847 32.0456 55.3847 32.0455 55.3847 32.0454C55.3847 32.0453 55.3847 32.0452 55.3847 32.0451C55.3847 32.0449 55.3847 32.0448 55.3847 32.0447C55.3847 32.0446 55.3847 32.0445 55.3847 32.0444C55.3847 32.0442 55.3847 32.0441 55.3847 32.044C55.3847 32.0439 55.3847 32.0438 55.3847 32.0437C55.3847 32.0435 55.3847 32.0434 55.3847 32.0433C55.3847 32.0432 55.3847 32.0431 55.3847 32.0429C55.3847 32.0428 55.3847 32.0427 55.3847 32.0426C55.3847 32.0425 55.3847 32.0423 55.3847 32.0422C55.3847 32.0421 55.3847 32.042 55.3847 32.0419C55.3847 32.0417 55.3847 32.0416 55.3847 32.0415C55.3847 32.0414 55.3847 32.0413 55.3847 32.0411C55.3847 32.041 55.3847 32.0409 55.3847 32.0408C55.3847 32.0406 55.3847 32.0405 55.3847 32.0404C55.3847 32.0403 55.3847 32.0401 55.3847 32.04C55.3847 32.0399 55.3847 32.0398 55.3847 32.0396C55.3847 32.0395 55.3847 32.0394 55.3847 32.0393C55.3847 32.0392 55.3847 32.039 55.3847 32.0389C55.3847 32.0388 55.3847 32.0386 55.3847 32.0385C55.3847 32.0384 55.3847 32.0383 55.3847 32.0381C55.3847 32.038 55.3847 32.0379 55.3847 32.0378C55.3847 32.0376 55.3847 32.0375 55.3847 32.0374C55.3847 32.0372 55.3847 32.0371 55.3847 32.037C55.3847 32.0369 55.3847 32.0367 55.3847 32.0366C55.3847 32.0365 55.3847 32.0363 55.3847 32.0362C55.3847 32.0361 55.3847 32.036 55.3847 32.0358C55.3847 32.0357 55.3847 32.0356 55.3847 32.0354C55.3847 32.0353 55.3847 32.0352 55.3847 32.035C55.3847 32.0349 55.3847 32.0348 55.3847 32.0346C55.3847 32.0345 55.3847 32.0344 55.3847 32.0342C55.3847 32.0341 55.3847 32.034 55.3847 32.0338C55.3847 32.0337 55.3847 32.0336 55.3847 32.0334C55.3847 32.0333 55.3847 32.0332 55.3847 32.033C55.3847 32.0329 55.3847 32.0328 55.3847 32.0326C55.3847 32.0325 55.3847 32.0324 55.3847 32.0322C55.3847 32.0321 55.3847 32.032 55.3847 32.0318C55.3847 32.0317 55.3847 32.0315 55.3847 32.0314C55.3847 32.0313 55.3847 32.0311 55.3847 32.031C55.3847 32.0309 55.3847 32.0307 55.3847 32.0306C55.3847 32.0304 55.3847 32.0303 55.3847 32.0302C55.3847 32.03 55.3847 32.0299 55.3847 32.0298C55.3847 32.0296 55.3847 32.0295 55.3847 32.0293C55.3847 32.0292 55.3847 32.0291 55.3847 32.0289C55.3847 32.0288 55.3847 32.0286 55.3847 32.0285C55.3847 32.0284 55.3847 32.0282 55.3847 32.0281C55.3847 32.0279 55.3847 32.0278 55.3847 32.0276C55.3847 32.0275 55.3847 32.0274 55.3847 32.0272C55.3847 32.0271 55.3847 32.0269 55.3847 32.0268C55.3847 32.0266 55.3847 32.0265 55.3847 32.0264C55.3847 32.0262 55.3847 32.0261 55.3847 32.0259C55.3847 32.0258 55.3847 32.0256 55.3847 32.0255C55.3847 32.0253 55.3847 32.0252 55.3847 32.0251C55.3847 32.0249 55.3847 32.0248 55.3847 32.0246C55.3847 32.0245 55.3847 32.0243 55.3847 32.0242C55.3847 32.024 55.3847 32.0239 55.3847 32.0237C55.3847 32.0236 55.3847 32.0234 55.3847 32.0233C55.3847 32.0231 55.3847 32.023 55.3847 32.0228C55.3847 32.0227 55.3847 32.0225 55.3847 32.0224C55.3847 32.0222 55.3847 32.0221 55.3847 32.0219C55.3847 32.0218 55.3847 32.0217 55.3847 32.0215H54.3847C54.3847 32.0217 54.3847 32.0218 54.3847 32.0219C54.3847 32.0221 54.3847 32.0222 54.3847 32.0224C54.3847 32.0225 54.3847 32.0227 54.3847 32.0228C54.3847 32.023 54.3847 32.0231 54.3847 32.0233C54.3847 32.0234 54.3847 32.0236 54.3847 32.0237C54.3847 32.0239 54.3847 32.024 54.3847 32.0242C54.3847 32.0243 54.3847 32.0245 54.3847 32.0246C54.3847 32.0248 54.3847 32.0249 54.3847 32.0251C54.3847 32.0252 54.3847 32.0253 54.3847 32.0255C54.3847 32.0256 54.3847 32.0258 54.3847 32.0259C54.3847 32.0261 54.3847 32.0262 54.3847 32.0264C54.3847 32.0265 54.3847 32.0266 54.3847 32.0268C54.3847 32.0269 54.3847 32.0271 54.3847 32.0272C54.3847 32.0274 54.3847 32.0275 54.3847 32.0276C54.3847 32.0278 54.3847 32.0279 54.3847 32.0281C54.3847 32.0282 54.3847 32.0284 54.3847 32.0285C54.3847 32.0286 54.3847 32.0288 54.3847 32.0289C54.3847 32.0291 54.3847 32.0292 54.3847 32.0293C54.3847 32.0295 54.3847 32.0296 54.3847 32.0298C54.3847 32.0299 54.3847 32.03 54.3847 32.0302C54.3847 32.0303 54.3847 32.0304 54.3847 32.0306C54.3847 32.0307 54.3847 32.0309 54.3847 32.031C54.3847 32.0311 54.3847 32.0313 54.3847 32.0314C54.3847 32.0315 54.3847 32.0317 54.3847 32.0318C54.3847 32.032 54.3847 32.0321 54.3847 32.0322C54.3847 32.0324 54.3847 32.0325 54.3847 32.0326C54.3847 32.0328 54.3847 32.0329 54.3847 32.033C54.3847 32.0332 54.3847 32.0333 54.3847 32.0334C54.3847 32.0336 54.3847 32.0337 54.3847 32.0338C54.3847 32.034 54.3847 32.0341 54.3847 32.0342C54.3847 32.0344 54.3847 32.0345 54.3847 32.0346C54.3847 32.0348 54.3847 32.0349 54.3847 32.035C54.3847 32.0352 54.3847 32.0353 54.3847 32.0354C54.3847 32.0356 54.3847 32.0357 54.3847 32.0358C54.3847 32.036 54.3847 32.0361 54.3847 32.0362C54.3847 32.0363 54.3847 32.0365 54.3847 32.0366C54.3847 32.0367 54.3847 32.0369 54.3847 32.037C54.3847 32.0371 54.3847 32.0372 54.3847 32.0374C54.3847 32.0375 54.3847 32.0376 54.3847 32.0378C54.3847 32.0379 54.3847 32.038 54.3847 32.0381C54.3847 32.0383 54.3847 32.0384 54.3847 32.0385C54.3847 32.0386 54.3847 32.0388 54.3847 32.0389C54.3847 32.039 54.3847 32.0392 54.3847 32.0393C54.3847 32.0394 54.3847 32.0395 54.3847 32.0396C54.3847 32.0398 54.3847 32.0399 54.3847 32.04C54.3847 32.0401 54.3847 32.0403 54.3847 32.0404C54.3847 32.0405 54.3847 32.0406 54.3847 32.0408C54.3847 32.0409 54.3847 32.041 54.3847 32.0411C54.3847 32.0413 54.3847 32.0414 54.3847 32.0415C54.3847 32.0416 54.3847 32.0417 54.3847 32.0419C54.3847 32.042 54.3847 32.0421 54.3847 32.0422C54.3847 32.0423 54.3847 32.0425 54.3847 32.0426C54.3847 32.0427 54.3847 32.0428 54.3847 32.0429C54.3847 32.0431 54.3847 32.0432 54.3847 32.0433C54.3847 32.0434 54.3847 32.0435 54.3847 32.0437C54.3847 32.0438 54.3847 32.0439 54.3847 32.044C54.3847 32.0441 54.3847 32.0442 54.3847 32.0444C54.3847 32.0445 54.3847 32.0446 54.3847 32.0447C54.3847 32.0448 54.3847 32.0449 54.3847 32.0451C54.3847 32.0452 54.3847 32.0453 54.3847 32.0454C54.3847 32.0455 54.3847 32.0456 54.3847 32.0457C54.3847 32.0459 54.3847 32.046 54.3847 32.0461C54.3847 32.0462 54.3847 32.0463 54.3847 32.0464C54.3847 32.0465 54.3847 32.0467 54.3847 32.0468C54.3847 32.0469 54.3847 32.047 54.3847 32.0471C54.3847 32.0472 54.3847 32.0473 54.3847 32.0474C54.3847 32.0476 54.3847 32.0477 54.3847 32.0478C54.3847 32.0479 54.3847 32.048 54.3847 32.0481C54.3847 32.0482 54.3847 32.0483 54.3847 32.0484C54.3847 32.0486 54.3847 32.0487 54.3847 32.0488C54.3847 32.0489 54.3847 32.049 54.3847 32.0491C54.3847 32.0492 54.3847 32.0493 54.3847 32.0494C54.3847 32.0495 54.3847 32.0496 54.3847 32.0497C54.3847 32.0499 54.3847 32.05 54.3847 32.0501C54.3847 32.0502 54.3847 32.0503 54.3847 32.0504C54.3847 32.0505 54.3847 32.0506 54.3847 32.0507C54.3847 32.0508 54.3847 32.0509 54.3847 32.051C54.3847 32.0511 54.3847 32.0512 54.3847 32.0513C54.3847 32.0514 54.3847 32.0515 54.3847 32.0517C54.3847 32.0518 54.3847 32.0519 54.3847 32.052C54.3847 32.0521 54.3847 32.0522 54.3847 32.0523C54.3847 32.0524 54.3847 32.0525 54.3847 32.0526C54.3847 32.0527 54.3847 32.0528 54.3847 32.0529C54.3847 32.053 54.3847 32.0531 54.3847 32.0532C54.3847 32.0533 54.3847 32.0534 54.3847 32.0535C54.3847 32.0536 54.3847 32.0537 54.3847 32.0538C54.3847 32.0539 54.3847 32.054 54.3847 32.0541C54.3847 32.0542 54.3847 32.0543 54.3847 32.0544C54.3847 32.0545 54.3847 32.0546 54.3847 32.0547C54.3847 32.0548 54.3847 32.0549 54.3847 32.055C54.3847 32.0551 54.3847 32.0552 54.3847 32.0553C54.3847 32.0554 54.3847 32.0555 54.3847 32.0556C54.3847 32.0557 54.3847 32.0558 54.3847 32.0558C54.3847 32.0559 54.3847 32.056 54.3847 32.0561C54.3847 32.0562 54.3847 32.0563 54.3847 32.0564C54.3847 32.0565 54.3847 32.0566 54.3847 32.0567C54.3847 32.0568 54.3847 32.0569 54.3847 32.057C54.3847 32.0571 54.3847 32.0572 54.3847 32.0573C54.3847 32.0574 54.3847 32.0574 54.3847 32.0575C54.3847 32.0576 54.3847 32.0577 54.3847 32.0578C54.3847 32.0579 54.3847 32.058 54.3847 32.0581C54.3847 32.0582 54.3847 32.0583 54.3847 32.0584C54.3847 32.0585 54.3847 32.0585 54.3847 32.0586C54.3847 32.0587 54.3847 32.0588 54.3847 32.0589C54.3847 32.059 54.3847 32.0591 54.3847 32.0592C54.3847 32.0593 54.3847 32.0593 54.3847 32.0594C54.3847 32.0595 54.3847 32.0596 54.3847 32.0597C54.3847 32.0598 54.3847 32.0599 54.3847 32.06C54.3847 32.06 54.3847 32.0601 54.3847 32.0602C54.3847 32.0603 54.3847 32.0604 54.3847 32.0605C54.3847 32.0606 54.3847 32.0606 54.3847 32.0607C54.3847 32.0608 54.3847 32.0609 54.3847 32.061C54.3847 32.0611 54.3847 32.0612 54.3847 32.0612C54.3847 32.0613 54.3847 32.0614 54.3847 32.0615C54.3847 32.0616 54.3847 32.0617 54.3847 32.0617C54.3847 32.0618 54.3847 32.0619 54.3847 32.062C54.3847 32.0621 54.3847 32.0622 54.3847 32.0622C54.3847 32.0623 54.3847 32.0624 54.3847 32.0625C54.3847 32.0626 54.3847 32.0626 54.3847 32.0627C54.3847 32.0628 54.3847 32.0629 54.3847 32.063C54.3847 32.063 54.3847 32.0631 54.3847 32.0632C54.3847 32.0633 54.3847 32.0634 54.3847 32.0634C54.3847 32.0635 54.3847 32.0636 54.3847 32.0637C54.3847 32.0638 54.3847 32.0638 54.3847 32.0639C54.3847 32.064 54.3847 32.0641 54.3847 32.0641C54.3847 32.0642 54.3847 32.0643 54.3847 32.0644C54.3847 32.0644 54.3847 32.0645 54.3847 32.0646C54.3847 32.0647 54.3847 32.0647 54.3847 32.0648C54.3847 32.0649 54.3847 32.065 54.3847 32.065C54.3847 32.0651 54.3847 32.0652 54.3847 32.0653C54.3847 32.0653 54.3847 32.0654 54.3847 32.0655C54.3847 32.0656 54.3847 32.0656 54.3847 32.0657C54.3847 32.0658 54.3847 32.0659 54.3847 32.0659C54.3847 32.066 54.3847 32.0661 54.3847 32.0661C54.3847 32.0662 54.3847 32.0663 54.3847 32.0664C54.3847 32.0664 54.3847 32.0665 54.3847 32.0666C54.3847 32.0666 54.3847 32.0667 54.3847 32.0668C54.3847 32.0669 54.3847 32.0669 54.3847 32.067C54.3847 32.0671 54.3847 32.0671 54.3847 32.0672C54.3847 32.0673 54.3847 32.0673 54.3847 32.0674C54.3847 32.0675 54.3847 32.0675 54.3847 32.0676C54.3847 32.0677 54.3847 32.0677 54.3847 32.0678C54.3847 32.0679 54.3847 32.0679 54.3847 32.068C54.3847 32.0681 54.3847 32.0681 54.3847 32.0682C54.3847 32.0683 54.3847 32.0683 54.3847 32.0684C54.3847 32.0685 54.3847 32.0685 54.3847 32.0686C54.3847 32.0687 54.3847 32.0687 54.3847 32.0688C54.3847 32.0689 54.3847 32.0689 54.3847 32.069C54.3847 32.069 54.3847 32.0691 54.3847 32.0692C54.3847 32.0692 54.3847 32.0693 54.3847 32.0694C54.3847 32.0694 54.3847 32.0695 54.3847 32.0695C54.3847 32.0696 54.3847 32.0697 54.3847 32.0697C54.3847 32.0698 54.3847 32.0699 54.3847 32.0699C54.3847 32.07 54.3847 32.07 54.3847 32.0701C54.3847 32.0702 54.3847 32.0702 54.3847 32.0703C54.3847 32.0703 54.3847 32.0704 54.3847 32.0705C54.3847 32.0705 54.3847 32.0706 54.3847 32.0706C54.3847 32.0707 54.3847 32.0707 54.3847 32.0708C54.3847 32.0709 54.3847 32.0709 54.3847 32.071C54.3847 32.071 54.3847 32.0711 54.3847 32.0711C54.3847 32.0712 54.3847 32.0713 54.3847 32.0713C54.3847 32.0714 54.3847 32.0714 54.3847 32.0715C54.3847 32.0715 54.3847 32.0716 54.3847 32.0716C54.3847 32.0717 54.3847 32.0718 54.3847 32.0718C54.3847 32.0719 54.3847 32.0719 54.3847 32.072C54.3847 32.072 54.3847 32.0721 54.3847 32.0721C54.3847 32.0722 54.3847 32.0722 54.3847 32.0723C54.3847 32.0723 54.3847 32.0724 54.3847 32.0724C54.3847 32.0725 54.3847 32.0725 54.3847 32.0726C54.3847 32.0726 54.3847 32.0727 54.3847 32.0727C54.3847 32.0728 54.3847 32.0728 54.3847 32.0729C54.3847 32.0729 54.3847 32.073 54.3847 32.073C54.3847 32.0731 54.3847 32.0731 54.3847 32.0732C54.3847 32.0732 54.3847 32.0733 54.3847 32.0733C54.3847 32.0734 54.3847 32.0734 54.3847 32.0735C54.3847 32.0735 54.3847 32.0736 54.3847 32.0736C54.3847 32.0737 54.3847 32.0737 54.3847 32.0738C54.3847 32.0738 54.3847 32.0739 54.3847 32.0739C54.3847 32.0739 54.3847 32.074 54.3847 32.074C54.3847 32.0741 54.3847 32.0741 54.3847 32.0742C54.3847 32.0742 54.3847 32.0743 54.3847 32.0743C54.3847 32.0744 54.3847 32.0744 54.3847 32.0744C54.3847 32.0745 54.3847 32.0745 54.3847 32.0746C54.3847 32.0746 54.3847 32.0747 54.3847 32.0747C54.3847 32.0747 54.3847 32.0748 54.3847 32.0748C54.3847 32.0749 54.3847 32.0749 54.3847 32.0749C54.3847 32.075 54.3847 32.075 54.3847 32.0751C54.3847 32.0751 54.3847 32.0751 54.3847 32.0752C54.3847 32.0752 54.3847 32.0753 54.3847 32.0753C54.3847 32.0753 54.3847 32.0754 54.3847 32.0754C54.3847 32.0755 54.3847 32.0755 54.3847 32.0755C54.3847 32.0756 54.3847 32.0756 54.3847 32.0757C54.3847 32.0757 54.3847 32.0757 54.3847 32.0758C54.3847 32.0758 54.3847 32.0758 54.3847 32.0759C54.3847 32.0759 54.3847 32.076 54.3847 32.076C54.3847 32.076 54.3847 32.0761 54.3847 32.0761C54.3847 32.0761 54.3847 32.0762 54.3847 32.0762C54.3847 32.0762 54.3847 32.0763 54.3847 32.0763C54.3847 32.0763 54.3847 32.0764 54.3847 32.0764C54.3847 32.0764 54.3847 32.0765 54.3847 32.0765C54.3847 32.0765 54.3847 32.0766 54.3847 32.0766C54.3847 32.0766 54.3847 32.0767 54.3847 32.0767C54.3847 32.0767 54.3847 32.0768 54.3847 32.0768C54.3847 32.0768 54.3847 32.0769 54.3847 32.0769C54.3847 32.0769 54.3847 32.0769 54.3847 32.077C54.3847 32.077 54.3847 32.077 54.3847 32.0771C54.3847 32.0771 54.3847 32.0771 54.3847 32.0772C54.3847 32.0772 54.3847 32.0772 54.3847 32.0772C54.3847 32.0773 54.3847 32.0773 54.3847 32.0773C54.3847 32.0773 54.3847 32.0774 54.3847 32.0774C54.3847 32.0774 54.3847 32.0775 54.3847 32.0775C54.3847 32.0775 54.3847 32.0775 54.3847 32.0776C54.3847 32.0776 54.3847 32.0776 54.3847 32.0776C54.3847 32.0777 54.3847 32.0777 54.3847 32.0777C54.3847 32.0777 54.3847 32.0778 54.3847 32.0778C54.3847 32.0778 54.3847 32.0778 54.3847 32.0779C54.3847 32.0779 54.3847 32.0779 54.3847 32.0779C54.3847 32.0779 54.3847 32.078 54.3847 32.078C54.3847 32.078 54.3847 32.078 54.3847 32.0781C54.3847 32.0781 54.3847 32.0781 54.3847 32.0781C54.3847 32.0781 54.3847 32.0782 54.3847 32.0782C54.3847 32.0782 54.3847 32.0782 54.3847 32.0782C54.3847 32.0783 54.3847 32.0783 54.3847 32.0783C54.3847 32.0783 54.3847 32.0783 54.3847 32.0784C54.3847 32.0784 54.3847 32.0784 54.3847 32.0784C54.3847 32.0784 54.3847 32.0785 54.3847 32.0785C54.3847 32.0785 54.3847 32.0785 54.3847 32.0785C54.3847 32.0785 54.3847 32.0786 54.3847 32.0786C54.3847 32.0786 54.3847 32.0786 54.3847 32.0786C54.3847 32.0786 54.3847 32.0787 54.3847 32.0787C54.3847 32.0787 54.3847 32.0787 54.3847 32.0787C54.3847 32.0787 54.3847 32.0787 54.3847 32.0788C54.3847 32.0788 54.3847 32.0788 54.3847 32.0788C54.3847 32.0788 54.3847 32.0788 54.3847 32.0788C54.3847 32.0789 54.3847 32.0789 54.3847 32.0789C54.3847 32.0789 54.3847 32.0789 54.3847 32.0789C54.3847 32.0789 54.3847 32.0789 54.3847 32.0789C54.3847 32.079 54.3847 32.079 54.3847 32.079C54.3847 32.079 54.3847 32.079 54.3847 32.079C54.3847 32.079 54.3847 32.079 54.3847 32.079C54.3847 32.0791 54.3847 32.0791 54.3847 32.0791C54.3847 32.0791 54.3847 32.0791 54.3847 32.0791C54.3847 32.0791 54.3847 32.0791 54.3847 32.0791C54.3847 32.0791 54.3847 32.0791 54.3847 32.0791C54.3847 32.0791 54.3847 32.0792 54.3847 32.0792C54.3847 32.0792 54.3847 32.0792 54.3847 32.0792C54.3847 32.0792 54.3847 32.0792 54.3847 32.0792C54.3847 32.0792 54.3847 32.0792 54.3847 32.0792C54.3847 32.0792 54.3847 32.0792 54.3847 32.0792C54.3847 32.0792 54.3847 32.0792 54.3847 32.0792C54.3847 32.0792 54.3847 32.0792 54.3847 32.0792C54.3847 32.0792 54.3847 32.0793 54.3847 32.0793C54.3847 32.0793 54.3847 32.0793 54.3847 32.0793C54.3847 32.0793 54.3847 32.0793 54.3847 32.0793C54.3847 32.0793 54.3847 32.0793 54.3847 32.0793C54.3847 32.0793 54.3847 32.0793 54.8847 32.0793C55.3847 32.0793 55.3847 32.0793 55.3847 32.0793C55.3847 32.0793 55.3847 32.0793 55.3847 32.0793C55.3847 32.0793 55.3847 32.0793 55.3847 32.0793C55.3847 32.0793 55.3847 32.0793 55.3847 32.0793C55.3847 32.0793 55.3847 32.0792 55.3847 32.0792C55.3847 32.0792 55.3847 32.0792 55.3847 32.0792C55.3847 32.0792 55.3847 32.0792 55.3847 32.0792C55.3847 32.0792 55.3847 32.0792 55.3847 32.0792C55.3847 32.0792 55.3847 32.0792 55.3847 32.0792C55.3847 32.0792 55.3847 32.0792 55.3847 32.0792C55.3847 32.0792 55.3847 32.0792 55.3847 32.0792C55.3847 32.0792 55.3847 32.0791 55.3847 32.0791C55.3847 32.0791 55.3847 32.0791 55.3847 32.0791C55.3847 32.0791 55.3847 32.0791 55.3847 32.0791C55.3847 32.0791 55.3847 32.0791 55.3847 32.0791C55.3847 32.0791 55.3847 32.0791 55.3847 32.079C55.3847 32.079 55.3847 32.079 55.3847 32.079C55.3847 32.079 55.3847 32.079 55.3847 32.079C55.3847 32.079 55.3847 32.079 55.3847 32.0789C55.3847 32.0789 55.3847 32.0789 55.3847 32.0789C55.3847 32.0789 55.3847 32.0789 55.3847 32.0789C55.3847 32.0789 55.3847 32.0789 55.3847 32.0788C55.3847 32.0788 55.3847 32.0788 55.3847 32.0788C55.3847 32.0788 55.3847 32.0788 55.3847 32.0788C55.3847 32.0787 55.3847 32.0787 55.3847 32.0787C55.3847 32.0787 55.3847 32.0787 55.3847 32.0787C55.3847 32.0787 55.3847 32.0786 55.3847 32.0786C55.3847 32.0786 55.3847 32.0786 55.3847 32.0786C55.3847 32.0786 55.3847 32.0785 55.3847 32.0785C55.3847 32.0785 55.3847 32.0785 55.3847 32.0785C55.3847 32.0785 55.3847 32.0784 55.3847 32.0784C55.3847 32.0784 55.3847 32.0784 55.3847 32.0784C55.3847 32.0783 55.3847 32.0783 55.3847 32.0783C55.3847 32.0783 55.3847 32.0783 55.3847 32.0782C55.3847 32.0782 55.3847 32.0782 55.3847 32.0782C55.3847 32.0782 55.3847 32.0781 55.3847 32.0781C55.3847 32.0781 55.3847 32.0781 55.3847 32.0781C55.3847 32.078 55.3847 32.078 55.3847 32.078C55.3847 32.078 55.3847 32.0779 55.3847 32.0779C55.3847 32.0779 55.3847 32.0779 55.3847 32.0779C55.3847 32.0778 55.3847 32.0778 55.3847 32.0778C55.3847 32.0778 55.3847 32.0777 55.3847 32.0777C55.3847 32.0777 55.3847 32.0777 55.3847 32.0776C55.3847 32.0776 55.3847 32.0776 55.3847 32.0776C55.3847 32.0775 55.3847 32.0775 55.3847 32.0775C55.3847 32.0775 55.3847 32.0774 55.3847 32.0774C55.3847 32.0774 55.3847 32.0773 55.3847 32.0773C55.3847 32.0773 55.3847 32.0773 55.3847 32.0772C55.3847 32.0772 55.3847 32.0772 55.3847 32.0772C55.3847 32.0771 55.3847 32.0771 55.3847 32.0771C55.3847 32.077 55.3847 32.077 55.3847 32.077C55.3847 32.0769 55.3847 32.0769 55.3847 32.0769C55.3847 32.0769 55.3847 32.0768 55.3847 32.0768C55.3847 32.0768 55.3847 32.0767 55.3847 32.0767C55.3847 32.0767 55.3847 32.0766 55.3847 32.0766C55.3847 32.0766 55.3847 32.0765 55.3847 32.0765C55.3847 32.0765 55.3847 32.0764 55.3847 32.0764C55.3847 32.0764 55.3847 32.0763 55.3847 32.0763C55.3847 32.0763 55.3847 32.0762 55.3847 32.0762C55.3847 32.0762 55.3847 32.0761 55.3847 32.0761C55.3847 32.0761 55.3847 32.076 55.3847 32.076C55.3847 32.076 55.3847 32.0759 55.3847 32.0759C55.3847 32.0758 55.3847 32.0758 55.3847 32.0758C55.3847 32.0757 55.3847 32.0757 55.3847 32.0757C55.3847 32.0756 55.3847 32.0756 55.3847 32.0755C55.3847 32.0755 55.3847 32.0755 55.3847 32.0754C55.3847 32.0754 55.3847 32.0753 55.3847 32.0753C55.3847 32.0753 55.3847 32.0752 55.3847 32.0752C55.3847 32.0751 55.3847 32.0751 55.3847 32.0751C55.3847 32.075 55.3847 32.075 55.3847 32.0749C55.3847 32.0749 55.3847 32.0749 55.3847 32.0748C55.3847 32.0748 55.3847 32.0747 55.3847 32.0747C55.3847 32.0747 55.3847 32.0746 55.3847 32.0746C55.3847 32.0745 55.3847 32.0745 55.3847 32.0744C55.3847 32.0744 55.3847 32.0744 55.3847 32.0743C55.3847 32.0743 55.3847 32.0742 55.3847 32.0742C55.3847 32.0741 55.3847 32.0741 55.3847 32.074C55.3847 32.074 55.3847 32.0739 55.3847 32.0739C55.3847 32.0739 55.3847 32.0738 55.3847 32.0738C55.3847 32.0737 55.3847 32.0737 55.3847 32.0736C55.3847 32.0736 55.3847 32.0735 55.3847 32.0735C55.3847 32.0734 55.3847 32.0734 55.3847 32.0733C55.3847 32.0733 55.3847 32.0732 55.3847 32.0732C55.3847 32.0731 55.3847 32.0731 55.3847 32.073C55.3847 32.073 55.3847 32.0729 55.3847 32.0729C55.3847 32.0728 55.3847 32.0728 55.3847 32.0727C55.3847 32.0727 55.3847 32.0726 55.3847 32.0726C55.3847 32.0725 55.3847 32.0725 55.3847 32.0724C55.3847 32.0724 55.3847 32.0723 55.3847 32.0723C55.3847 32.0722 55.3847 32.0722 55.3847 32.0721C55.3847 32.0721 55.3847 32.072 55.3847 32.072C55.3847 32.0719 55.3847 32.0719 55.3847 32.0718C55.3847 32.0718 55.3847 32.0717 55.3847 32.0716C55.3847 32.0716 55.3847 32.0715 55.3847 32.0715C55.3847 32.0714 55.3847 32.0714 55.3847 32.0713C55.3847 32.0713 55.3847 32.0712 55.3847 32.0711C55.3847 32.0711 55.3847 32.071 55.3847 32.071C55.3847 32.0709 55.3847 32.0709 55.3847 32.0708C55.3847 32.0707 55.3847 32.0707 55.3847 32.0706C55.3847 32.0706 55.3847 32.0705 55.3847 32.0705C55.3847 32.0704 55.3847 32.0703 55.3847 32.0703C55.3847 32.0702 55.3847 32.0702 55.3847 32.0701C55.3847 32.07 55.3847 32.07 55.3847 32.0699C55.3847 32.0699 55.3847 32.0698 55.3847 32.0697C55.3847 32.0697 55.3847 32.0696 55.3847 32.0695C55.3847 32.0695 55.3847 32.0694 55.3847 32.0694C55.3847 32.0693 55.3847 32.0692 55.3847 32.0692C55.3847 32.0691 55.3847 32.069 55.3847 32.069C55.3847 32.0689 55.3847 32.0689 55.3847 32.0688C55.3847 32.0687 55.3847 32.0687 55.3847 32.0686C55.3847 32.0685 55.3847 32.0685 55.3847 32.0684C55.3847 32.0683 55.3847 32.0683 55.3847 32.0682C55.3847 32.0681 55.3847 32.0681 55.3847 32.068C55.3847 32.0679 55.3847 32.0679 55.3847 32.0678C55.3847 32.0677 55.3847 32.0677 55.3847 32.0676C55.3847 32.0675 55.3847 32.0675 55.3847 32.0674C55.3847 32.0673 55.3847 32.0673 55.3847 32.0672C55.3847 32.0671 55.3847 32.0671 55.3847 32.067C55.3847 32.0669 55.3847 32.0669 55.3847 32.0668C55.3847 32.0667 55.3847 32.0666 55.3847 32.0666C55.3847 32.0665 55.3847 32.0664 55.3847 32.0664C55.3847 32.0663 55.3847 32.0662 55.3847 32.0661C55.3847 32.0661 55.3847 32.066 55.3847 32.0659C55.3847 32.0659 55.3847 32.0658 55.3847 32.0657C55.3847 32.0656 55.3847 32.0656 55.3847 32.0655C55.3847 32.0654 55.3847 32.0653 55.3847 32.0653C55.3847 32.0652 55.3847 32.0651 55.3847 32.065C55.3847 32.065 55.3847 32.0649 55.3847 32.0648C55.3847 32.0647 55.3847 32.0647 55.3847 32.0646C55.3847 32.0645 55.3847 32.0644 55.3847 32.0644C55.3847 32.0643 55.3847 32.0642 55.3847 32.0641C55.3847 32.0641 55.3847 32.064 55.3847 32.0639C55.3847 32.0638 55.3847 32.0638 55.3847 32.0637C55.3847 32.0636 55.3847 32.0635 55.3847 32.0634C55.3847 32.0634 55.3847 32.0633 55.3847 32.0632C55.3847 32.0631 55.3847 32.063 55.3847 32.063C55.3847 32.0629 55.3847 32.0628 55.3847 32.0627C55.3847 32.0626 55.3847 32.0626 55.3847 32.0625C55.3847 32.0624 55.3847 32.0623 55.3847 32.0622C55.3847 32.0622 55.3847 32.0621 55.3847 32.062C55.3847 32.0619 55.3847 32.0618 55.3847 32.0617C55.3847 32.0617 55.3847 32.0616 55.3847 32.0615C55.3847 32.0614 55.3847 32.0613 55.3847 32.0612C55.3847 32.0612 55.3847 32.0611 55.3847 32.061C55.3847 32.0609 55.3847 32.0608 55.3847 32.0607C55.3847 32.0606 55.3847 32.0606 55.3847 32.0605C55.3847 32.0604 55.3847 32.0603 55.3847 32.0602C55.3847 32.0601 55.3847 32.06 55.3847 32.06C55.3847 32.0599 55.3847 32.0598 55.3847 32.0597C55.3847 32.0596 55.3847 32.0595 55.3847 32.0594C55.3847 32.0593 55.3847 32.0593 55.3847 32.0592C55.3847 32.0591 55.3847 32.059 55.3847 32.0589C55.3847 32.0588 55.3847 32.0587 55.3847 32.0586C55.3847 32.0585 55.3847 32.0585 55.3847 32.0584C55.3847 32.0583 55.3847 32.0582 55.3847 32.0581C55.3847 32.058 55.3847 32.0579 55.3847 32.0578C55.3847 32.0577 55.3847 32.0576 55.3847 32.0575C55.3847 32.0574 55.3847 32.0574 55.3847 32.0573C55.3847 32.0572 55.3847 32.0571 55.3847 32.057C55.3847 32.0569 55.3847 32.0568 55.3847 32.0567C55.3847 32.0566 55.3847 32.0565 55.3847 32.0564C55.3847 32.0563 55.3847 32.0562 55.3847 32.0561C55.3847 32.056 55.3847 32.0559 55.3847 32.0558C55.3847 32.0558 55.3847 32.0557 55.3847 32.0556C55.3847 32.0555 55.3847 32.0554 55.3847 32.0553C55.3847 32.0552 55.3847 32.0551 55.3847 32.055C55.3847 32.0549 55.3847 32.0548 55.3847 32.0547C55.3847 32.0546 55.3847 32.0545 55.3847 32.0544C55.3847 32.0543 55.3847 32.0542 55.3847 32.0541C55.3847 32.054 55.3847 32.0539 55.3847 32.0538C55.3847 32.0537 55.3847 32.0536 55.3847 32.0535C55.3847 32.0534 55.3847 32.0533 55.3847 32.0532C55.3847 32.0531 55.3847 32.053 55.3847 32.0529C55.3847 32.0528 55.3847 32.0527 55.3847 32.0526C55.3847 32.0525 55.3847 32.0524 55.3847 32.0523C55.3847 32.0522 55.3847 32.0521 55.3847 32.052C55.3847 32.0519 55.3847 32.0518 55.3847 32.0517C55.3847 32.0515 55.3847 32.0514 55.3847 32.0513C55.3847 32.0512 55.3847 32.0511 55.3847 32.051C55.3847 32.0509 55.3847 32.0508 55.3847 32.0507C55.3847 32.0506 55.3847 32.0505 55.3847 32.0504C55.3847 32.0503 55.3847 32.0502 55.3847 32.0501C55.3847 32.05 55.3847 32.0499 55.3847 32.0497C55.3847 32.0496 55.3847 32.0495 55.3847 32.0494C55.3847 32.0493 55.3847 32.0492 55.3847 32.0491C55.3847 32.049 55.3847 32.0489 55.3847 32.0488C55.3847 32.0487 55.3847 32.0486 55.3847 32.0484C55.3847 32.0483 55.3847 32.0482 55.3847 32.0481C55.3847 32.048 55.3847 32.0479 55.3847 32.0478C55.3847 32.0477 55.3847 32.0476 55.3847 32.0474C55.3847 32.0473 55.3847 32.0472 55.3847 32.0471C55.3847 32.047 55.3847 32.0469 55.3847 32.0468C55.3847 32.0467 55.3847 32.0465 55.3847 32.0464C55.3847 32.0463 55.3847 32.0462 55.3847 32.0461C55.3847 32.046 55.3847 32.0459 55.3847 32.0457C55.3847 32.0456 55.3847 32.0455 55.3847 32.0454C55.3847 32.0453 55.3847 32.0452 55.3847 32.0451C55.3847 32.0449 55.3847 32.0448 55.3847 32.0447C55.3847 32.0446 55.3847 32.0445 55.3847 32.0444C55.3847 32.0442 55.3847 32.0441 55.3847 32.044C55.3847 32.0439 55.3847 32.0438 55.3847 32.0437C55.3847 32.0435 55.3847 32.0434 55.3847 32.0433C55.3847 32.0432 55.3847 32.0431 55.3847 32.0429C55.3847 32.0428 55.3847 32.0427 55.3847 32.0426C55.3847 32.0425 55.3847 32.0423 55.3847 32.0422C55.3847 32.0421 55.3847 32.042 55.3847 32.0419C55.3847 32.0417 55.3847 32.0416 55.3847 32.0415C55.3847 32.0414 55.3847 32.0413 55.3847 32.0411C55.3847 32.041 55.3847 32.0409 55.3847 32.0408C55.3847 32.0406 55.3847 32.0405 55.3847 32.0404C55.3847 32.0403 55.3847 32.0401 55.3847 32.04C55.3847 32.0399 55.3847 32.0398 55.3847 32.0396C55.3847 32.0395 55.3847 32.0394 55.3847 32.0393C55.3847 32.0392 55.3847 32.039 55.3847 32.0389C55.3847 32.0388 55.3847 32.0386 55.3847 32.0385C55.3847 32.0384 55.3847 32.0383 55.3847 32.0381C55.3847 32.038 55.3847 32.0379 55.3847 32.0378C55.3847 32.0376 55.3847 32.0375 55.3847 32.0374C55.3847 32.0372 55.3847 32.0371 55.3847 32.037C55.3847 32.0369 55.3847 32.0367 55.3847 32.0366C55.3847 32.0365 55.3847 32.0363 55.3847 32.0362C55.3847 32.0361 55.3847 32.036 55.3847 32.0358C55.3847 32.0357 55.3847 32.0356 55.3847 32.0354C55.3847 32.0353 55.3847 32.0352 55.3847 32.035C55.3847 32.0349 55.3847 32.0348 55.3847 32.0346C55.3847 32.0345 55.3847 32.0344 55.3847 32.0342C55.3847 32.0341 55.3847 32.034 55.3847 32.0338C55.3847 32.0337 55.3847 32.0336 55.3847 32.0334C55.3847 32.0333 55.3847 32.0332 55.3847 32.033C55.3847 32.0329 55.3847 32.0328 55.3847 32.0326C55.3847 32.0325 55.3847 32.0324 55.3847 32.0322C55.3847 32.0321 55.3847 32.032 55.3847 32.0318C55.3847 32.0317 55.3847 32.0315 55.3847 32.0314C55.3847 32.0313 55.3847 32.0311 55.3847 32.031C55.3847 32.0309 55.3847 32.0307 55.3847 32.0306C55.3847 32.0304 55.3847 32.0303 55.3847 32.0302C55.3847 32.03 55.3847 32.0299 55.3847 32.0298C55.3847 32.0296 55.3847 32.0295 55.3847 32.0293C55.3847 32.0292 55.3847 32.0291 55.3847 32.0289C55.3847 32.0288 55.3847 32.0286 55.3847 32.0285C55.3847 32.0284 55.3847 32.0282 55.3847 32.0281C55.3847 32.0279 55.3847 32.0278 55.3847 32.0276C55.3847 32.0275 55.3847 32.0274 55.3847 32.0272C55.3847 32.0271 55.3847 32.0269 55.3847 32.0268C55.3847 32.0266 55.3847 32.0265 55.3847 32.0264C55.3847 32.0262 55.3847 32.0261 55.3847 32.0259C55.3847 32.0258 55.3847 32.0256 55.3847 32.0255C55.3847 32.0253 55.3847 32.0252 55.3847 32.0251C55.3847 32.0249 55.3847 32.0248 55.3847 32.0246C55.3847 32.0245 55.3847 32.0243 55.3847 32.0242C55.3847 32.024 55.3847 32.0239 55.3847 32.0237C55.3847 32.0236 55.3847 32.0234 55.3847 32.0233C55.3847 32.0231 55.3847 32.023 55.3847 32.0228C55.3847 32.0227 55.3847 32.0225 55.3847 32.0224C55.3847 32.0222 55.3847 32.0221 55.3847 32.0219C55.3847 32.0218 55.3847 32.0217 55.3847 32.0215H54.3847ZM54.8847 31.5215H54.8731V32.5215H54.8847V31.5215ZM50.6677 43.1904H42.7191V44.1904H50.6677V43.1904ZM43.2006 43.8249C44.1472 40.4359 44.7426 36.6988 44.8594 32.8454L43.8599 32.8151C43.7456 36.5869 43.1626 40.2439 42.2375 43.5559L43.2006 43.8249ZM44.3596 33.3302H53.3597V32.3302H44.3596V33.3302ZM52.8597 32.8302C52.8597 36.56 51.9444 40.1777 50.2249 43.4582L51.1106 43.9225C52.9033 40.5021 53.8597 36.7256 53.8597 32.8302H52.8597ZM41.3211 43.1904H28.5778V44.1904H41.3211V43.1904ZM29.0778 43.6904V32.8302H28.0778V43.6904H29.0778ZM28.5778 33.3302H42.8346V32.3302H28.5778V33.3302ZM42.3346 32.8302C42.3346 36.5921 41.7531 40.2443 40.8391 43.5574L41.8031 43.8233C42.7377 40.4355 43.3346 36.6935 43.3346 32.8302H42.3346ZM27.2274 56.9411C23.8088 56.6145 20.428 54.208 17.7858 49.8989L16.9333 50.4216C19.6749 54.8929 23.2954 57.57 27.1323 57.9365L27.2274 56.9411ZM17.7839 49.8958C16.8693 48.428 16.0673 46.7335 15.503 44.9276L14.5485 45.2259C15.1395 47.117 15.9781 48.8886 16.9351 50.4246L17.7839 49.8958ZM15.0257 45.5768H27.1798V44.5768H15.0257V45.5768ZM26.6798 45.0768V57.4388H27.6798V45.0768H26.6798ZM28.5778 45.5768H40.7319V44.5768H28.5778V45.5768ZM40.2647 44.8986C39.5589 46.7498 38.8807 48.4401 37.9737 49.8958L38.8225 50.4246C39.7871 48.8764 40.4953 47.1008 41.1991 45.2549L40.2647 44.8986ZM37.9719 49.8989C35.3203 54.2232 32.0576 56.7231 28.547 56.9398L28.6086 57.9379C32.5845 57.6924 36.092 54.8778 38.8244 50.4216L37.9719 49.8989ZM29.0778 57.4388V45.0768H28.0778V57.4388H29.0778ZM30.9656 24.471L29.094 27.3593L29.9332 27.9031L31.8048 25.0148L30.9656 24.471ZM29.9662 27.4188L29.2615 25.9169L28.3562 26.3417L29.061 27.8436L29.9662 27.4188ZM29.1604 26.4848L31.2631 24.4052L30.56 23.6942L28.4573 25.7738L29.1604 26.4848ZM30.4372 24.2078C30.5065 24.4156 30.5843 24.5789 30.6924 24.7303C30.7932 24.8714 30.9116 24.9879 31.0201 25.0965L31.7272 24.3894C31.6047 24.2669 31.5498 24.2101 31.5062 24.149C31.4698 24.0982 31.4322 24.0304 31.3859 23.8916L30.4372 24.2078ZM31.3737 25.2429H31.3852V24.2429H31.3737V25.2429ZM27.9749 21.2888C25.5635 20.1247 24.401 18.6823 23.8091 17.219C23.2053 15.7264 23.1745 14.1736 23.1159 12.7075L22.1167 12.7474C22.1736 14.1696 22.2006 15.9095 22.8821 17.5941C23.5754 19.308 24.9258 20.9272 27.5401 22.1893L27.9749 21.2888ZM23.1163 12.7275V11.6877H22.1163V12.7275H23.1163ZM22.7125 12.1783C23.3852 12.0464 23.9731 11.767 24.4142 11.1789L23.6142 10.5789C23.3621 10.9151 23.0258 11.0978 22.5201 11.197L22.7125 12.1783ZM23.918 11.3696C24.6359 11.5103 25.3158 11.3632 25.9529 11.1133L25.5878 10.1824C25.0465 10.3946 24.571 10.4786 24.1104 10.3883L23.918 11.3696ZM25.4181 11.0028C27.1185 12.6901 29.9054 12.7109 31.5086 10.9885L30.7766 10.3072C29.5839 11.5886 27.4492 11.6095 26.1225 10.2929L25.4181 11.0028ZM30.8653 11.0639C31.2803 11.3405 31.7334 11.4945 32.194 11.4945V10.4945C31.9614 10.4945 31.6982 10.4173 31.42 10.2318L30.8653 11.0639ZM31.8404 11.348C32.2653 11.7729 32.8268 12.0406 33.3551 12.1727L33.5977 11.2026C33.2017 11.1036 32.8159 10.9092 32.5475 10.6409L31.8404 11.348ZM32.9797 11.6303C32.7971 13.2127 32.835 14.7644 32.2065 16.4045C31.5961 17.9974 30.3385 19.6769 27.4973 21.3052L27.9946 22.1728C30.9993 20.4507 32.4337 18.6065 33.1403 16.7623C33.829 14.9652 33.8091 13.1665 33.9731 11.745L32.9797 11.6303ZM27.7459 22.239H27.7575V21.239H27.7459V22.239ZM24.5986 24.5209L26.5857 26.4849L27.2887 25.7737L25.3015 23.8096L24.5986 24.5209ZM26.4846 25.9169L25.7798 27.4188L26.6851 27.8436L27.3899 26.3417L26.4846 25.9169ZM26.6521 27.3593L24.7804 24.471L23.9412 25.0148L25.8129 27.9031L26.6521 27.3593ZM24.5844 25.1901C24.9139 25.0254 25.2164 24.7184 25.3881 24.4062L24.5119 23.9243C24.4295 24.0742 24.2698 24.2294 24.1372 24.2957L24.5844 25.1901ZM26.3331 23.2335C26.3755 23.1488 26.4174 23.0852 26.4752 22.9984C26.5329 22.9119 26.6065 22.8022 26.6797 22.6558L25.7852 22.2086C25.7429 22.2934 25.701 22.357 25.6431 22.4437C25.5854 22.5303 25.5118 22.64 25.4386 22.7863L26.3331 23.2335ZM25.9551 22.8483C26.3343 23.1011 26.8435 23.3488 27.2913 23.5727L27.7385 22.6782C27.262 22.44 26.8238 22.2256 26.5098 22.0162L25.9551 22.8483ZM27.2913 23.5727C27.6664 23.7602 28.0594 23.7555 28.4346 23.5769L28.0047 22.674C27.8946 22.7264 27.8255 22.7217 27.7385 22.6782L27.2913 23.5727ZM28.4432 23.5727C28.9423 23.3231 29.4607 22.9452 29.7794 22.7327L29.2247 21.9007C28.8502 22.1504 28.4212 22.4656 27.996 22.6782L28.4432 23.5727ZM29.0548 22.5403C29.1705 22.7716 29.3165 23.0693 29.6106 23.3635L30.3177 22.6564C30.1497 22.4884 30.0647 22.324 29.9493 22.0931L29.0548 22.5403ZM29.6127 22.6543L27.6255 24.6184L28.3285 25.3296L30.3157 23.3655L29.6127 22.6543ZM28.3183 24.6086L26.2156 22.6445L25.533 23.3753L27.6357 25.3394L28.3183 24.6086ZM25.8743 23.5099H25.8859V22.5099H25.8743V23.5099ZM40.7319 30.8283H28.5778V31.8283H40.7319V30.8283ZM29.0778 31.3283V29.1332H28.0778V31.3283H29.0778ZM28.1618 29.4105L28.3928 29.7571L29.2249 29.2024L28.9938 28.8558L28.1618 29.4105ZM28.3616 29.7034C28.5756 30.1313 28.9988 30.3264 29.3981 30.3264V29.3264C29.3551 29.3264 29.3225 29.3161 29.3012 29.3041C29.2822 29.2934 29.2675 29.279 29.2561 29.2562L28.3616 29.7034ZM29.3981 30.3264C29.8225 30.3264 30.1597 30.1161 30.4476 29.8418L29.758 29.1177C29.5607 29.3056 29.4589 29.3264 29.3981 29.3264V30.3264ZM30.5271 29.7443L32.9764 25.8162L32.1278 25.2871L29.6785 29.2152L30.5271 29.7443ZM32.2521 25.9516C32.7623 26.3343 33.439 26.6061 33.842 26.8076L34.2892 25.9132C33.768 25.6525 33.2662 25.4622 32.8521 25.1516L32.2521 25.9516ZM33.8751 26.8227L38.0805 28.5557L38.4615 27.6311L34.2561 25.8981L33.8751 26.8227ZM38.0084 28.5188C38.8309 29.0266 39.7058 30.0833 40.2537 31.5078L41.187 31.1488C40.5795 29.5694 39.5828 28.3155 38.5337 27.6679L38.0084 28.5188ZM40.7203 31.8283H40.7319V30.8283H40.7203V31.8283ZM20.3204 10.6479C20.3204 6.42364 23.8343 2.94499 28.1156 2.94499V1.94499C23.293 1.94499 19.3204 5.86047 19.3204 10.6479H20.3204ZM28.1156 2.94499C32.397 2.94499 35.9109 6.42364 35.9109 10.6479H36.9109C36.9109 5.86047 32.9383 1.94499 28.1156 1.94499V2.94499ZM35.9109 10.6479V25.8982H36.9109V10.6479H35.9109ZM36.6055 25.4377L34.965 24.7445L34.5758 25.6656L36.2163 26.3588L36.6055 25.4377ZM34.965 24.7445C33.4459 24.1026 32.1231 22.8032 31.2288 21.2576L30.3632 21.7584C31.3406 23.4477 32.8137 24.9211 34.5758 25.6656L34.965 24.7445ZM31.106 21.9003C35.9805 18.0489 35.1796 13.4448 35.6089 11.0839L34.625 10.905C34.13 13.6276 34.9698 17.573 30.486 21.1157L31.106 21.9003ZM35.602 11.1157C35.8279 10.2121 34.9422 9.52697 34.0849 9.69506L34.2774 10.6764C34.419 10.6486 34.5209 10.6924 34.577 10.7434C34.6358 10.7969 34.6387 10.8459 34.6319 10.8732L35.602 11.1157ZM34.023 9.71138C34.0034 9.71793 33.9602 9.72442 33.8737 9.68583C33.7845 9.64601 33.6865 9.57314 33.5989 9.48557L32.8918 10.1927C33.0353 10.3362 33.2318 10.4944 33.4661 10.599C33.7031 10.7048 34.0123 10.769 34.3393 10.6601L34.023 9.71138ZM33.6925 9.61551C33.5623 9.35508 33.3295 9.20393 33.1418 9.12144C32.9476 9.03606 32.7318 8.99252 32.5406 8.99252V9.99252C32.592 9.99252 32.6708 10.0067 32.7394 10.0369C32.7716 10.0511 32.792 10.0646 32.8025 10.0732C32.8128 10.0817 32.8066 10.0796 32.7981 10.0627L33.6925 9.61551ZM32.5406 8.99252C32.3389 8.99252 32.2202 8.93875 32.0738 8.79237L31.3667 9.49947C31.6825 9.81523 32.0491 9.99252 32.5406 9.99252V8.99252ZM32.1203 8.84592C31.5408 8.07325 30.5352 8.27186 30.1374 8.86857L30.9694 9.42327C30.9937 9.38689 31.0529 9.3464 31.1263 9.34157C31.1587 9.33944 31.1894 9.34476 31.2179 9.35766C31.2453 9.37008 31.2817 9.39445 31.3203 9.44592L32.1203 8.84592ZM30.129 8.88151C29.3998 10.0519 27.7376 10.0941 26.8731 8.85919L26.0539 9.43265C27.2921 11.2016 29.8354 11.2438 30.9778 9.41033L30.129 8.88151ZM26.9107 8.92231C26.4954 8.09166 25.2648 8.09166 24.8494 8.92231L25.7439 9.36953C25.7615 9.33433 25.804 9.29932 25.8801 9.29932C25.9562 9.29932 25.9987 9.33433 26.0163 9.36953L26.9107 8.92231ZM24.8806 8.86857C24.8569 8.90409 24.7845 8.96291 24.6597 8.98754C24.535 9.01216 24.444 8.98556 24.4071 8.96096L23.8524 9.79301C24.1621 9.99948 24.5391 10.0306 24.8533 9.96861C25.1676 9.9066 25.5053 9.73435 25.7127 9.42327L24.8806 8.86857ZM24.4071 8.96096C24.0997 8.75606 23.7123 8.71598 23.3819 8.80907C23.0398 8.90541 22.7029 9.16405 22.5933 9.60232L23.5635 9.84485C23.5683 9.82546 23.5757 9.81517 23.5849 9.80648C23.5964 9.7957 23.6181 9.78145 23.653 9.77161C23.7327 9.74916 23.8132 9.76685 23.8524 9.79301L24.4071 8.96096ZM22.6041 9.56547C22.599 9.58056 22.5637 9.64248 22.4483 9.70871C22.3371 9.7725 22.217 9.80125 22.1426 9.80125V10.8013C22.4148 10.8013 22.7048 10.7145 22.946 10.5761C23.1829 10.4401 23.4422 10.2132 23.5527 9.8817L22.6041 9.56547ZM22.2638 9.81618C21.8302 9.70777 21.4312 9.87906 21.1666 10.1177C20.9037 10.3547 20.7068 10.7143 20.7068 11.11H21.7068C21.7068 11.0436 21.7467 10.941 21.8362 10.8603C21.9239 10.7812 21.9928 10.7792 22.0213 10.7863L22.2638 9.81618ZM20.7118 11.1807C21.0289 13.4008 20.099 18.6226 24.8787 22.2528L25.4835 21.4564C21.1361 18.1545 22.0778 13.6716 21.7017 11.0393L20.7118 11.1807ZM24.7352 21.6284C23.9774 23.1226 22.6795 24.2043 21.1277 24.86L21.5169 25.7811C23.2463 25.0504 24.7442 23.8215 25.627 22.0807L24.7352 21.6284ZM21.1169 24.8647L19.8345 25.4424L20.2452 26.3541L21.5276 25.7765L21.1169 24.8647ZM20.5398 25.8907L20.3088 10.6403L19.3089 10.6554L19.5399 25.9058L20.5398 25.8907ZM19.8088 11.1479H19.8204V10.1479H19.8088V11.1479ZM17.6849 28.7834L19.5566 27.9747L19.1599 27.0567L17.2883 27.8655L17.6849 28.7834ZM19.5617 27.9724C20.141 27.7143 20.612 27.5136 21.0084 27.3464C21.4024 27.1802 21.7308 27.0438 22.0138 26.9189C22.5918 26.6636 23.0082 26.4441 23.5147 26.069L22.9194 25.2654C22.4901 25.5834 22.1439 25.7683 21.6099 26.0041C21.337 26.1246 21.022 26.2554 20.6198 26.425C20.2201 26.5936 19.7424 26.7972 19.1547 27.059L19.5617 27.9724ZM22.7928 25.9317L25.2421 29.8599L26.0906 29.3308L23.6413 25.4026L22.7928 25.9317ZM25.2663 29.8953C25.5371 30.2563 25.959 30.4511 26.3799 30.4266C26.8175 30.4012 27.2238 30.1384 27.413 29.6655L26.4845 29.2941C26.4603 29.3547 26.431 29.384 26.4097 29.3992C26.3871 29.4153 26.3582 29.4262 26.3219 29.4283C26.246 29.4327 26.1422 29.3964 26.0663 29.2953L25.2663 29.8953ZM27.3648 29.7571L27.5959 29.4105L26.7638 28.8558L26.5327 29.2024L27.3648 29.7571ZM26.6798 29.1332V31.3283H27.6798V29.1332H26.6798ZM27.1798 30.8283H15.0257V31.8283H27.1798V30.8283ZM15.4912 31.5109C15.7701 30.7999 16.1243 30.182 16.5087 29.7081C16.8971 29.2293 17.2937 28.9248 17.6487 28.7933L17.3014 27.8556C16.7206 28.0707 16.1871 28.5172 15.7321 29.0781C15.2731 29.644 14.8705 30.3548 14.5603 31.1457L15.4912 31.5109ZM17.475 28.8244H17.4866V27.8244H17.475V28.8244ZM26.6914 32.8302V43.6904H27.6914V32.8302H26.6914ZM27.1914 43.1904H14.5636V44.1904H27.1914V43.1904ZM15.0407 43.5407C14.0045 40.2387 13.423 36.5921 13.423 32.8302H12.423C12.423 36.6936 13.02 40.4411 14.0865 43.8401L15.0407 43.5407ZM12.923 33.3302H27.1798V32.3302H12.923V33.3302ZM27.1798 33.3302H27.1914V32.3302H27.1798V33.3302ZM2.29397 33.3302H11.294V32.3302H2.29397V33.3302ZM10.7942 32.8454C10.9107 36.6869 11.3882 40.4325 12.4575 43.8401L13.4116 43.5407C12.3782 40.2473 11.9084 36.5987 11.7938 32.8151L10.7942 32.8454ZM12.9346 43.1904H4.97434V44.1904H12.9346V43.1904ZM5.42942 43.4832C3.92503 40.1781 2.89527 36.5466 2.78219 32.8151L1.78265 32.8454C1.90064 36.739 2.97358 40.5017 4.51927 43.8975L5.42942 43.4832ZM2.28242 33.3302H2.29397V32.3302H2.28242V33.3302ZM5.92172 45.5768H13.5238V44.5768H5.92172V45.5768ZM13.0486 45.2322C14.4659 49.566 17.0891 54.1765 20.9438 57.0319L21.539 56.2283C17.9071 53.538 15.3777 49.1369 13.999 44.9213L13.0486 45.2322ZM21.3774 56.1489C14.9551 54.3334 9.56463 50.2515 6.36398 44.8228L5.50256 45.3307C8.84109 50.9932 14.4494 55.2297 21.1054 57.1112L21.3774 56.1489ZM5.93327 44.5768H5.92172V45.5768H5.93327V44.5768ZM34.9558 57.0378C38.8254 54.2909 41.3186 49.5511 42.8549 45.2448L41.9131 44.9087C40.3993 49.1519 37.9939 53.6548 34.377 56.2224L34.9558 57.0378ZM42.384 45.5768H49.9861V44.5768H42.384V45.5768ZM49.5593 44.8162C46.2412 50.2521 40.8462 54.3347 34.5397 56.1496L34.8162 57.1106C41.3569 55.2284 46.9608 50.9926 50.4129 45.3373L49.5593 44.8162ZM34.6779 56.1301H34.6664V57.1301H34.6779V56.1301Z" fill="#001452" mask="url(#path-2-outside-1_2353_4698)"/>
</g>
</g>
</svg>
