<svg width="52" height="64" viewBox="0 0 52 64" fill="none" xmlns="http://www.w3.org/2000/svg">
<g id="Group 17">
<path id="Vector" d="M25.9997 62.0031C54.1755 52.8394 49.7949 12.7708 49.7949 12.7708C32.4025 11.8167 25.9997 2 25.9997 2C25.9997 2 19.5968 11.8167 2.20446 12.7708C2.20446 12.7708 -2.17612 52.8362 25.9997 62.0031Z" fill="#DBDAFD" stroke="#001452" stroke-width="3" stroke-linecap="round" stroke-linejoin="round"/>
<g id="Group">
<path id="Vector_2" d="M27.4923 22.6335L29.3022 26.3009C29.5463 26.7954 30.0186 27.1377 30.5638 27.2169L34.6115 27.8065C35.984 28.0062 36.5324 29.6925 35.5403 30.6624L32.6114 33.5184C32.2184 33.9019 32.0377 34.4566 32.1296 34.9986L32.8206 39.0306C33.0552 40.3967 31.6193 41.4396 30.3926 40.7961L26.7728 38.8943C26.2846 38.6375 25.7014 38.6375 25.2133 38.8943L21.5934 40.7961C20.3667 41.4427 18.9308 40.3999 19.1654 39.0306L19.8564 34.9986C19.9483 34.4566 19.7708 33.9019 19.3746 33.5184L16.4458 30.6624C15.4536 29.6925 16.002 28.0062 17.3745 27.8065L21.4223 27.2169C21.9675 27.1377 22.4397 26.7954 22.6838 26.3009L24.4937 22.6335C25.1087 21.3878 26.8805 21.3878 27.4955 22.6335H27.4923Z" fill="#DBDAFD" stroke="#001452" stroke-width="3" stroke-linecap="round" stroke-linejoin="round"/>
<path id="Vector_3" d="M25.9734 21.7261C27.5384 21.7261 28.8071 20.4574 28.8071 18.8923C28.8071 17.3273 27.5384 16.0586 25.9734 16.0586C24.4084 16.0586 23.1396 17.3273 23.1396 18.8923C23.1396 20.4574 24.4084 21.7261 25.9734 21.7261Z" fill="#DBDAFD" stroke="#001452" stroke-width="3" stroke-linecap="round" stroke-linejoin="round"/>
<path id="Vector_4" d="M34.0818 46.0581C35.6468 46.0581 36.9155 44.7894 36.9155 43.2244C36.9155 41.6593 35.6468 40.3906 34.0818 40.3906C32.5168 40.3906 31.248 41.6593 31.248 43.2244C31.248 44.7894 32.5168 46.0581 34.0818 46.0581Z" fill="#DBDAFD" stroke="#001452" stroke-width="3" stroke-linecap="round" stroke-linejoin="round"/>
<path id="Vector_5" d="M39.489 31.187C41.0541 31.187 42.3228 29.9183 42.3228 28.3533C42.3228 26.7882 41.0541 25.5195 39.489 25.5195C37.924 25.5195 36.6553 26.7882 36.6553 28.3533C36.6553 29.9183 37.924 31.187 39.489 31.187Z" fill="#DBDAFD" stroke="#001452" stroke-width="3" stroke-linecap="round" stroke-linejoin="round"/>
<path id="Vector_6" d="M17.155 46.0581C18.7201 46.0581 19.9888 44.7894 19.9888 43.2244C19.9888 41.6593 18.7201 40.3906 17.155 40.3906C15.59 40.3906 14.3213 41.6593 14.3213 43.2244C14.3213 44.7894 15.59 46.0581 17.155 46.0581Z" fill="#DBDAFD" stroke="#001452" stroke-width="3" stroke-linecap="round" stroke-linejoin="round"/>
<path id="Vector_7" d="M13.1013 31.187C14.6664 31.187 15.9351 29.9183 15.9351 28.3533C15.9351 26.7882 14.6664 25.5195 13.1013 25.5195C11.5363 25.5195 10.2676 26.7882 10.2676 28.3533C10.2676 29.9183 11.5363 31.187 13.1013 31.187Z" fill="#DBDAFD" stroke="#001452" stroke-width="3" stroke-linecap="round" stroke-linejoin="round"/>
</g>
</g>
</svg>
