<svg width="55" height="55" viewBox="0 0 55 55" fill="none" xmlns="http://www.w3.org/2000/svg">
<g id="Group 11">
<path id="Vector" d="M26.7402 44.1042H49.2957C49.5768 44.1042 49.8064 44.5518 49.8064 45.1055V47.8482C49.8064 48.4019 49.5768 48.8495 49.2957 48.8495H26.7402C26.459 48.8495 26.2295 48.4019 26.2295 47.8482V45.1055C26.2295 44.5518 26.459 44.1042 26.7402 44.1042Z" fill="#DBDAFD" stroke="#001452" stroke-width="2" stroke-linecap="round" stroke-linejoin="round"/>
<path id="Vector_2" d="M23.6014 48.8523H52.437C52.7985 48.8523 53.0911 49.2913 53.0911 49.8335V52.5188C53.0911 53.061 52.7985 53.5 52.437 53.5H23.6014C23.2399 53.5 22.9473 53.061 22.9473 52.5188V49.8335C22.9473 49.2913 23.2399 48.8523 23.6014 48.8523Z" fill="#DBDAFD" stroke="#001452" stroke-width="2" stroke-linecap="round" stroke-linejoin="round"/>
<g id="Group">
<path id="Vector_3" d="M12.4752 17.7531L28.6445 1.58383C28.8481 1.38014 29.3531 1.56088 29.7748 1.98261L31.8634 4.0712C32.2851 4.49293 32.463 4.99786 32.2622 5.20155L16.0929 21.3708C15.8892 21.5745 15.3843 21.3938 14.9625 20.9721L12.8739 18.8835C12.4522 18.4617 12.2743 17.9568 12.4752 17.7531Z" fill="#DBDAFD" stroke="#001452" stroke-width="2" stroke-linecap="round" stroke-linejoin="round"/>
<path id="Vector_4" d="M29.0699 34.347L45.2392 18.1777C45.4429 17.974 45.9478 18.1548 46.3695 18.5765L48.4581 20.6651C48.8799 21.0868 49.0577 21.5918 48.8569 21.7955L32.6876 37.9647C32.4839 38.1684 31.979 37.9877 31.5573 37.566L29.4687 35.4774C29.0469 35.0557 28.8691 34.5507 29.0699 34.347Z" fill="#DBDAFD" stroke="#001452" stroke-width="2" stroke-linecap="round" stroke-linejoin="round"/>
<path id="Vector_5" d="M31.092 6.37232L17.2607 20.2036L30.238 33.1808L44.0692 19.3495L31.092 6.37232Z" fill="#DBDAFD" stroke="#001452" stroke-width="2" stroke-linecap="round" stroke-linejoin="round"/>
<path id="Vector_6" d="M1.4488 41.9575L20.232 23.1743L24.6869 27.6292L5.90369 46.4124C5.60751 46.7086 5.12469 46.7086 4.82851 46.4124L1.44677 43.0306C1.15059 42.7345 1.15059 42.2516 1.44677 41.9555L1.4488 41.9575Z" fill="#DBDAFD" stroke="#001452" stroke-width="2" stroke-linecap="round" stroke-linejoin="round"/>
</g>
</g>
</svg>
