<svg width="56" height="56" viewBox="0 0 56 56" fill="none" xmlns="http://www.w3.org/2000/svg">
<g id="Group 15">
<path id="Vector" d="M50.9324 8.92669C53.5339 8.92669 54.994 6.97299 54.994 5.0193C55.0968 3.16843 53.8526 1.1119 51.2511 0.90625H11.406C9.01016 0.90625 7.13872 2.75712 7.13872 5.12212V47.178H1.62724C1.31876 47.178 1 47.4865 1 47.795C1 52.8335 4.53722 55.0956 7.97161 55.0956C39.385 55.0956 38.2436 55.0956 38.2436 55.0956C40.0122 54.9928 41.7809 54.273 42.9222 53.0391C44.2692 51.7024 45.1021 49.9543 45.1021 47.795V8.92669H50.9221H50.9324Z" fill="#DBDAFD"/>
<path id="Vector_2" d="M50.9324 8.92669C53.5339 8.92669 54.994 6.97299 54.994 5.0193C55.0968 3.16843 53.8526 1.1119 51.2511 0.90625H11.406C9.01016 0.90625 7.13872 2.75712 7.13872 5.12212V47.178H1.62724C1.31876 47.178 1 47.4865 1 47.795C1 52.8335 4.53722 55.0956 7.97161 55.0956C39.385 55.0956 38.2436 55.0956 38.2436 55.0956C40.0122 54.9928 41.7809 54.273 42.9222 53.0391C44.2692 51.7024 45.1021 49.9543 45.1021 47.795V8.92669H50.9221H50.9324ZM53.7395 4.91647C53.7395 6.25321 52.8038 7.58995 50.9324 7.58995H45.1124C45.4209 4.60799 47.9196 2.24299 50.9324 2.14016H51.138C53.0095 2.24299 53.7395 3.57973 53.7395 4.91647ZM7.86879 53.7589C4.64005 53.7589 2.46013 51.7024 2.25448 48.4119H30.0278C30.2335 50.5713 31.1692 52.525 33.0406 53.7589H7.86879ZM38.1408 53.7589H36.7835C34.2848 53.4504 31.272 51.8052 31.272 47.795C31.272 47.4865 30.9635 47.178 30.6448 47.178H8.38292V5.0193C8.38292 3.37408 9.72994 2.14016 11.3957 2.14016H47.0764C44.9993 3.4769 43.8477 5.84191 43.8477 8.30973V47.795C43.7448 51.5995 40.8349 53.5532 38.1305 53.7589H38.1408Z" fill="#001452" stroke="#001452" stroke-width="0.5"/>
<path id="Vector_3" d="M14.9427 19.3156H15.0456V19.5212C15.0456 21.6806 16.8142 23.4286 18.9941 23.4286C21.174 23.4286 22.9426 21.6806 22.9426 19.5212V19.3156H23.1483C23.4567 19.3156 23.7755 19.0071 23.7755 18.6986C23.7755 18.3901 23.467 18.0817 23.1483 18.0817H21.174L19.8167 12.7347L25.3282 11.1923V24.1484H22.7267C22.4182 24.1484 22.0994 24.4569 22.0994 24.7654V26.7191H20.7524C19.7139 26.7191 18.7781 27.5417 18.7781 28.6728C18.7781 29.701 19.611 30.6265 20.7524 30.6265H31.1584C32.197 30.6265 33.1327 29.8039 33.1327 28.6728C33.1327 27.6445 32.2998 26.7191 31.1584 26.7191H29.8114V24.7654C29.8114 24.4569 29.5029 24.1484 29.1841 24.1484H26.5826V10.6782L32.197 9.03297L30.9528 13.9686H28.9785C28.67 13.9686 28.3513 14.2771 28.3513 14.5856C28.3513 14.8941 28.6597 15.2025 28.9785 15.2025H29.1841V15.4082C29.1841 17.5675 30.9528 19.3156 33.1327 19.3156C35.3126 19.3156 37.0812 17.5675 37.0812 15.4082V15.2025H37.2868C37.5953 15.2025 37.9141 14.8941 37.9141 14.5856C37.9141 14.2771 37.6056 13.9686 37.2868 13.9686H35.3126C33.3383 6.46232 33.8525 8.31319 33.7496 8.00471V7.79906C33.7496 7.79906 33.7496 7.69623 33.6468 7.69623L33.544 7.5934C33.544 7.5934 33.4412 7.5934 33.4412 7.49058H32.9167C32.8139 7.49058 28.1353 8.93014 26.5724 9.34145V7.28493C26.5724 6.97645 26.2639 6.66797 25.9451 6.66797C25.6264 6.66797 25.3179 6.97645 25.3179 7.28493V9.64993C18.665 11.6036 18.8707 11.5008 18.7679 11.6036C18.665 11.7064 18.4594 11.8093 18.4594 12.0149C18.4594 12.1178 17.6265 15.3054 16.8964 17.9788H14.9222C14.6137 17.9788 14.2949 18.2873 14.2949 18.5958C14.2949 19.0071 14.5006 19.3156 14.9222 19.3156H14.9427ZM31.7959 28.4671C31.7959 28.7756 31.4875 29.0841 31.1687 29.0841H20.7627C20.4542 29.0841 20.1354 28.7756 20.1354 28.4671C20.1354 28.1586 20.4439 27.8502 20.7627 27.8502H31.1687C31.4772 27.8502 31.7959 28.1586 31.7959 28.4671ZM28.5672 26.5134H23.3642V25.1767H28.5672V26.5134ZM35.7445 15.4082C35.7445 16.8478 34.6031 18.0817 33.0401 18.0817C31.4772 18.0817 30.3358 16.9506 30.3358 15.4082V15.2025H35.6416L35.7445 15.4082ZM32.3101 13.8658L33.143 10.6782L33.9758 13.8658H32.3101ZM19.0969 14.7912L19.9298 17.9788H18.264L19.0969 14.7912ZM21.6984 19.3156V19.5212C21.6984 20.9608 20.557 22.1947 18.9941 22.1947C17.5339 22.1947 16.2897 21.0636 16.2897 19.5212V19.3156H21.6984Z" fill="#001452" stroke="#001452" stroke-width="0.5"/>
<path id="Vector_4" d="M40.3211 33.6055H12.3421C12.0336 33.6055 11.7148 33.9139 11.7148 34.2224C11.7148 34.5309 12.0233 34.8394 12.3421 34.8394H40.3211C40.6296 34.8394 40.9483 34.5309 40.9483 34.2224C40.9483 33.9139 40.6398 33.6055 40.3211 33.6055Z" fill="#001452" stroke="#001452" stroke-width="0.5"/>
<path id="Vector_5" d="M40.3211 36.1758H12.3421C12.0336 36.1758 11.7148 36.4843 11.7148 36.7927C11.7148 37.1012 12.0233 37.4097 12.3421 37.4097H40.3211C40.6296 37.4097 40.9483 37.1012 40.9483 36.7927C40.9483 36.4843 40.6398 36.1758 40.3211 36.1758Z" fill="#001452" stroke="#001452" stroke-width="0.5"/>
<path id="Vector_6" d="M40.3211 38.7461H12.3421C12.0336 38.7461 11.7148 39.0546 11.7148 39.3631C11.7148 39.6715 12.0233 39.98 12.3421 39.98H40.3211C40.6296 39.98 40.9483 39.6715 40.9483 39.3631C40.9483 39.0546 40.6398 38.7461 40.3211 38.7461Z" fill="#001452" stroke="#001452" stroke-width="0.5"/>
<path id="Vector_7" d="M23.365 41.3164H12.3421C12.0336 41.3164 11.7148 41.6249 11.7148 41.9334C11.7148 42.2418 12.0233 42.5503 12.3421 42.5503H23.365C23.6735 42.5503 23.9923 42.2418 23.9923 41.9334C23.9923 41.6249 23.6838 41.3164 23.365 41.3164Z" fill="#001452" stroke="#001452" stroke-width="0.5"/>
</g>
</svg>
